# This file uses centimeters as units for non-parametric coordinates.

mtllib Contorno.mtl
g default
v -16.290798 -0.316924 15.969715
v -15.875341 -0.316924 15.969715
v -15.875341 -0.316924 16.312355
v -16.290798 -0.316924 16.312355
v -16.290798 1.009078 16.312355
v -16.327719 1.009078 16.312355
v -16.327719 -0.316924 16.312355
v -16.290798 -0.316924 16.422092
v -16.290798 1.009078 16.422092
v -15.875341 1.009078 15.969715
v -16.290798 1.009078 15.969715
v -15.875341 1.009078 16.312355
v -15.875341 1.009078 -16.269152
v 91.740036 1.009078 -16.269152
v 91.740036 -0.316924 -16.269152
v -15.875341 -0.316924 -16.269152
v 91.297760 1.009078 -15.816774
v -15.875341 1.009078 -15.816774
v -15.875341 -0.316924 -15.816774
v 91.297760 -0.316924 -15.816774
v 91.297760 1.009078 15.969715
v 91.297760 -0.316924 15.969715
v 91.740036 -0.316924 16.422092
v 91.740036 1.009078 16.422092
v 91.740036 -0.316924 -16.209858
v 91.740036 -0.316924 -15.816774
v 91.297760 -0.316924 -16.209858
v 91.740036 1.009078 -16.209858
v 91.750137 1.009078 -16.209858
v 91.750137 -0.316924 -16.209858
v 91.740036 1.009078 -15.816774
v 91.297760 1.009078 -16.209858
v 91.750137 -0.316924 16.416477
v 91.750137 1.009078 16.416477
v 91.740036 -0.316924 15.969715
v 91.740036 -0.316924 16.416477
v 91.297760 -0.316924 16.416477
v 91.740036 1.009078 16.416477
v 91.740036 1.009078 15.969715
v 91.297760 1.009078 16.416477
v -16.327719 1.009078 -16.313980
v -16.327719 -0.316924 -16.313980
v -16.290798 1.009078 -16.269152
v -16.290798 1.009078 -15.816774
v -15.875341 -0.316924 -16.313980
v -15.875341 1.009078 -16.313980
v -16.290798 -0.316924 -15.816774
v -16.290798 -0.316924 -16.269152
v -26.426422 -0.317275 25.046955
v -26.426422 -0.317275 25.413076
v -26.867294 -0.317275 25.413076
v -26.867294 -0.317275 25.046955
v -26.867294 1.008726 25.413076
v -26.878799 1.008726 25.413076
v -26.878799 -0.317275 25.413076
v -26.867294 -0.317275 25.499332
v -26.867294 1.008726 25.499332
v -26.426422 1.008726 25.413076
v -26.426422 1.008726 25.046955
v -26.867294 1.008726 25.046955
v -26.867294 1.008726 -26.090878
v 105.545578 1.008726 -26.090878
v 105.545578 -0.317275 -26.090878
v -26.867294 -0.317275 -26.090878
v -26.426422 -0.317275 -25.638500
v 105.054626 -0.317275 -25.638500
v 105.054626 1.008726 -25.638500
v -26.426422 1.008726 -25.638500
v 105.054626 1.008726 25.046955
v 105.054626 -0.317275 25.046955
v 105.545578 -0.317275 25.499332
v 105.545578 1.008726 25.499332
v 105.507004 -0.317275 -25.638500
v 105.054626 -0.317275 -26.064028
v 105.507004 -0.317275 -26.064028
v 105.545578 -0.317275 -25.638500
v 105.545578 1.008726 -25.638500
v 105.507004 1.008726 -25.638500
v 105.507004 1.008726 -26.064028
v 105.054626 1.008726 -26.064028
v 105.507004 -0.317275 25.046955
v 105.507004 1.008726 25.046955
v 105.507004 -0.317275 25.413076
v 105.054626 -0.317275 25.413076
v 105.545578 1.008726 25.046955
v 105.545578 -0.317275 25.046955
v 105.054626 1.008726 25.413076
v 105.507004 1.008726 25.413076
v -26.426422 -0.317275 -26.064028
v -26.867294 -0.317275 -26.064028
v -26.867294 1.008726 -26.064028
v -26.426422 1.008726 -26.064028
v -26.878799 1.008726 -26.064028
v -26.878799 -0.317275 -26.064028
v -26.867294 1.008726 -25.638500
v -26.867294 -0.317275 -25.638500
vt 0.375000 0.750000
vt 0.375961 0.750000
vt 0.375961 0.939355
vt 0.375000 0.939355
vt 0.145404 0.250000
vt 0.125000 0.250000
vt 0.125000 0.000000
vt 0.145404 0.000000
vt 0.314355 0.000000
vt 0.375000 0.000000
vt 0.375000 0.250000
vt 0.314355 0.250000
vt 0.375961 0.500000
vt 0.375000 0.500000
vt 0.375000 0.310645
vt 0.375961 0.310645
vt -4.200603 5.096292
vt 5.200603 5.096292
vt 0.625000 0.750000
vt 0.375961 0.750000
vt 0.623977 0.250000
vt 5.200603 5.210131
vt 11.161755 1.000000
vt -10.161755 1.000000
vt 0.623976 0.500000
vt 0.623976 0.750000
vt 0.625000 0.000000
vt 0.625000 0.250000
vt 0.625000 0.782768
vt 0.625000 1.000000
vt 0.623977 1.000000
vt 0.623977 0.782768
vt 0.842232 0.000000
vt 0.875000 0.000000
vt 0.875000 0.250000
vt 0.842232 0.250000
vt 0.630582 0.250000
vt 0.625000 0.250000
vt 0.625000 0.000000
vt 0.630582 0.000000
vt 0.625000 0.250000
vt 0.625000 0.467232
vt 0.623977 0.467232
vt -4.096578 1.000000
vt 5.096579 1.000000
vt 0.621988 0.750000
vt 0.378423 0.750000
vt 0.375000 0.000000
vt 0.375000 0.250000
vt 0.375961 1.000000
vt 0.625000 0.750000
vt 0.625000 0.996897
vt 0.623977 0.996897
vt 0.628103 0.250000
vt 0.628103 0.000000
vt 0.369418 0.000000
vt 0.369418 0.250000
vt 0.625000 0.253103
vt 0.625000 0.500000
vt 0.623977 0.253103
vt 0.625000 1.000000
vt 0.375000 1.000000
vt 0.621988 0.994418
vt 0.625000 0.994418
vt 0.625000 1.000000
vt 0.375000 1.000000
vt 0.375000 0.994418
vt 0.378423 0.994418
vt 5.239400 5.210131
vt 5.239400 5.227303
vt -4.200603 5.227303
vt -4.237047 -4.240285
vt -3.549223 0.000000
vt 4.549223 0.000000
vt 0.621190 0.250000
vt 4.549223 1.000000
vt -4.882591 1.000000
vt 5.882590 1.000000
vt 0.625000 0.750000
vt 0.375000 0.750000
vt 0.624656 0.250000
vt 0.624656 0.479596
vt 0.621190 0.479596
vt 0.624656 0.000000
vt 0.625000 0.000000
vt 0.625000 0.250000
vt 0.875000 0.000000
vt 0.875000 0.250000
vt 0.624656 1.000000
vt 0.621190 1.000000
vt 0.621190 0.770404
vt 0.624656 0.770404
vt 5.239400 -4.240285
vt 5.239400 -4.238659
vt 0.625000 1.000000
vt 0.377625 1.000000
vt 0.377625 0.770404
vt 0.375000 0.770404
vt -10.161755 0.000000
vt 11.161755 0.000000
vt -13.071959 0.000000
vt 14.071958 0.000000
vt 14.071958 1.000000
vt -13.071959 1.000000
vt -22.124855 1.000000
vt 23.124855 1.000000
vt 23.124855 0.000000
vt -22.124855 0.000000
vt -14.900457 1.000000
vt 15.900457 1.000000
vt 15.900457 0.000000
vt -14.900457 0.000000
vt 5.200603 -4.238659
vt 5.200603 -4.109274
vt -4.200603 -4.109274
vt -4.200603 -4.208505
vt -4.237047 -4.208505
vt 5.240286 -4.238659
vt 5.240286 5.210131
vt 5.239400 5.096292
vt 5.239400 -4.109274
vt -4.237047 5.096292
vt -4.237047 5.227303
vt -4.200603 5.240285
vt -4.240286 5.240285
vt -4.240286 -4.208505
vt -4.237047 -4.109274
vt -3.200771 0.000000
vt 4.200770 0.000000
vt 4.200770 1.000000
vt -3.200771 1.000000
vt -3.549223 1.000000
vt 5.096579 0.000000
vt -4.096578 0.000000
vt 5.882590 0.000000
vt -4.882591 0.000000
vt 0.376778 1.000000
vt 0.375000 1.000000
vt 0.375000 0.756358
vt 0.376778 0.756358
vt 0.131358 0.250000
vt 0.125000 0.250000
vt 0.125000 0.000000
vt 0.131358 0.000000
vt 0.327332 0.000000
vt 0.375000 0.000000
vt 0.375000 0.250000
vt 0.327332 0.250000
vt -4.088946 -4.105064
vt -4.088946 -4.039483
vt -4.119712 -4.039483
vt -4.119712 -4.105064
vt -20.100437 1.000000
vt 21.100437 1.000000
vt 21.100437 0.000000
vt -20.100437 0.000000
vt -26.463724 0.000000
vt 27.463722 0.000000
vt 27.463722 1.000000
vt -26.463724 1.000000
vt -16.408815 1.000000
vt 17.408817 1.000000
vt 17.408817 0.000000
vt -16.408815 0.000000
vt -14.031786 0.000000
vt 15.031786 0.000000
vt 15.031786 1.000000
vt -14.031786 1.000000
vt 0.624927 1.000000
vt 0.624073 1.000000
vt 0.624073 0.764838
vt 0.624927 0.764838
vt 0.625000 0.000000
vt 0.875000 0.000000
vt 0.875000 0.250000
vt 0.625000 0.250000
vt 0.624927 0.000000
vt 0.624927 0.250000
vt 5.086255 5.039483
vt 5.117823 5.039483
vt 5.117823 5.115705
vt 5.086255 5.115705
vt 0.376778 0.750000
vt 0.622933 0.750000
vt 0.622933 1.000000
vt 0.376778 1.000000
vt -6.834426 1.000000
vt 7.834426 1.000000
vt 7.834426 0.000000
vt -6.834426 0.000000
vt -3.594468 0.000000
vt 4.594468 0.000000
vt 4.594468 1.000000
vt -3.594468 1.000000
vt 5.117823 -4.039483
vt 5.086255 -4.039483
vt 0.624073 0.750000
vt 0.624927 0.750000
vt 0.624927 0.952332
vt 0.624073 0.952332
vt 0.624927 0.500000
vt 0.625000 0.500000
vt 0.625000 0.750000
vt 0.625000 0.000000
vt 0.875000 0.000000
vt 0.875000 0.250000
vt 0.625000 0.250000
vt 5.086255 -4.105064
vt 5.117823 -4.105064
vt 0.375000 0.750000
vt 0.625000 0.750000
vt 0.625000 1.000000
vt 0.375832 1.000000
vt 0.375832 0.764838
vt 0.375000 0.764838
vt -4.088946 5.039483
vt 5.120515 5.039483
vt 5.120515 5.120514
vt -4.119712 5.120514
vt -4.119712 5.115705
vt -4.088946 5.115705
vt 0.375832 0.750000
vt 0.625000 1.000000
vt 0.375000 1.000000
vt 0.375000 0.952332
vt 0.375832 0.952332
vt -4.119712 -4.120515
vt 5.120515 -4.120515
vt 5.120515 -4.039483
vt -5.772251 0.000000
vt 6.772252 0.000000
vt 6.772252 1.000000
vt -5.772251 1.000000
vt -7.171378 1.000000
vt 8.171378 1.000000
vt 8.171378 0.000000
vt -7.171378 0.000000
vt -4.119712 5.039483
vt 0.868642 0.000000
vt 0.875000 0.000000
vt 0.875000 0.250000
vt 0.868642 0.250000
vt 0.139838 0.250000
vt 0.125000 0.250000
vt 0.125000 0.000000
vt 0.139838 0.000000
vt 0.625000 0.756358
vt 0.625000 1.000000
vt 0.622933 1.000000
vt 0.622933 0.756358
vt -4.120515 5.115705
vt -4.120515 -4.105064
vt 0.375000 0.750000
vt 0.625000 0.750000
vn 0.000000 -1.000000 0.000000
vn 0.000000 -1.000000 -0.000000
vn 0.000000 -1.000000 -0.000000
vn 0.000000 -1.000000 -0.000000
vn 0.000000 0.000000 1.000000
vn 0.000000 0.000000 1.000000
vn 0.000000 0.000000 1.000000
vn 0.000000 0.000000 1.000000
vn -1.000000 0.000000 0.000000
vn -1.000000 0.000000 0.000000
vn -1.000000 0.000000 0.000000
vn -1.000000 0.000000 0.000000
vn 0.000000 1.000000 0.000000
vn 0.000000 1.000000 0.000000
vn 0.000000 1.000000 0.000000
vn 0.000000 1.000000 0.000000
vn 0.000000 0.000000 -1.000000
vn 0.000000 0.000000 -1.000000
vn 0.000000 0.000000 -1.000000
vn 0.000000 0.000000 -1.000000
vn 0.000000 0.000000 1.000000
vn 0.000000 0.000000 1.000000
vn 0.000000 0.000000 1.000000
vn 0.000000 0.000000 1.000000
vn 0.000000 0.000000 -1.000000
vn 0.000000 0.000000 -1.000000
vn 0.000000 0.000000 -1.000000
vn 0.000000 0.000000 -1.000000
vn 0.000000 0.000000 1.000000
vn 0.000000 0.000000 1.000000
vn 0.000000 0.000000 1.000000
vn 0.000000 0.000000 1.000000
vn 0.000000 -1.000000 0.000000
vn 0.000000 -1.000000 0.000000
vn 0.000000 -1.000000 0.000000
vn 0.000000 -1.000000 0.000000
vn 1.000000 0.000000 0.000000
vn 1.000000 0.000000 0.000000
vn 1.000000 0.000000 0.000000
vn 1.000000 0.000000 0.000000
vn 0.000000 0.000000 -1.000000
vn 0.000000 0.000000 -1.000000
vn 0.000000 0.000000 -1.000000
vn 0.000000 0.000000 -1.000000
vn 0.000000 1.000000 0.000000
vn 0.000000 1.000000 0.000000
vn 0.000000 1.000000 0.000000
vn 0.000000 1.000000 0.000000
vn -1.000000 0.000000 0.000000
vn -1.000000 0.000000 0.000000
vn -1.000000 0.000000 0.000000
vn -1.000000 0.000000 0.000000
vn 1.000000 0.000000 0.000000
vn 1.000000 0.000000 0.000000
vn 1.000000 0.000000 0.000000
vn 1.000000 0.000000 0.000000
vn 0.000000 -1.000000 0.000000
vn 0.000000 -1.000000 0.000000
vn 0.000000 -1.000000 0.000000
vn 0.000000 1.000000 0.000000
vn 0.000000 1.000000 0.000000
vn 0.000000 1.000000 0.000000
vn 0.000000 -1.000000 -0.000000
vn 0.000000 -1.000000 0.000000
vn 0.000000 -1.000000 -0.000000
vn 0.000000 -1.000000 -0.000000
vn 1.000000 0.000000 0.000000
vn 1.000000 0.000000 0.000000
vn 1.000000 0.000000 0.000000
vn 1.000000 0.000000 0.000000
vn 0.000000 0.000000 1.000000
vn 0.000000 0.000000 1.000000
vn 0.000000 0.000000 1.000000
vn 0.000000 0.000000 1.000000
vn 0.000000 1.000000 0.000000
vn 0.000000 1.000000 0.000000
vn 0.000000 1.000000 0.000000
vn 0.000000 1.000000 0.000000
vn 0.000000 -1.000000 -0.000000
vn 0.000000 -1.000000 -0.000000
vn 0.000000 1.000000 0.000000
vn 0.000000 1.000000 0.000000
vn 0.000000 -1.000000 0.000000
vn 0.000000 -1.000000 0.000000
vn 0.000000 1.000000 0.000000
vn 0.000000 1.000000 0.000000
vn 1.000000 0.000000 0.000000
vn 1.000000 0.000000 0.000000
vn 1.000000 0.000000 0.000000
vn 1.000000 0.000000 0.000000
vn -1.000000 0.000000 0.000000
vn -1.000000 0.000000 0.000000
vn -1.000000 0.000000 0.000000
vn -1.000000 0.000000 0.000000
vn 0.000000 1.000000 0.000000
vn 0.000000 1.000000 0.000000
vn 1.000000 0.000000 0.000000
vn 1.000000 0.000000 0.000000
vn 1.000000 0.000000 0.000000
vn 1.000000 0.000000 0.000000
vn 0.000000 0.000000 -1.000000
vn 0.000000 0.000000 -1.000000
vn 0.000000 0.000000 -1.000000
vn 0.000000 0.000000 -1.000000
vn 0.000000 -1.000000 0.000000
vn 0.000000 -1.000000 0.000000
vn 0.000000 1.000000 0.000000
vn 0.000000 1.000000 0.000000
vn 0.000000 1.000000 0.000000
vn 0.000000 -1.000000 0.000000
vn 0.000000 -1.000000 0.000000
vn 0.000000 -1.000000 0.000000
vn 0.000000 -1.000000 0.000000
vn 0.000000 -1.000000 0.000000
vn 0.000000 -1.000000 0.000000
vn 0.000000 -1.000000 0.000000
vn 0.000000 0.000000 1.000000
vn 0.000000 0.000000 1.000000
vn 0.000000 0.000000 1.000000
vn 0.000000 0.000000 1.000000
vn -1.000000 0.000000 0.000000
vn -1.000000 0.000000 0.000000
vn -1.000000 0.000000 0.000000
vn -1.000000 0.000000 0.000000
vn 0.000000 1.000000 0.000000
vn 0.000000 1.000000 0.000000
vn 0.000000 1.000000 0.000000
vn 0.000000 1.000000 0.000000
vn 0.000000 0.000000 -1.000000
vn 0.000000 0.000000 -1.000000
vn 0.000000 0.000000 -1.000000
vn 0.000000 0.000000 -1.000000
vn 0.000000 0.000000 1.000000
vn 0.000000 0.000000 1.000000
vn 0.000000 0.000000 1.000000
vn 0.000000 0.000000 1.000000
vn 0.000000 0.000000 -1.000000
vn 0.000000 0.000000 -1.000000
vn 0.000000 0.000000 -1.000000
vn 0.000000 0.000000 -1.000000
vn 0.000000 0.000000 1.000000
vn 0.000000 0.000000 1.000000
vn 0.000000 0.000000 1.000000
vn 0.000000 0.000000 1.000000
vn 0.000000 -1.000000 -0.000000
vn 0.000000 -1.000000 -0.000000
vn 0.000000 -1.000000 -0.000000
vn 0.000000 -1.000000 -0.000000
vn 1.000000 0.000000 0.000000
vn 1.000000 0.000000 0.000000
vn 1.000000 0.000000 0.000000
vn 1.000000 0.000000 0.000000
vn 0.000000 0.000000 1.000000
vn 0.000000 0.000000 1.000000
vn 0.000000 0.000000 1.000000
vn 0.000000 0.000000 1.000000
vn 0.000000 1.000000 -0.000000
vn 0.000000 1.000000 -0.000000
vn 0.000000 1.000000 -0.000000
vn 0.000000 1.000000 -0.000000
vn 0.000000 -1.000000 0.000000
vn 0.000000 -1.000000 0.000000
vn -1.000000 0.000000 0.000000
vn -1.000000 0.000000 0.000000
vn -1.000000 0.000000 0.000000
vn -1.000000 0.000000 0.000000
vn 1.000000 0.000000 0.000000
vn 1.000000 0.000000 0.000000
vn 1.000000 0.000000 0.000000
vn 1.000000 0.000000 0.000000
vn 0.000000 1.000000 0.000000
vn 0.000000 1.000000 0.000000
vn 0.000000 -1.000000 0.000000
vn 0.000000 -1.000000 0.000000
vn 0.000000 0.000000 -1.000000
vn 0.000000 0.000000 -1.000000
vn 0.000000 0.000000 -1.000000
vn 0.000000 0.000000 -1.000000
vn 1.000000 0.000000 0.000000
vn 1.000000 0.000000 0.000000
vn 1.000000 0.000000 0.000000
vn 1.000000 0.000000 0.000000
vn 0.000000 1.000000 0.000000
vn 0.000000 1.000000 0.000000
vn 0.000000 -1.000000 -0.000000
vn 0.000000 -1.000000 -0.000000
vn 0.000000 -1.000000 -0.000000
vn 0.000000 -1.000000 -0.000000
vn 0.000000 -1.000000 -0.000000
vn 0.000000 -1.000000 -0.000000
vn 0.000000 1.000000 -0.000000
vn 0.000000 1.000000 -0.000000
vn 0.000000 1.000000 -0.000000
vn 0.000000 1.000000 -0.000000
vn 0.000000 1.000000 -0.000000
vn 0.000000 1.000000 -0.000000
vn 0.000000 -1.000000 0.000000
vn 0.000000 -1.000000 0.000000
vn 0.000000 -1.000000 0.000000
vn 0.000000 1.000000 0.000000
vn 0.000000 1.000000 0.000000
vn 0.000000 1.000000 0.000000
vn 1.000000 0.000000 0.000000
vn 1.000000 0.000000 0.000000
vn 1.000000 0.000000 0.000000
vn 1.000000 0.000000 0.000000
vn -1.000000 0.000000 0.000000
vn -1.000000 0.000000 0.000000
vn -1.000000 0.000000 0.000000
vn -1.000000 0.000000 0.000000
vn 0.000000 1.000000 0.000000
vn 0.000000 0.000000 -1.000000
vn 0.000000 0.000000 -1.000000
vn 0.000000 0.000000 -1.000000
vn 0.000000 0.000000 -1.000000
vn -1.000000 0.000000 0.000000
vn -1.000000 0.000000 0.000000
vn -1.000000 0.000000 0.000000
vn -1.000000 0.000000 0.000000
vn 0.000000 -1.000000 0.000000
vn 0.000000 1.000000 0.000000
vn 0.000000 1.000000 0.000000
vn 0.000000 -1.000000 0.000000
vn 0.000000 -1.000000 0.000000
s 1
g pCube3
usemtl BaseExterior:phong2SG
f 1/1/1 2/2/2 3/3/3 4/4/4
s off
f 5/5/5 6/6/6 7/7/7 4/8/8
f 4/9/9 8/10/10 9/11/11 5/12/12
s 2
f 10/13/13 11/14/14 5/15/15 12/16/16
s off
f 13/105/17 14/106/18 15/107/19 16/108/20
f 17/23/21 18/24/22 19/99/23 20/100/24
f 10/109/25 21/110/26 22/111/27 2/112/28
f 8/101/29 23/102/30 24/103/31 9/104/32
s 1
f 25/29/33 26/30/34 20/31/35 27/32/36
s off
f 25/33/37 15/34/38 14/35/39 28/36/40
f 28/37/41 29/38/42 30/39/43 25/40/44
s 2
f 17/21/45 31/41/46 28/42/47 32/43/48
s off
f 21/44/49 17/45/50 20/133/51 22/134/52
f 33/128/53 30/129/54 29/130/55 34/131/56
s 1
f 16/20/57 15/19/58 25/29/33 27/32/36 20/31/35 19/50/59
s 2
f 18/17/60 17/18/45 32/22/48 28/69/47 14/70/61 13/71/62
s 1
f 22/26/63 35/51/64 36/52/65 37/53/66
s off
f 38/54/67 24/28/68 23/27/69 36/55/70
f 36/56/71 33/48/72 34/49/73 38/57/74
s 2
f 38/58/75 39/59/76 21/25/77 40/60/78
s 1
f 2/2/2 22/26/63 37/53/66 36/52/65 23/61/79 8/62/80 4/4/4 3/3/3
s 2
f 9/72/81 24/93/82 38/94/75 40/113/78 21/114/77 10/115/13 12/116/16 5/117/15
s 1
f 22/47/63 20/46/35 26/63/34 25/64/33 30/65/83 33/66/84 36/67/65 35/68/64
s 2
f 34/118/85 29/119/86 28/69/47 31/120/46 17/18/45 21/114/77 39/121/76 38/94/75
s off
f 2/73/87 19/74/88 18/76/89 10/132/90
f 6/77/91 41/78/92 42/135/93 7/136/94
s 2
f 18/75/60 13/81/62 43/82/95 44/83/96
s off
f 16/84/97 45/85/98 46/86/99 13/81/100
f 45/85/101 42/87/102 41/88/103 46/86/104
s 1
f 16/89/57 19/90/59 47/91/105 48/92/106
s 2
f 10/115/13 18/17/60 44/122/96 43/123/95 13/71/62 46/124/107 41/125/108 6/126/109 5/117/15 11/127/14
s 1
f 7/80/110 42/79/111 45/95/112 16/89/57 48/92/106 47/91/105 19/90/59 2/96/2 1/97/1 4/98/4
s 5
f 49/137/113 50/138/114 51/139/115 52/140/116
s off
f 53/141/117 54/142/118 55/143/119 51/144/120
f 51/145/121 56/146/122 57/147/123 53/148/124
s 6
f 58/149/125 59/150/126 60/151/127 53/152/128
s off
f 61/153/129 62/154/130 63/155/131 64/156/132
f 65/157/133 66/158/134 67/159/135 68/160/136
f 59/161/137 69/162/138 70/163/139 49/164/140
f 56/165/141 71/166/142 72/167/143 57/168/144
s 5
f 73/169/145 66/170/146 74/171/147 75/172/148
s off
f 76/173/149 63/174/150 62/175/151 77/176/152
f 73/177/153 76/173/154 77/176/155 78/178/156
s 6
f 67/179/157 78/180/158 79/181/159 80/182/160
s 5
f 70/183/161 66/184/146 73/185/145 81/186/162
s off
f 69/187/163 67/188/164 66/189/165 70/190/166
f 81/191/167 73/192/168 78/193/169 82/194/170
s 6
f 82/195/171 78/180/158 67/179/157 69/196/172
s 5
f 70/197/161 81/198/162 83/199/173 84/200/174
s off
f 82/201/175 85/202/176 86/203/177 81/198/178
f 71/204/179 86/205/180 85/206/181 72/207/182
s 6
f 82/195/171 69/196/172 87/208/183 88/209/184
s 5
f 64/210/185 63/211/186 76/212/187 73/169/145 75/172/148 74/171/147 66/170/146 65/213/188 89/214/189 90/215/190
s 6
f 68/216/191 67/179/157 80/182/160 79/181/159 78/180/158 77/217/192 62/218/193 61/219/194 91/220/195 92/221/196
s 5
f 49/222/113 70/197/161 84/200/174 83/199/173 81/198/162 86/203/197 71/223/198 56/224/199 51/225/115 50/226/114
s 6
f 57/227/200 72/228/201 85/229/202 82/195/171 88/209/184 87/208/183 69/196/172 59/150/126 58/149/125 53/152/128
s off
f 49/230/203 65/231/204 68/232/205 59/233/206
f 54/234/207 93/235/208 94/236/209 55/237/210
s 6
f 68/216/191 92/221/196 91/220/195 95/238/211
s off
f 90/239/212 94/240/213 93/241/214 91/242/215
f 91/243/216 61/244/217 64/245/218 90/246/219
s 5
f 90/247/190 89/248/189 65/249/188 96/250/220
s 6
f 59/150/126 68/216/191 95/238/211 91/220/195 93/251/221 54/252/222 53/152/128 60/151/127
s 5
f 55/253/223 94/254/224 90/247/190 96/250/220 65/249/188 49/137/113 52/140/116 51/139/115
