# This file uses centimeters as units for non-parametric coordinates.

mtllib bicepIzq.mtl
g default
v 0.007512 -0.015672 -0.075090
v 0.005456 -0.040775 0.075915
v 0.005271 0.054870 -0.073135
v 0.005058 0.044667 0.052869
v -0.066826 -0.218195 -0.076617
v -0.022293 -0.232443 -0.037504
v 0.029587 -0.095756 -0.006436
v -0.015818 -0.061937 -0.062244
v -0.009431 -0.037789 -0.063815
v -0.040673 -0.226019 0.011718
v -0.107551 -0.203696 -0.055669
v -0.113463 -0.204684 -0.007578
v -0.066412 -0.035672 -0.037552
v -0.052856 0.003429 -0.043362
v -0.053871 0.030389 0.020746
v -0.025334 -0.004480 0.058993
v -0.039270 -0.045327 0.056689
v 0.013083 -0.053940 0.057101
v 0.005066 0.093326 -0.000920
v -0.080013 -0.213941 0.024011
v -0.073725 -0.025610 0.026369
v -0.000346 -0.073871 0.049467
vt -0.666000 -1.001100
vt -0.665900 -0.461700
vt -0.858800 -1.001200
vt -0.858700 -0.544800
vt -0.889500 -0.544900
vt -0.935800 -0.544900
vt -0.858700 -0.544800
vt -0.665900 -0.544600
vt -0.665900 -0.222400
vt -0.665900 -0.078800
vt -0.858700 -0.333800
vt -0.858700 -0.014700
vt -0.890400 -0.334300
vt -0.897300 -0.015000
vt -0.896100 -0.333700
vt -0.858700 -0.333300
vt -0.897300 -0.544800
vt -0.935800 -0.544700
vt -0.935900 -0.334400
vt -0.935800 -0.015300
vt -0.935900 -0.335000
vt -0.671200 -0.543400
vt -0.672100 -0.721100
vt -0.909800 -0.542300
vt -0.918100 -0.721700
vt -0.922700 -0.903600
vt -0.675900 -0.903700
vn 0.932198 -0.232500 -0.277399
vn 0.142803 0.021500 -0.989518
vn 0.992808 -0.119601 -0.005300
vn 0.142803 0.021500 -0.989518
vn 0.209305 -0.046901 -0.976725
vn 0.992808 -0.119601 -0.005300
vn 0.992808 -0.119601 -0.005300
vn 0.209305 -0.046901 -0.976725
vn -0.071802 -0.258908 -0.963230
vn -0.071802 -0.258908 -0.963230
vn -0.526716 -0.170705 -0.832725
vn 0.992808 -0.119601 -0.005300
vn 0.992808 -0.119601 -0.005300
vn 0.435309 -0.362407 0.824116
vn 0.932198 -0.232500 -0.277399
vn 0.435309 -0.362407 0.824116
vn 0.626119 -0.266908 0.732622
vn 0.932198 -0.232500 -0.277399
vn -0.774633 0.254311 -0.579025
vn -0.925185 0.161597 0.343394
vn -0.788424 0.217707 -0.575318
vn -0.925185 0.161597 0.343394
vn -0.896015 0.233604 0.377606
vn -0.788424 0.217707 -0.575318
vn -0.788424 0.217707 -0.575318
vn -0.896015 0.233604 0.377606
vn -0.761115 0.293306 -0.578511
vn -0.896015 0.233604 0.377606
vn -0.796387 0.534491 0.282995
vn -0.761115 0.293306 -0.578511
vn -0.796387 0.534491 0.282995
vn -0.896015 0.233604 0.377606
vn -0.428932 0.182714 0.884666
vn -0.896015 0.233604 0.377606
vn -0.302699 -0.027200 0.952698
vn -0.428932 0.182714 0.884666
vn -0.302699 -0.027200 0.952698
vn 0.435309 -0.362407 0.824116
vn -0.428932 0.182714 0.884666
vn -0.428932 0.182714 0.884666
vn 0.435309 -0.362407 0.824116
vn 0.693699 0.158100 0.702699
vn 0.693699 0.158100 0.702699
vn -0.771428 -0.152705 0.617722
vn -0.428932 0.182714 0.884666
vn -0.771428 -0.152705 0.617722
vn -0.336812 0.517318 0.786727
vn -0.428932 0.182714 0.884666
vn -0.428932 0.182714 0.884666
vn -0.336812 0.517318 0.786727
vn -0.796387 0.534491 0.282995
vn -0.336812 0.517318 0.786727
vn -0.491111 0.862819 0.119803
vn -0.796387 0.534491 0.282995
vn -0.796387 0.534491 0.282995
vn -0.491111 0.862819 0.119803
vn -0.761115 0.293306 -0.578511
vn -0.491111 0.862819 0.119803
vn -0.488090 0.430591 -0.759184
vn -0.761115 0.293306 -0.578511
vn -0.761115 0.293306 -0.578511
vn -0.488090 0.430591 -0.759184
vn -0.526716 -0.170705 -0.832725
vn -0.526716 -0.170705 -0.832725
vn -0.071802 -0.258908 -0.963230
vn -0.761115 0.293306 -0.578511
vn -0.761115 0.293306 -0.578511
vn -0.071802 -0.258908 -0.963230
vn -0.788424 0.217707 -0.575318
vn -0.071802 -0.258908 -0.963230
vn 0.209305 -0.046901 -0.976725
vn -0.788424 0.217707 -0.575318
vn 0.209305 -0.046901 -0.976725
vn 0.142803 0.021500 -0.989518
vn -0.788424 0.217707 -0.575318
vn -0.788424 0.217707 -0.575318
vn 0.142803 0.021500 -0.989518
vn -0.774633 0.254311 -0.579025
vn -0.925185 0.161597 0.343394
vn -0.276302 -0.116301 0.954008
vn -0.896015 0.233604 0.377606
vn -0.276302 -0.116301 0.954008
vn -0.302699 -0.027200 0.952698
vn -0.896015 0.233604 0.377606
vn -0.302699 -0.027200 0.952698
vn -0.276302 -0.116301 0.954008
vn 0.435309 -0.362407 0.824116
vn 0.435309 -0.362407 0.824116
vn -0.276302 -0.116301 0.954008
vn 0.626119 -0.266908 0.732622
vn 0.995756 0.080047 0.045417
vn 0.995756 0.080047 0.045417
vn 0.995756 0.080047 0.045417
vn 0.995756 0.080047 0.045417
vn 0.995756 0.080047 0.045417
vn 0.995756 0.080047 0.045417
vn 0.995756 0.080047 0.045417
vn 0.995756 0.080047 0.045417
vn -0.301652 -0.953401 -0.005684
vn -0.301653 -0.953401 -0.005684
vn -0.301652 -0.953401 -0.005684
vn -0.301652 -0.953401 -0.005684
vn -0.301652 -0.953401 -0.005684
vn -0.301652 -0.953401 -0.005684
s off
g polySurface34 polySurface30
usemtl Alex_mesh:mat0
f 6/1/1 5/2/2 7/3/3
f 5/2/4 8/4/5 7/3/6
f 7/3/7 8/4/8 9/5/9
f 9/5/10 1/6/11 7/3/12
f 7/3/13 22/7/14 6/1/15
f 22/7/16 10/8/17 6/1/18
f 11/9/19 12/10/20 13/11/21
f 12/10/22 21/12/23 13/11/24
f 13/11/25 21/12/26 14/13/27
f 21/12/28 15/14/29 14/13/30
f 15/14/31 21/12/32 16/15/33
f 21/12/34 17/16/35 16/15/36
f 17/16/37 22/7/38 16/15/39
f 16/15/40 22/7/41 18/17/42
f 18/17/43 2/18/44 16/15/45
f 2/18/46 4/19/47 16/15/48
f 16/15/49 4/19/50 15/14/51
f 4/19/52 19/20/53 15/14/54
f 15/14/55 19/20/56 14/13/57
f 19/20/58 3/21/59 14/13/60
f 14/13/61 3/21/62 1/6/63
f 1/6/64 9/5/65 14/13/66
f 14/13/67 9/5/68 13/11/69
f 9/5/70 8/4/71 13/11/72
f 8/4/73 5/2/74 13/11/75
f 13/11/76 5/2/77 11/9/78
f 12/22/79 20/23/80 21/24/81
f 20/23/82 17/25/83 21/24/84
f 17/25/85 20/23/86 22/26/87
f 22/26/88 20/23/89 10/27/90
f 2/18/91 18/17/92 22/7/93 7/3/94 1/6/95 3/21/96 19/20/97 4/19/98
f 6/1/99 10/27/100 20/23/101 12/10/102 11/9/103 5/2/104
