# This file uses centimeters as units for non-parametric coordinates.

mtllib FloorModel.mtl
g default
v 8.235509 5.049756 -12.340985
v 10.980312 5.049756 -9.256047
v 10.980312 5.334723 -9.256047
v 8.235509 5.334723 -12.340985
v -8.235509 5.049756 12.340985
v -10.980312 5.049756 9.256047
v -10.980312 5.334723 9.256047
v -8.235509 5.334723 12.340985
v -19.366169 5.049756 -19.366169
v -8.235509 5.049756 -12.340985
v -10.980312 5.049756 -9.256047
v 8.235509 5.049756 12.340985
v 19.366169 5.049756 19.366169
v -19.366169 5.049756 19.366169
v -19.366169 5.334723 19.366169
v 19.366169 5.334723 19.366169
v 8.235509 5.334723 12.340985
v -10.980312 5.334723 -9.256047
v -8.235509 5.334723 -12.340985
v -19.366169 5.334723 -19.366169
v 10.980312 5.049756 9.256047
v 10.980312 5.334723 9.256047
v 19.366169 5.049756 -19.366169
v 19.366169 5.334723 -19.366169
vt 1.000000 0.810171
vt 0.000000 0.810171
vt 0.000000 0.859124
vt 1.000000 0.859124
vt -0.000000 0.810171
vt 1.000000 0.810171
vt 1.000000 0.859124
vt -0.000000 0.859124
vt 0.375000 0.750000
vt 0.446843 0.795344
vt 0.429127 0.815256
vt 0.429127 0.934744
vt 0.446843 0.954656
vt 0.553157 0.954656
vt 0.625000 1.000000
vt 0.375000 1.000000
vt 0.375000 0.256489
vt 0.625000 0.256489
vt 1.000000 0.006489
vt 0.000000 0.006489
vt 1.000000 0.006489
vt 0.712626 0.181378
vt 1.000000 1.000000
vt 0.375000 0.500000
vt 1.000000 0.810171
vt 0.000000 0.810171
vt 0.000000 0.859124
vt 1.000000 0.859124
vt 1.000000 0.810171
vt 1.000000 0.859124
vt 0.375000 0.000000
vt 0.625000 0.000000
vt 0.875000 0.000000
vt 0.875000 0.250000
vt 1.000000 0.810171
vt 0.000000 0.810171
vt 0.000000 0.859124
vt 1.000000 0.859124
vt 0.570873 0.934744
vt 0.570873 0.815256
vt 0.553157 0.795344
vt 0.625000 0.750000
vt 0.625000 0.500000
vt 0.000000 1.000000
vt 0.287374 0.818622
vt 0.712626 0.818622
vt 0.000000 0.810171
vt 1.000000 0.810171
vt 1.000000 0.859124
vt 0.000000 0.859124
vt -0.000000 0.810171
vt -0.000000 0.859124
vt 0.125000 0.000000
vt 0.125000 0.250000
vt 0.000000 0.810171
vt 1.000000 0.810171
vt 1.000000 0.859124
vt 0.000000 0.859124
vt 0.287374 0.181378
vt 0.216508 0.261025
vt 0.216508 0.738975
vt 0.287374 0.818622
vt 0.000000 1.000000
vt 0.783492 0.738975
vt 0.783492 0.261025
vt 0.712626 0.181378
vn -0.747092 0.000000 0.664720
vn -0.747092 0.000000 0.664720
vn -0.747092 0.000000 0.664720
vn -0.747092 0.000000 0.664720
vn 0.747092 0.000000 -0.664720
vn 0.747092 0.000000 -0.664720
vn 0.747092 0.000000 -0.664720
vn 0.747092 0.000000 -0.664720
vn 0.000000 -1.000000 0.000000
vn 0.000000 -1.000000 0.000000
vn 0.000000 -1.000000 0.000000
vn 0.000000 -1.000000 0.000000
vn 0.000000 -1.000000 0.000000
vn 0.000000 -1.000000 0.000000
vn 0.000000 -1.000000 0.000000
vn 0.000000 -1.000000 0.000000
vn 0.000000 1.000000 0.000000
vn 0.000000 1.000000 0.000000
vn 0.000000 1.000000 0.000000
vn 0.000000 1.000000 0.000000
vn 0.000000 1.000000 0.000000
vn 0.000000 1.000000 0.000000
vn 0.000000 1.000000 0.000000
vn 0.000000 1.000000 0.000000
vn -1.000000 0.000000 0.000000
vn -1.000000 0.000000 0.000000
vn -1.000000 0.000000 0.000000
vn -1.000000 0.000000 0.000000
vn 0.000000 0.000000 -1.000000
vn 0.000000 0.000000 -1.000000
vn 0.000000 0.000000 -1.000000
vn 0.000000 0.000000 -1.000000
vn 0.000000 0.000000 1.000000
vn 0.000000 0.000000 1.000000
vn 0.000000 0.000000 1.000000
vn 0.000000 0.000000 1.000000
vn 1.000000 0.000000 0.000000
vn 1.000000 0.000000 0.000000
vn 1.000000 0.000000 0.000000
vn 1.000000 0.000000 0.000000
vn -0.747092 0.000000 -0.664720
vn -0.747092 0.000000 -0.664720
vn -0.747092 0.000000 -0.664720
vn -0.747092 0.000000 -0.664720
vn 0.000000 -1.000000 0.000000
vn 0.000000 -1.000000 0.000000
vn 0.000000 -1.000000 0.000000
vn 0.000000 -1.000000 0.000000
vn 0.000000 1.000000 0.000000
vn 0.000000 1.000000 0.000000
vn 0.000000 1.000000 0.000000
vn 0.000000 1.000000 0.000000
vn 1.000000 0.000000 0.000000
vn 1.000000 0.000000 0.000000
vn 1.000000 0.000000 0.000000
vn 1.000000 0.000000 0.000000
vn 0.000000 0.000000 1.000000
vn 0.000000 0.000000 1.000000
vn 0.000000 0.000000 1.000000
vn 0.000000 0.000000 1.000000
vn -1.000000 0.000000 0.000000
vn -1.000000 0.000000 0.000000
vn -1.000000 0.000000 0.000000
vn -1.000000 0.000000 0.000000
vn 0.000000 0.000000 -1.000000
vn 0.000000 0.000000 -1.000000
vn 0.000000 0.000000 -1.000000
vn 0.000000 0.000000 -1.000000
vn 0.747092 0.000000 0.664720
vn 0.747092 0.000000 0.664720
vn 0.747092 0.000000 0.664720
vn 0.747092 0.000000 0.664720
s off
g polySurface8 pCube17
usemtl phong8SG
f 1/1/1 2/2/2 3/3/3 4/4/4
f 5/5/5 6/6/6 7/7/7 8/8/8
s 1
f 9/9/9 10/10/10 11/11/11 6/12/12 5/13/13 12/14/14 13/15/15 14/16/16
s 2
f 15/20/17 16/21/18 17/22/19 8/59/20 7/60/21 18/61/22 19/62/23 20/63/24
s off
f 2/25/25 21/26/26 22/27/27 3/28/28
f 12/29/29 5/5/30 8/8/31 17/30/32
f 14/31/33 13/32/34 16/18/35 15/17/36
f 13/32/37 23/33/38 24/34/39 16/18/40
f 21/35/41 12/36/42 17/37/43 22/38/44
s 1
f 12/14/14 21/39/45 2/40/46 1/41/47 10/10/10 9/9/9 23/42/48 13/15/15
s 2
f 16/19/18 24/23/49 20/44/24 19/45/23 4/46/50 3/64/51 22/65/52 17/66/19
s off
f 6/47/53 11/48/54 18/49/55 7/50/56
f 10/51/57 1/1/58 4/4/59 19/52/60
f 9/53/61 14/31/62 15/17/63 20/54/64
f 20/24/65 24/43/66 23/42/67 9/9/68
f 11/55/69 10/56/70 19/57/71 18/58/72
