# This file uses centimeters as units for non-parametric coordinates.

mtllib StreetLightGlass.mtl
g default
v 0.371381 9.013286 0.305139
v 0.617543 10.139686 0.551186
v 0.371696 9.013748 -0.264133
v 0.617188 10.139583 -0.510131
v -0.197348 9.013286 0.304553
v -0.443396 10.139686 0.550715
v 0.371923 9.013748 0.304868
v 0.617920 10.139583 0.550360
v 0.370458 9.013286 -0.263730
v 0.616505 10.139686 -0.509891
v -0.198813 9.013748 -0.264045
v -0.444811 10.139583 -0.509536
v -0.197062 9.013286 -0.264133
v -0.443224 10.139686 -0.510180
v -0.197377 9.013748 0.305139
v -0.442869 10.139583 0.551135
vt 0.000000 0.183241
vt 0.042509 0.000000
vt 0.133156 0.000089
vt 0.169014 0.183241
vt 0.000000 0.544863
vt 0.045601 0.364500
vt 0.135828 0.364582
vt 0.168238 0.544863
vt 0.169014 0.542959
vt 0.208530 0.362823
vt 0.299919 0.362904
vt 0.339393 0.542959
vt 0.339393 0.530871
vt 0.378909 0.350623
vt 0.470298 0.350705
vt 0.509773 0.530871
vn 0.976987 -0.213297 -0.000100
vn 0.976987 -0.213297 -0.000100
vn 0.976987 -0.213297 -0.000100
vn 0.976987 -0.213297 -0.000100
vn 0.000100 -0.213297 0.976987
vn 0.000100 -0.213297 0.976987
vn 0.000100 -0.213297 0.976987
vn 0.000100 -0.213297 0.976987
vn -0.000100 -0.213297 -0.976987
vn -0.000100 -0.213297 -0.976987
vn -0.000100 -0.213297 -0.976987
vn -0.000100 -0.213297 -0.976987
vn -0.976987 -0.213297 0.000100
vn -0.976987 -0.213297 0.000100
vn -0.976987 -0.213297 0.000100
vn -0.976987 -0.213297 0.000100
s off
g StreetLampGlass:polySurface2
usemtl StreetLampGlass:phong1SG4
f 2/1/1 1/2/2 3/3/3 4/4/4
f 6/5/5 5/6/6 7/7/7 8/8/8
f 10/9/9 9/10/10 11/11/11 12/12/12
f 14/13/13 13/14/14 15/15/15 16/16/16
