# This file uses centimeters as units for non-parametric coordinates.

mtllib plantas.mtl
g default
v -1.972798 0.898720 -3.277790
v -1.040002 1.421870 -2.876587
v -1.324257 0.412283 -2.959188
v -1.709082 0.412283 -3.032141
v -1.236514 0.526807 -2.996950
v -1.873709 0.688452 -3.209998
v -1.771908 0.480491 -3.090056
v -1.023126 1.050429 -3.109804
v -1.040904 1.090639 -3.074637
v -1.052855 1.155533 -3.030520
v -1.038001 1.359676 -2.918364
v -0.969441 1.337727 -3.002588
v -1.660713 1.374207 -2.758842
v -1.824947 0.894497 -3.155765
v -1.655995 0.880411 -2.991669
v -1.459672 0.902822 -2.918433
v -1.258449 0.957184 -2.946296
v -1.093564 1.049737 -3.039538
v -1.647020 0.412283 -2.990942
v -1.582891 0.412283 -2.961602
v -1.518535 0.412283 -2.944012
v -1.455163 0.412283 -2.938029
v -1.388959 0.412283 -2.943913
v -1.762383 0.685366 -3.102335
v -1.627558 0.687552 -2.991311
v -1.482983 0.706729 -2.945438
v -1.334823 0.737871 -2.959720
v -1.196746 0.783450 -3.020643
v -1.688598 0.488210 -3.016996
v -1.598626 0.495930 -2.967668
v -1.507290 0.503649 -2.942104
v -1.415541 0.511368 -2.940400
v -1.323157 0.519088 -2.959534
v -1.825374 1.407123 -2.928963
v -1.659789 1.326632 -2.790178
v -1.465593 1.295233 -2.725084
v -1.263903 1.322194 -2.748371
v -1.098167 1.391229 -2.836600
v -1.823697 1.320788 -2.985829
v -1.658084 1.247008 -2.843425
v -1.463725 1.223713 -2.774736
v -1.262539 1.251973 -2.794623
v -1.096907 1.326379 -2.879313
v -1.822453 1.230049 -3.041772
v -1.656447 1.166702 -2.892380
v -1.461729 1.153488 -2.820454
v -1.260849 1.185064 -2.840189
v -1.095648 1.261530 -2.922027
v -1.822461 1.126572 -3.090076
v -1.655599 1.078365 -2.934037
v -1.460424 1.076234 -2.860161
v -1.259477 1.114924 -2.881304
v -1.094412 1.196436 -2.964713
v -1.823325 1.014397 -3.128447
v -1.655474 0.982674 -2.967433
v -1.459758 0.992478 -2.893068
v -1.258692 1.038816 -2.916882
v -1.093731 1.125703 -3.004610
v -1.466569 1.345470 -2.691995
v -1.917439 1.353799 -3.053756
v -1.886176 1.141629 -3.140664
v -1.903198 1.437375 -2.983429
v -1.940268 1.270689 -3.131170
v -1.865830 1.019813 -3.163083
v -1.902438 1.450784 -2.973614
v -1.659946 1.334725 -2.784847
v -1.825771 1.427550 -2.915509
v -1.098468 1.406727 -2.826392
v -1.264813 1.369047 -2.717511
v -1.055808 1.447860 -2.843801
v -0.989715 1.263914 -3.028978
v -1.060989 1.442865 -2.841687
v -1.027082 1.034477 -3.112167
v -1.081793 0.855248 -3.111810
vt 0.833333 0.611686
vt 0.881466 0.620975
vt 0.895331 0.548381
vt 0.833333 0.534024
vt 0.614704 0.106805
vt 0.691018 0.114524
vt 0.613773 0.000000
vt 0.560046 0.000000
vt 0.000000 0.341041
vt 0.166667 0.379638
vt 0.238056 0.227783
vt 0.116566 0.204625
vt 0.833333 0.922337
vt 0.901975 0.924987
vt 0.902901 0.850045
vt 0.833333 0.844675
vt 0.982493 0.784283
vt 0.833333 0.767012
vt 0.957135 0.708462
vt 0.833333 0.689349
vt 0.166667 0.586425
vt 0.333333 0.612156
vt 0.333333 0.515195
vt 0.166667 0.483031
vt 0.500000 0.637887
vt 0.500000 0.547359
vt 0.666667 0.663618
vt 0.666667 0.579523
vt 0.166667 0.689819
vt 0.333333 0.709117
vt 0.500000 0.728415
vt 0.666667 0.747714
vt 0.166667 0.793213
vt 0.333333 0.806078
vt 0.500000 0.818944
vt 0.666667 0.831809
vt 0.166667 0.896606
vt 0.333333 0.903039
vt 0.500000 0.909472
vt 0.666667 0.915905
vt 0.359547 0.250941
vt 0.385760 0.083647
vt 0.309446 0.075928
vt 0.481037 0.274098
vt 0.462075 0.091366
vt 0.602528 0.297256
vt 0.538389 0.099085
vt 0.724018 0.320414
vt 0.911855 0.487301
vt 0.849045 0.348814
vt 0.333333 0.418234
vt 0.500000 0.456831
vt 0.666667 0.495427
vt 0.233131 0.068208
vt 0.345141 0.000000
vt 0.291414 0.000000
vt 0.398867 0.000000
vt 0.452593 0.000000
vt 0.506320 0.000000
vt 0.500000 0.969634
vt 0.333333 0.912732
vt 0.333333 0.960014
vt 0.059472 0.784938
vt 0.031469 0.674164
vt 0.094001 0.575206
vt 0.118493 0.473735
vt 0.077737 0.893174
vt 0.166667 0.921069
vt 0.078913 0.909756
vt 0.833333 0.940897
vt 0.877935 0.962053
vt 0.666667 0.972015
vt 0.916407 0.500401
vn -0.623217 0.343609 -0.702519
vn -0.664017 0.356209 -0.657417
vn -0.676405 0.300802 -0.672305
vn -0.635789 0.266795 -0.724288
vn -0.337711 -0.006100 -0.941230
vn -0.485511 0.004400 -0.874220
vn -0.328800 0.000300 -0.944400
vn -0.211896 -0.004500 -0.977282
vn 0.652000 0.088800 -0.753001
vn 0.665611 0.102602 -0.739212
vn 0.659218 -0.014100 -0.751820
vn 0.669128 0.005000 -0.743131
vn -0.606907 0.428905 -0.669107
vn -0.653332 0.407520 -0.638032
vn -0.653332 0.407520 -0.638032
vn -0.606607 0.430105 -0.668608
vn -0.606607 0.430105 -0.668608
vn -0.653332 0.407520 -0.638032
vn -0.653428 0.407217 -0.638127
vn -0.607008 0.425306 -0.671309
vn -0.607008 0.425306 -0.671309
vn -0.653428 0.407217 -0.638127
vn -0.654441 0.400325 -0.641441
vn -0.611908 0.397805 -0.683608
vn -0.611908 0.397805 -0.683608
vn -0.654441 0.400325 -0.641441
vn -0.664017 0.356209 -0.657417
vn -0.623217 0.343609 -0.702519
vn 0.667541 0.276717 -0.691243
vn 0.529919 0.327812 -0.782128
vn 0.528215 0.241907 -0.813923
vn 0.665918 0.198905 -0.719020
vn 0.529919 0.327812 -0.782128
vn 0.079704 0.415822 -0.905947
vn 0.071701 0.323502 -0.943507
vn 0.528215 0.241907 -0.813923
vn 0.079704 0.415822 -0.905947
vn -0.382189 0.423988 -0.821076
vn -0.393810 0.348609 -0.850521
vn 0.071701 0.323502 -0.943507
vn -0.382189 0.423988 -0.821076
vn -0.611908 0.397805 -0.683608
vn -0.623217 0.343609 -0.702519
vn -0.393810 0.348609 -0.850521
vn 0.665900 0.359700 -0.653600
vn 0.530122 0.413018 -0.740531
vn 0.529919 0.327812 -0.782128
vn 0.667541 0.276717 -0.691243
vn 0.530122 0.413018 -0.740531
vn 0.086406 0.502832 -0.860055
vn 0.079704 0.415822 -0.905947
vn 0.529919 0.327812 -0.782128
vn 0.086406 0.502832 -0.860055
vn -0.372600 0.485599 -0.790799
vn -0.382189 0.423988 -0.821076
vn 0.079704 0.415822 -0.905947
vn -0.372600 0.485599 -0.790799
vn -0.607008 0.425306 -0.671309
vn -0.611908 0.397805 -0.683608
vn -0.382189 0.423988 -0.821076
vn 0.661102 0.413601 -0.626002
vn 0.529004 0.468604 -0.707506
vn 0.530122 0.413018 -0.740531
vn 0.665900 0.359700 -0.653600
vn 0.529004 0.468604 -0.707506
vn 0.091104 0.552024 -0.828836
vn 0.086406 0.502832 -0.860055
vn 0.530122 0.413018 -0.740531
vn 0.091104 0.552024 -0.828836
vn -0.367920 0.511028 -0.776843
vn -0.372600 0.485599 -0.790799
vn 0.086406 0.502832 -0.860055
vn -0.367920 0.511028 -0.776843
vn -0.606607 0.430105 -0.668608
vn -0.607008 0.425306 -0.671309
vn -0.372600 0.485599 -0.790799
vn 0.659623 0.422915 -0.621322
vn 0.530308 0.477407 -0.700611
vn 0.529004 0.468604 -0.707506
vn 0.661102 0.413601 -0.626002
vn 0.530308 0.477407 -0.700611
vn 0.092502 0.554812 -0.826818
vn 0.091104 0.552024 -0.828836
vn 0.529004 0.468604 -0.707506
vn 0.092502 0.554812 -0.826818
vn -0.370224 0.508433 -0.777451
vn -0.367920 0.511028 -0.776843
vn 0.091104 0.552024 -0.828836
vn -0.370224 0.508433 -0.777451
vn -0.606907 0.428905 -0.669107
vn -0.606607 0.430105 -0.668608
vn -0.367920 0.511028 -0.776843
vn 0.659218 -0.014100 -0.751820
vn 0.477702 -0.005600 -0.878504
vn 0.402608 -0.041801 -0.914418
vn 0.591993 -0.043099 -0.804790
vn 0.477702 -0.005600 -0.878504
vn 0.115103 0.021400 -0.993123
vn 0.147200 -0.034700 -0.988498
vn 0.402608 -0.041801 -0.914418
vn 0.115103 0.021400 -0.993123
vn -0.255393 0.059998 -0.964974
vn -0.115706 -0.021601 -0.993049
vn 0.147200 -0.034700 -0.988498
vn -0.255393 0.059998 -0.964974
vn -0.526904 0.091301 -0.845007
vn -0.337711 -0.006100 -0.941230
vn -0.115706 -0.021601 -0.993049
vn -0.635789 0.266795 -0.724288
vn -0.684920 0.249907 -0.684420
vn -0.664137 0.172910 -0.727341
vn -0.526904 0.091301 -0.845007
vn 0.665611 0.102602 -0.739212
vn 0.530805 0.127101 -0.837909
vn 0.477702 -0.005600 -0.878504
vn 0.659218 -0.014100 -0.751820
vn 0.530805 0.127101 -0.837909
vn 0.071898 0.189894 -0.979169
vn 0.115103 0.021400 -0.993123
vn 0.477702 -0.005600 -0.878504
vn 0.071898 0.189894 -0.979169
vn -0.388912 0.236407 -0.890427
vn -0.255393 0.059998 -0.964974
vn 0.115103 0.021400 -0.993123
vn -0.388912 0.236407 -0.890427
vn -0.635789 0.266795 -0.724288
vn -0.526904 0.091301 -0.845007
vn -0.255393 0.059998 -0.964974
vn 0.669128 0.005000 -0.743131
vn 0.659218 -0.014100 -0.751820
vn 0.591993 -0.043099 -0.804790
vn 0.664392 -0.058499 -0.745091
vn 0.664392 -0.058499 -0.745091
vn 0.591993 -0.043099 -0.804790
vn 0.509098 -0.013900 -0.860596
vn 0.618228 -0.010000 -0.785935
vn 0.591993 -0.043099 -0.804790
vn 0.402608 -0.041801 -0.914418
vn 0.351397 -0.015900 -0.936092
vn 0.509098 -0.013900 -0.860596
vn 0.402608 -0.041801 -0.914418
vn 0.147200 -0.034700 -0.988498
vn 0.168609 -0.016001 -0.985553
vn 0.351397 -0.015900 -0.936092
vn 0.147200 -0.034700 -0.988498
vn -0.115706 -0.021601 -0.993049
vn -0.027901 -0.012400 -0.999534
vn 0.168609 -0.016001 -0.985553
vn -0.115706 -0.021601 -0.993049
vn -0.337711 -0.006100 -0.941230
vn -0.211896 -0.004500 -0.977282
vn -0.027901 -0.012400 -0.999534
vn 0.665918 0.198905 -0.719020
vn 0.528215 0.241907 -0.813923
vn 0.530805 0.127101 -0.837909
vn 0.665611 0.102602 -0.739212
vn 0.528215 0.241907 -0.813923
vn 0.071701 0.323502 -0.943507
vn 0.071898 0.189894 -0.979169
vn 0.530805 0.127101 -0.837909
vn 0.071701 0.323502 -0.943507
vn -0.393810 0.348609 -0.850521
vn -0.388912 0.236407 -0.890427
vn 0.071898 0.189894 -0.979169
vn -0.393810 0.348609 -0.850521
vn -0.623217 0.343609 -0.702519
vn -0.635789 0.266795 -0.724288
vn -0.388912 0.236407 -0.890427
vn 0.087306 0.549139 -0.831159
vn 0.092502 0.554812 -0.826818
vn 0.530308 0.477407 -0.700611
vn 0.473023 0.491024 -0.731536
vn 0.345802 0.520802 -0.780504
vn 0.628020 0.428314 -0.649721
vn 0.661102 0.413601 -0.626002
vn 0.665900 0.359700 -0.653600
vn 0.635279 0.375987 -0.674577
vn 0.637407 0.290403 -0.713708
vn 0.667541 0.276717 -0.691243
vn 0.665918 0.198905 -0.719020
vn 0.633802 0.195801 -0.748303
vn 0.623490 0.438493 -0.647290
vn 0.659623 0.422915 -0.621322
vn 0.661102 0.413601 -0.626002
vn 0.628020 0.428314 -0.649721
vn 0.635279 0.375987 -0.674577
vn 0.665900 0.359700 -0.653600
vn 0.667541 0.276717 -0.691243
vn 0.637407 0.290403 -0.713708
vn 0.633802 0.195801 -0.748303
vn 0.665918 0.198905 -0.719020
vn 0.665611 0.102602 -0.739212
vn 0.652000 0.088800 -0.753001
vn 0.660840 0.421725 -0.620837
vn 0.659623 0.422915 -0.621322
vn 0.623490 0.438493 -0.647290
vn 0.623490 0.438493 -0.647290
vn 0.473023 0.491024 -0.731536
vn 0.530308 0.477407 -0.700611
vn 0.659623 0.422915 -0.621322
vn 0.660840 0.421725 -0.620837
vn -0.653332 0.407520 -0.638032
vn -0.606907 0.428905 -0.669107
vn -0.610100 0.427500 -0.667100
vn -0.653332 0.407520 -0.638032
vn -0.361613 0.507918 -0.781828
vn -0.370224 0.508433 -0.777451
vn 0.092502 0.554812 -0.826818
vn 0.087306 0.549139 -0.831159
vn -0.610100 0.427500 -0.667100
vn -0.606907 0.428905 -0.669107
vn -0.370224 0.508433 -0.777451
vn -0.361613 0.507918 -0.781828
vn -0.684920 0.249907 -0.684420
vn -0.635789 0.266795 -0.724288
vn -0.676405 0.300802 -0.672305
vn -0.678224 0.285510 -0.677124
vn -0.337711 -0.006100 -0.941230
vn -0.526904 0.091301 -0.845007
vn -0.664137 0.172910 -0.727341
vn -0.485511 0.004400 -0.874220
s off
g polySurface1 trawa01:Mesh
usemtl phong10SG
f 58/1/1 10/2/2 9/3/3 18/4/4
f 33/5/5 5/6/6 3/7/7 23/8/8
f 1/9/9 14/10/10 24/11/11 6/12/12
f 38/13/13 2/14/14 11/15/15 43/16/16
f 43/16/17 11/15/18 12/17/19 48/18/20
f 48/18/21 12/17/22 71/19/23 53/20/24
f 53/20/25 71/19/26 10/2/27 58/1/28
f 49/21/29 50/22/30 55/23/31 54/24/32
f 50/22/33 51/25/34 56/26/35 55/23/36
f 51/25/37 52/27/38 57/28/39 56/26/40
f 52/27/41 53/20/42 58/1/43 57/28/44
f 44/29/45 45/30/46 50/22/47 49/21/48
f 45/30/49 46/31/50 51/25/51 50/22/52
f 46/31/53 47/32/54 52/27/55 51/25/56
f 47/32/57 48/18/58 53/20/59 52/27/60
f 39/33/61 40/34/62 45/30/63 44/29/64
f 40/34/65 41/35/66 46/31/67 45/30/68
f 41/35/69 42/36/70 47/32/71 46/31/72
f 42/36/73 43/16/74 48/18/75 47/32/76
f 34/37/77 35/38/78 40/34/79 39/33/80
f 35/38/81 36/39/82 41/35/83 40/34/84
f 36/39/85 37/40/86 42/36/87 41/35/88
f 37/40/89 38/13/90 43/16/91 42/36/92
f 24/11/93 25/41/94 30/42/95 29/43/96
f 25/41/97 26/44/98 31/45/99 30/42/100
f 26/44/101 27/46/102 32/47/103 31/45/104
f 27/46/105 28/48/106 33/5/107 32/47/108
f 18/4/109 73/49/110 74/50/111 28/48/112
f 14/10/113 15/51/114 25/41/115 24/11/116
f 15/51/117 16/52/118 26/44/119 25/41/120
f 16/52/121 17/53/122 27/46/123 26/44/124
f 17/53/125 18/4/126 28/48/127 27/46/128
f 6/12/129 24/11/130 29/43/131 7/54/132
f 7/54/133 29/43/134 19/55/135 4/56/136
f 29/43/137 30/42/138 20/57/139 19/55/140
f 30/42/141 31/45/142 21/58/143 20/57/144
f 31/45/145 32/47/146 22/59/147 21/58/148
f 32/47/149 33/5/150 23/8/151 22/59/152
f 54/24/153 55/23/154 15/51/155 14/10/156
f 55/23/157 56/26/158 16/52/159 15/51/160
f 56/26/161 57/28/162 17/53/163 16/52/164
f 57/28/165 58/1/166 18/4/167 17/53/168
f 59/60/169 36/39/170 35/38/171 66/61/172 13/62/173
f 60/63/174 39/33/175 44/29/176 63/64/177
f 61/65/178 49/21/179 54/24/180 64/66/181
f 62/67/182 34/37/183 39/33/184 60/63/185
f 63/64/186 44/29/187 49/21/188 61/65/189
f 64/66/190 54/24/191 14/10/192 1/9/193
f 67/68/194 34/37/195 62/67/196 65/69/197
f 66/61/198 35/38/199 34/37/200 67/68/201
f 2/14/202 38/13/203 68/70/204 72/71/205
f 69/72/206 37/40/207 36/39/208 59/60/209
f 68/70/210 38/13/211 37/40/212 69/72/213
f 73/49/214 18/4/215 9/3/216 8/73/217
f 33/5/218 28/48/219 74/50/220 5/6/221
g default
v -2.002871 0.907390 -2.761936
v -1.462986 1.198667 -2.761936
v -0.902811 0.904501 -2.761936
v -0.960294 1.101106 -2.761936
v -1.903368 1.160669 -2.761936
v -1.704881 0.516210 -2.846575
v -1.462986 0.520349 -2.761936
v -1.256455 0.524777 -2.801526
vt 0.500000 1.000000
vt 0.893076 0.962002
vt 0.981889 0.708723
vt 0.715911 0.317543
vt 0.500000 0.321682
vt 0.268990 0.326110
vt 0.000000 0.705834
vt 0.051308 0.902439
vn -0.016400 -0.060801 0.998015
vn -0.057204 -0.079805 0.995168
vn -0.057204 -0.079805 0.995168
vn -0.057204 -0.079805 0.995168
vn -0.015301 -0.060304 0.998063
vn -0.015301 -0.060304 0.998063
vn 0.027600 -0.040300 0.998806
vn 0.027600 -0.040300 0.998806
vn 0.027600 -0.040300 0.998806
vn -0.016400 -0.060801 0.998015
s off
g trawa01:Mesh polySurface2
usemtl phong10SG
f 76/74/222 79/75/223 75/76/224 80/77/225 81/78/226
f 81/78/227 82/79/228 77/80/229 78/81/230 76/74/231
