# This file uses centimeters as units for non-parametric coordinates.

mtllib KowalskiAIzq.mtl
g default
v -0.219921 0.066482 -0.017357
v -0.766923 -0.045826 0.174181
v -0.261879 -0.013330 0.092647
v -0.783981 0.064886 -0.017315
v -0.261879 -0.013330 -0.127367
v -0.766923 -0.045826 -0.208817
v 0.015717 0.007730 -0.017357
v -1.195179 0.031634 -0.017315
v -1.451769 -0.071530 0.059287
v -1.174767 -0.073882 0.161209
v -1.500477 -0.046654 -0.017315
v -1.174767 -0.073882 -0.195929
v -1.451727 -0.071530 -0.093929
vt 0.292236 0.195801
vt 0.305664 0.187988
vt 0.300049 0.190430
vt 0.292236 0.195801
vt 0.284668 0.190430
vt 0.278809 0.187988
vt 0.292236 0.191895
vt 0.292236 0.193359
vt 0.297607 0.186035
vt 0.304688 0.186035
vt 0.292236 0.187988
vt 0.279785 0.186035
vt 0.286865 0.186035
vn 0.145199 0.989392 -0.004600
vn -0.035602 0.859358 0.510134
vn 0.090498 0.789386 0.607190
vn -0.038099 0.999270 -0.002800
vn -0.035602 0.859358 0.510134
vn 0.145199 0.989392 -0.004600
vn 0.061901 0.806116 -0.588511
vn -0.038099 0.999270 -0.002800
vn 0.145199 0.989392 -0.004600
vn -0.023701 0.863721 -0.503412
vn -0.038099 0.999270 -0.002800
vn 0.061901 0.806116 -0.588511
vn 0.145199 0.989392 -0.004600
vn 0.090498 0.789386 0.607190
vn 0.241900 0.970301 0.000000
vn -0.152906 0.988240 0.000900
vn -0.212298 0.865290 0.454095
vn -0.117303 0.850025 0.513515
vn -0.248390 0.968660 0.000000
vn -0.212298 0.865290 0.454095
vn -0.152906 0.988240 0.000900
vn -0.038099 0.999270 -0.002800
vn -0.117303 0.850025 0.513515
vn -0.035602 0.859358 0.510134
vn -0.152906 0.988240 0.000900
vn -0.117303 0.850025 0.513515
vn -0.038099 0.999270 -0.002800
vn -0.152906 0.988240 0.000900
vn -0.023701 0.863721 -0.503412
vn -0.119693 0.848750 -0.515070
vn -0.038099 0.999270 -0.002800
vn -0.023701 0.863721 -0.503412
vn -0.152906 0.988240 0.000900
vn 0.145199 0.989392 -0.004600
vn 0.241900 0.970301 0.000000
vn 0.061901 0.806116 -0.588511
vn -0.212298 0.865290 -0.454095
vn -0.152906 0.988240 0.000900
vn -0.119693 0.848750 -0.515070
vn -0.248390 0.968660 0.000000
vn -0.152906 0.988240 0.000900
vn -0.212298 0.865290 -0.454095
s off
g polySurface1 Kowalski:polySurface74
usemtl Kowalski:Material_005
f 1/1/1 2/2/2 3/3/3
f 4/4/4 2/2/5 1/1/6
f 5/5/7 4/4/8 1/1/9
f 6/6/10 4/4/11 5/5/12
f 1/1/13 3/3/14 7/7/15
f 8/8/16 9/9/17 10/10/18
f 11/11/19 9/9/20 8/8/21
f 4/4/22 10/10/23 2/2/24
f 8/8/25 10/10/26 4/4/27
f 8/8/28 6/6/29 12/12/30
f 4/4/31 6/6/32 8/8/33
f 1/1/34 7/7/35 5/5/36
f 13/13/37 8/8/38 12/12/39
f 11/11/40 8/8/41 13/13/42
