# This file uses centimeters as units for non-parametric coordinates.

mtllib basePiedra.mtl
g default
v -7.601782 0.100770 5.523018
v -5.523018 0.100770 7.601782
v -5.523018 1.103074 7.601782
v -7.601782 1.103074 5.523018
v 7.601785 0.100770 -5.523020
v 5.523020 0.100770 -7.601785
v 5.523020 1.103074 -7.601785
v 7.601785 1.103074 -5.523020
v 5.667920 1.103074 -4.117984
v 4.117984 1.103074 -5.667920
v -4.117983 1.103074 5.667917
v -4.117983 1.103074 5.667917
v -5.667917 1.103074 4.117983
v -5.667917 1.103074 4.117983
v -2.903622 0.100770 8.936430
v -2.903622 1.103074 8.936430
v 8.936434 0.100770 -2.903624
v 8.936434 1.103074 -2.903624
v 5.667920 1.103074 -4.117984
v 6.663039 1.103074 -2.164953
v 9.121829 0.100770 -1.733068
v 9.121829 1.103074 -1.733068
v -2.164952 1.103074 6.663036
v -2.164952 1.103074 6.663036
v -0.000000 1.103074 9.396318
v -0.000000 1.103074 7.005930
v -0.000000 0.100770 9.396318
v 6.663039 1.103074 -2.164953
v 6.731442 1.103074 -1.733068
v 6.747627 1.103074 1.630858
v 9.138015 1.103074 1.630858
v 9.138015 0.100770 1.630858
v 2.903622 0.100770 8.936430
v 2.903622 1.103074 8.936430
v 8.936429 1.103074 2.903622
v 8.936429 0.100770 2.903622
v 2.164951 1.103074 6.663035
v 5.523017 1.103074 7.601781
v 4.117982 1.103074 5.667916
v 7.601779 0.100770 5.523017
v 7.601779 1.103074 5.523017
v 5.523017 0.100770 7.601781
v 2.164951 1.103074 6.663035
v 6.663035 1.103074 2.164951
v 6.663035 1.103074 2.164951
v 5.667916 1.103074 4.117982
v 5.667916 1.103074 4.117983
v 4.117982 1.103074 5.667916
v 2.903623 1.103074 -8.936434
v 2.164952 1.103074 -6.663038
v 4.117984 1.103074 -5.667920
v -8.936432 0.100770 2.903622
v -8.936432 1.103074 2.903622
v 2.903623 0.100770 -8.936434
v -6.663037 1.103074 2.164952
v -6.663037 1.103074 2.164952
v -7.005931 1.103074 0.000000
v -9.396318 1.103074 0.000000
v -9.396318 0.100770 0.000000
v 0.000000 0.100770 -9.396322
v 0.000000 1.103074 -9.396322
v 0.000000 1.103074 -7.005933
v 2.164952 1.103074 -6.663038
v -6.663037 1.103074 -2.164952
v -8.936432 1.103074 -2.903622
v -2.164953 1.103074 -6.663038
v -2.903623 1.103074 -8.936433
v -5.523018 1.103074 -7.601782
v -4.117983 1.103074 -5.667918
v -8.936432 0.100770 -2.903622
v -2.903623 0.100770 -8.936433
v -7.601782 0.100770 -5.523018
v -7.601782 1.103074 -5.523018
v -5.523018 0.100770 -7.601782
v -2.164952 1.103074 -6.663038
v -6.663037 1.103074 -2.164952
v -5.667918 1.103074 -4.117983
v -5.667918 1.103074 -4.117983
v -4.117984 1.103074 -5.667918
vt 0.104157 0.151745
vt 0.103041 0.017702
vt 0.003513 0.015238
vt 0.806852 0.709053
vt 0.907592 0.782244
vt 0.799304 0.890532
vt 0.726112 0.789793
vt 0.977117 0.645793
vt 0.806852 0.709053
vt 0.858691 0.607314
vt 0.662853 0.960058
vt 0.624374 0.841631
vt 0.726112 0.789793
vt 0.986775 0.584816
vt 0.858691 0.607314
vt 0.862254 0.584816
vt 0.511596 0.984014
vt 0.511596 0.859493
vt 0.624374 0.841631
vt 0.360339 0.960058
vt 0.398818 0.841631
vt 0.398818 0.841631
vt 0.223888 0.890532
vt 0.297080 0.789792
vt 0.115600 0.782244
vt 0.216340 0.709052
vt 0.216340 0.709052
vt 0.297080 0.789792
vt 0.046075 0.645793
vt 0.164502 0.607314
vt 0.164502 0.607314
vt 0.022118 0.494537
vt 0.146640 0.494537
vt 0.046075 0.343280
vt 0.164502 0.381759
vt 0.115600 0.206829
vt 0.216340 0.280020
vt 0.164502 0.381759
vt 0.223888 0.098541
vt 0.297080 0.199281
vt 0.297080 0.199281
vt 0.216340 0.280020
vt 0.360339 0.029015
vt 0.398818 0.147442
vt 0.398818 0.147442
vt 0.511596 0.005059
vt 0.511596 0.129580
vt 0.662853 0.029015
vt 0.624374 0.147442
vt 0.624374 0.147442
vt 0.799304 0.098541
vt 0.726112 0.199281
vt 0.907592 0.206829
vt 0.806852 0.280020
vt 0.726112 0.199281
vt 0.977117 0.343280
vt 0.858690 0.381759
vt 0.806852 0.280020
vt 0.863097 0.409581
vt 0.858690 0.381759
vt 0.987618 0.409581
vt 0.311823 0.318006
vt 0.140223 0.319586
vt 0.139961 0.167746
vt 0.311562 0.166166
vt 0.004040 0.320840
vt 0.003778 0.169000
vt 0.388508 0.317300
vt 0.388247 0.165460
vt 0.004068 0.337170
vt 0.087448 0.336403
vt 0.087710 0.488243
vt 0.004329 0.489010
vt 0.259310 0.486663
vt 0.259049 0.334822
vt 0.395493 0.485409
vt 0.395232 0.333568
vt 0.312982 0.991099
vt 0.141382 0.992679
vt 0.141120 0.840839
vt 0.312721 0.839259
vt 0.005199 0.993933
vt 0.004937 0.842093
vt 0.503203 0.989347
vt 0.502941 0.837507
vt 0.693423 0.987596
vt 0.693162 0.835756
vt 0.865024 0.986016
vt 0.864762 0.834176
vt 1.001207 0.984762
vt 1.000945 0.832922
vt 0.728551 0.818689
vt 0.556950 0.820269
vt 0.556689 0.668429
vt 0.728289 0.666848
vt 0.366729 0.822020
vt 0.366468 0.670180
vt 0.176509 0.823772
vt 0.176247 0.671932
vt 0.004908 0.825352
vt 0.004647 0.673512
vt 0.004357 0.505341
vt 0.175958 0.503761
vt 0.176219 0.655601
vt 0.004619 0.657181
vt 0.366179 0.502010
vt 0.366440 0.653850
vt 0.556400 0.500258
vt 0.556661 0.652098
vt 0.728000 0.498678
vt 0.728261 0.650518
vn -0.809017 0.000000 0.587785
vn -0.587785 0.000000 0.809017
vn -0.587785 0.000000 0.809017
vn -0.809017 0.000000 0.587785
vn 0.809017 0.000000 -0.587785
vn 0.587785 0.000000 -0.809017
vn 0.587785 0.000000 -0.809017
vn 0.809017 0.000000 -0.587785
vn 0.000000 1.000000 -0.000000
vn 0.000000 1.000000 -0.000000
vn 0.000000 1.000000 -0.000000
vn 0.000000 1.000000 -0.000000
vn 0.000000 1.000000 0.000000
vn 0.000000 1.000000 -0.000000
vn 0.000000 1.000000 -0.000000
vn 0.000000 0.000000 0.000000
vn 0.000000 0.000000 0.000000
vn 0.000000 1.000000 0.000000
vn -0.309017 0.000000 0.951057
vn -0.309017 0.000000 0.951057
vn 0.928133 0.000000 -0.372248
vn 0.928133 0.000000 -0.372248
vn 0.000000 1.000000 0.000000
vn 0.000000 0.000000 0.000000
vn 0.000000 1.000000 0.000000
vn 0.987689 0.000000 -0.156432
vn 0.987689 0.000000 -0.156432
vn 0.000000 1.000000 -0.000000
vn 0.000000 1.000000 -0.000000
vn 0.000000 1.000000 -0.000000
vn 0.000000 1.000000 0.000000
vn 0.000000 1.000000 0.000000
vn 0.000000 0.000000 1.000000
vn 0.000000 0.000000 1.000000
vn 0.000000 1.000000 0.000000
vn 0.000000 1.000000 0.000000
vn 0.000000 1.000000 0.000000
vn 0.000000 0.000000 0.000000
vn 0.000000 0.000000 0.000000
vn 0.000000 0.000000 0.000000
vn 0.000000 0.000000 0.000000
vn 0.309017 0.000000 0.951057
vn 0.309017 0.000000 0.951057
vn 0.987688 0.000000 0.156434
vn 0.930167 0.000000 0.367137
vn 0.930167 0.000000 0.367137
vn 0.987688 0.000000 0.156434
vn 0.000000 1.000000 0.000000
vn 0.000000 1.000000 0.000000
vn 0.000000 1.000000 0.000000
vn 0.000000 1.000000 0.000000
vn 0.809017 0.000000 0.587785
vn 0.809017 0.000000 0.587785
vn 0.587785 0.000000 0.809017
vn 0.587785 0.000000 0.809017
vn 0.000000 0.000000 0.000000
vn 0.000000 1.000000 0.000000
vn 0.000000 0.000000 0.000000
vn 0.000000 1.000000 -0.000000
vn 0.000000 1.000000 -0.000000
vn 0.000000 1.000000 0.000000
vn 0.000000 1.000000 -0.000000
vn 0.000000 1.000000 -0.000000
vn 0.000000 1.000000 -0.000000
vn 0.000000 0.000000 0.000000
vn 0.000000 1.000000 0.000000
vn 0.000000 1.000000 0.000000
vn 0.000000 0.000000 0.000000
vn -0.951057 0.000000 0.309017
vn -0.951057 0.000000 0.309017
vn 0.309017 0.000000 -0.951057
vn 0.309017 0.000000 -0.951057
vn 0.000000 1.000000 -0.000000
vn 0.000000 1.000000 0.000000
vn 0.000000 1.000000 -0.000000
vn 0.000000 1.000000 0.000000
vn 0.000000 1.000000 0.000000
vn -1.000000 0.000000 0.000000
vn -1.000000 0.000000 0.000000
vn -0.000000 0.000000 -1.000000
vn -0.000000 0.000000 -1.000000
vn 0.000000 1.000000 0.000000
vn 0.000000 1.000000 0.000000
vn 0.000000 0.000000 0.000000
vn 0.000000 1.000000 0.000000
vn 0.000000 1.000000 0.000000
vn 0.000000 1.000000 0.000000
vn 0.000000 1.000000 0.000000
vn 0.000000 1.000000 0.000000
vn 0.000000 1.000000 0.000000
vn -0.951057 0.000000 -0.309017
vn -0.951057 0.000000 -0.309017
vn -0.309017 0.000000 -0.951056
vn -0.309017 0.000000 -0.951056
vn -0.809017 0.000000 -0.587785
vn -0.809017 0.000000 -0.587785
vn -0.587786 0.000000 -0.809017
vn -0.587786 0.000000 -0.809017
vn 0.000000 1.000000 0.000000
vn 0.000000 1.000000 0.000000
vn 0.000000 1.000000 0.000000
vn 0.000000 1.000000 0.000000
vn 0.000000 0.000000 0.000000
vn 0.000000 1.000000 0.000000
s 1
g pCylinder11
usemtl phong10SG
f 1/79/1 2/82/2 3/83/3 4/80/4
f 5/63/5 6/66/6 7/67/7 8/64/8
s 3
f 9/4/9 8/5/10 7/6/11 10/7/12
f 4/36/13 3/39/14 11/40/15 12/41/16 13/42/17 14/37/18
s 1
f 2/92/2 15/93/19 16/94/20 3/95/3
f 17/62/21 5/63/5 8/64/8 18/65/22
s 3
f 18/8/23 8/5/10 9/4/9 19/9/24 20/10/25
s 1
f 21/68/26 17/62/21 18/65/22 22/69/27
s 3
f 3/39/14 16/43/28 23/44/29 24/45/30 11/40/15
f 23/44/29 16/43/28 25/46/31 26/47/32
s 1
f 15/93/19 27/96/33 25/97/34 16/94/20
s 3
f 22/14/35 18/8/23 20/10/25 28/15/36 29/16/37
s off
f 31/2/38 32/3/39 31/2/40 30/1/41
s 1
f 27/96/33 33/98/42 34/99/43 25/97/34
f 31/70/44 35/71/45 36/72/46 32/73/47
s 3
f 37/49/48 34/48/49 38/51/50 39/52/51
s 1
f 40/74/52 36/72/46 35/71/45 41/75/53
f 33/98/42 42/100/54 38/101/55 34/99/43
f 42/76/54 40/74/52 41/75/53 38/77/55
s 3
f 25/46/31 34/48/49 37/49/48 43/50/56 26/47/32
f 30/59/57 44/60/58 45/57/59 35/56/60 31/61/61
f 41/53/62 35/56/60 45/57/59 46/58/63 47/54/64
f 38/51/50 41/53/62 47/54/64 48/55/65 39/52/51
f 7/6/11 49/11/66 50/12/67 51/13/68 10/7/12
s 1
f 52/78/69 1/79/1 4/80/4 53/81/70
f 6/102/6 54/103/71 49/104/72 7/105/7
s 3
f 53/34/73 4/36/13 14/37/18 55/38/74 56/35/75
f 57/33/76 58/32/77 53/34/73 56/35/75
s 1
f 59/84/78 52/78/69 53/81/70 58/85/79
f 54/103/71 60/106/80 61/107/81 49/104/72
s 3
f 49/11/66 61/17/82 62/18/83 63/19/84 50/12/67
f 64/30/85 65/29/86 58/32/77 57/33/76
f 66/21/87 67/20/88 68/23/89 69/24/90
s 1
f 70/86/91 59/84/78 58/85/79 65/87/92
f 60/106/80 71/108/93 67/109/94 61/107/81
f 72/88/95 70/86/91 65/87/92 73/89/96
f 71/108/93 74/110/97 68/111/98 67/109/94
f 74/90/97 72/88/95 73/89/96 68/91/98
s 3
f 61/17/82 67/20/88 66/21/87 75/22/99 62/18/83
f 73/25/100 65/29/86 64/30/85 76/31/101 77/26/102
f 68/23/89 73/25/100 77/26/102 78/27/103 79/28/104 69/24/90
