# This file uses centimeters as units for non-parametric coordinates.

mtllib tierra.mtl
g default
v 6.542069 1.075015 -2.044788
v 5.568174 1.075015 -3.956165
v 4.051296 1.075015 -5.473043
v 2.139918 1.075015 -6.446938
v 0.021140 1.075015 -6.782519
v -2.097638 1.075015 -6.446938
v -4.009016 1.075015 -5.473042
v -5.525893 1.075015 -3.956164
v -6.499788 1.075015 -2.044787
v -6.835369 1.075015 0.073991
v -6.499788 1.075015 2.192768
v -5.525892 1.075015 4.104145
v -4.009015 1.075015 5.621022
v -2.097638 1.075015 6.594917
v 0.021140 1.075015 6.930499
v 2.139917 1.075015 6.594917
v 4.051293 1.075015 5.621022
v 5.568170 1.075015 4.104145
v 6.542065 1.075015 2.192768
v 6.877646 1.075015 0.073991
v 6.542069 1.239954 -2.044788
v 5.568174 1.239954 -3.956165
v 4.051296 1.239954 -5.473043
v 2.139918 1.239954 -6.446938
v 0.021140 1.239954 -6.782519
v -2.097638 1.239954 -6.446938
v -4.009016 1.239954 -5.473042
v -5.525893 1.239954 -3.956164
v -6.499788 1.239954 -2.044787
v -6.835369 1.239954 0.073991
v -6.499788 1.239954 2.192768
v -5.525892 1.239954 4.104145
v -4.009015 1.239954 5.621022
v -2.097638 1.239954 6.594917
v 0.021140 1.239954 6.930499
v 2.139917 1.239954 6.594917
v 4.051293 1.239954 5.621022
v 5.568170 1.239954 4.104145
v 6.542065 1.239954 2.192768
v 6.877646 1.239954 0.073991
v 0.021140 1.075015 0.073991
v 0.021140 1.239954 0.073991
vt 0.408628 -0.314808
vt 0.408628 -0.383967
vt 0.414596 -0.383967
vt 0.414596 -0.314808
vt 0.408628 -0.438851
vt 0.414596 -0.438851
vt 0.408628 -0.238144
vt 0.414596 -0.238144
vt 0.408628 -0.161481
vt 0.414596 -0.161481
vt 0.408628 -0.092322
vt 0.414596 -0.092322
vt 0.408628 -0.037437
vt 0.414596 -0.037437
vt 0.397026 -0.092322
vt 0.397026 -0.161481
vt 0.402994 -0.161481
vt 0.402994 -0.092322
vt 0.397026 -0.238144
vt 0.402994 -0.238144
vt 0.397026 -0.037437
vt 0.402994 -0.037437
vt 0.397026 -0.314808
vt 0.402994 -0.314808
vt 0.397026 -0.383967
vt 0.402994 -0.383967
vt 0.397026 -0.438851
vt 0.402994 -0.438851
vt 0.898739 0.205187
vt 0.968680 0.342455
vt 0.500371 0.494618
vt 0.992780 0.494618
vt 0.789802 0.096251
vt 0.968680 0.646781
vt 0.652534 0.026309
vt 0.898738 0.784049
vt 0.500371 0.002209
vt 0.789802 0.892985
vt 0.348209 0.026309
vt 0.652534 0.962927
vt 0.210941 0.096251
vt 0.500371 0.987027
vt 0.102004 0.205188
vt 0.348209 0.962927
vt 0.032063 0.342456
vt 0.210941 0.892985
vt 0.007963 0.494618
vt 0.102004 0.784049
vt 0.032063 0.646781
vt 0.971348 0.653723
vt 0.901351 0.791101
vt 0.502663 0.501438
vt 0.792326 0.900126
vt 0.995468 0.501438
vt 0.654948 0.970123
vt 0.971348 0.349152
vt 0.502663 0.994243
vt 0.901350 0.211774
vt 0.350377 0.970123
vt 0.792326 0.102750
vt 0.212999 0.900126
vt 0.654948 0.032752
vt 0.103974 0.791101
vt 0.502663 0.008632
vt 0.033977 0.653723
vt 0.350377 0.032752
vt 0.009857 0.501438
vt 0.212999 0.102750
vt 0.033977 0.349152
vt 0.103974 0.211774
vt 0.391393 -0.438851
vt 0.391393 -0.369693
vt 0.385425 -0.369693
vt 0.385425 -0.438851
vt 0.391393 -0.293029
vt 0.385425 -0.293029
vt 0.391393 -0.216366
vt 0.385425 -0.216366
vt 0.391393 -0.147207
vt 0.385425 -0.147207
vt 0.373823 -0.147207
vt 0.373823 -0.216366
vt 0.379791 -0.216366
vt 0.379791 -0.147207
vt 0.373823 -0.293029
vt 0.379791 -0.293029
vt 0.373823 -0.369693
vt 0.379791 -0.369693
vt 0.373823 -0.438851
vt 0.379791 -0.438851
vn 0.951057 0.000000 -0.309016
vn 0.809017 0.000000 -0.587785
vn 0.809017 0.000000 -0.587785
vn 0.951057 0.000000 -0.309016
vn 0.587785 0.000000 -0.809017
vn 0.587785 0.000000 -0.809017
vn 0.309017 0.000000 -0.951057
vn 0.309017 0.000000 -0.951057
vn -0.000000 0.000000 -1.000000
vn -0.000000 0.000000 -1.000000
vn -0.309017 0.000000 -0.951057
vn -0.309017 0.000000 -0.951057
vn -0.587785 0.000000 -0.809017
vn -0.587785 0.000000 -0.809017
vn -0.809017 0.000000 -0.587785
vn -0.809017 0.000000 -0.587785
vn -0.951057 0.000000 -0.309017
vn -0.951057 0.000000 -0.309017
vn -1.000000 0.000000 0.000000
vn -1.000000 0.000000 0.000000
vn -0.951057 0.000000 0.309017
vn -0.951057 0.000000 0.309017
vn -0.809017 0.000000 0.587786
vn -0.809017 0.000000 0.587786
vn -0.587785 0.000000 0.809017
vn -0.587785 0.000000 0.809017
vn -0.309017 0.000000 0.951057
vn -0.309017 0.000000 0.951057
vn 0.000000 0.000000 1.000000
vn 0.000000 0.000000 1.000000
vn 0.309017 0.000000 0.951056
vn 0.309017 0.000000 0.951056
vn 0.587786 0.000000 0.809017
vn 0.587786 0.000000 0.809017
vn 0.809017 0.000000 0.587785
vn 0.809017 0.000000 0.587785
vn 0.951057 0.000000 0.309017
vn 0.951057 0.000000 0.309017
vn 1.000000 0.000000 0.000001
vn 1.000000 0.000000 0.000001
vn 0.000000 -1.000000 0.000000
vn 0.000000 -1.000000 0.000000
vn 0.000000 -1.000000 -0.000000
vn 0.000000 -1.000000 0.000000
vn 0.000000 -1.000000 0.000000
vn 0.000000 -1.000000 0.000000
vn 0.000000 -1.000000 -0.000000
vn 0.000000 -1.000000 -0.000000
vn 0.000000 -1.000000 0.000000
vn 0.000000 -1.000000 0.000000
vn 0.000000 -1.000000 0.000000
vn 0.000000 -1.000000 0.000000
vn 0.000000 -1.000000 0.000000
vn 0.000000 -1.000000 0.000000
vn 0.000000 -1.000000 0.000000
vn 0.000000 -1.000000 -0.000000
vn 0.000000 -1.000000 -0.000000
vn 0.000000 -1.000000 -0.000000
vn 0.000000 -1.000000 0.000000
vn 0.000000 -1.000000 0.000000
vn 0.000000 -1.000000 0.000000
vn 0.000000 1.000000 0.000000
vn 0.000000 1.000000 0.000000
vn 0.000000 1.000000 0.000000
vn 0.000000 1.000000 0.000000
vn 0.000000 1.000000 0.000000
vn 0.000000 1.000000 0.000000
vn 0.000000 1.000000 0.000000
vn 0.000000 1.000000 0.000000
vn 0.000000 1.000000 0.000000
vn 0.000000 1.000000 0.000000
vn 0.000000 1.000000 0.000000
vn 0.000000 1.000000 -0.000000
vn 0.000000 1.000000 -0.000000
vn 0.000000 1.000000 0.000000
vn 0.000000 1.000000 0.000000
vn 0.000000 1.000000 -0.000000
vn 0.000000 1.000000 0.000000
vn 0.000000 1.000000 0.000000
vn 0.000000 1.000000 -0.000000
vn 0.000000 1.000000 -0.000000
vn 0.000000 1.000000 0.000000
s 1
g polySurface84 pCylinder12
usemtl phong11SG
f 1/1/1 2/2/2 22/3/3 21/4/4
f 2/2/2 3/5/5 23/6/6 22/3/3
f 3/71/5 4/72/7 24/73/8 23/74/6
f 4/72/7 5/75/9 25/76/10 24/73/8
f 5/75/9 6/77/11 26/78/12 25/76/10
f 6/77/11 7/79/13 27/80/14 26/78/12
f 7/21/13 8/15/15 28/18/16 27/22/14
f 8/15/15 9/16/17 29/17/18 28/18/16
f 9/16/17 10/19/19 30/20/20 29/17/18
f 10/19/19 11/23/21 31/24/22 30/20/20
f 11/23/21 12/25/23 32/26/24 31/24/22
f 12/25/23 13/27/25 33/28/26 32/26/24
f 13/81/25 14/82/27 34/83/28 33/84/26
f 14/82/27 15/85/29 35/86/30 34/83/28
f 15/85/29 16/87/31 36/88/32 35/86/30
f 16/87/31 17/89/33 37/90/34 36/88/32
f 17/13/33 18/11/35 38/12/36 37/14/34
f 18/11/35 19/9/37 39/10/38 38/12/36
f 19/9/37 20/7/39 40/8/40 39/10/38
f 20/7/39 1/1/1 21/4/4 40/8/40
s 2
f 2/29/41 1/30/42 41/31/43
f 3/33/44 2/29/41 41/31/43
f 4/35/45 3/33/44 41/31/43
f 5/37/46 4/35/45 41/31/43
f 6/39/47 5/37/46 41/31/43
f 7/41/48 6/39/47 41/31/43
f 8/43/49 7/41/48 41/31/43
f 9/45/50 8/43/49 41/31/43
f 10/47/51 9/45/50 41/31/43
f 11/49/52 10/47/51 41/31/43
f 12/48/53 11/49/52 41/31/43
f 13/46/54 12/48/53 41/31/43
f 14/44/55 13/46/54 41/31/43
f 15/42/56 14/44/55 41/31/43
f 16/40/57 15/42/56 41/31/43
f 17/38/58 16/40/57 41/31/43
f 18/36/59 17/38/58 41/31/43
f 19/34/60 18/36/59 41/31/43
f 20/32/61 19/34/60 41/31/43
f 1/30/42 20/32/61 41/31/43
s 3
f 21/50/62 22/51/63 42/52/64
f 22/51/63 23/53/65 42/52/64
f 23/53/65 24/55/66 42/52/64
f 24/55/66 25/57/67 42/52/64
f 25/57/67 26/59/68 42/52/64
f 26/59/68 27/61/69 42/52/64
f 27/61/69 28/63/70 42/52/64
f 28/63/70 29/65/71 42/52/64
f 29/65/71 30/67/72 42/52/64
f 30/67/72 31/69/73 42/52/64
f 31/69/73 32/70/74 42/52/64
f 32/70/74 33/68/75 42/52/64
f 33/68/75 34/66/76 42/52/64
f 34/66/76 35/64/77 42/52/64
f 35/64/77 36/62/78 42/52/64
f 36/62/78 37/60/79 42/52/64
f 37/60/79 38/58/80 42/52/64
f 38/58/80 39/56/81 42/52/64
f 39/56/81 40/54/82 42/52/64
f 40/54/82 21/50/62 42/52/64
g default
v 5.432331 1.039914 1.602924
v 12.460306 1.039914 1.600924
v 5.432331 1.239243 1.602924
v 12.460306 1.239243 1.600924
v 5.433247 1.239243 -1.762654
v 12.461223 1.239243 -1.764653
v 5.433247 1.039914 -1.762654
v 12.461223 1.039914 -1.764653
vt 0.949378 0.433615
vt 0.949378 0.001736
vt 0.978115 0.001736
vt 0.978115 0.433615
vt 0.969271 0.869486
vt 0.969271 0.437606
vt 0.998008 0.437606
vt 0.998008 0.869486
vt 0.037268 0.552248
vt 0.037268 0.001736
vt 0.469148 0.001736
vt 0.469148 0.552248
vt 0.510863 0.552248
vt 0.510863 0.001736
vt 0.942743 0.001736
vt 0.942743 0.552248
vt 0.001992 0.552248
vt 0.001992 0.001736
vt 0.030729 0.001736
vt 0.030729 0.552248
vt 0.475782 0.552247
vt 0.475782 0.001736
vt 0.504519 0.001736
vt 0.504519 0.552247
vn 0.000284 0.000000 1.000000
vn 0.000284 0.000000 1.000000
vn 0.000284 0.000000 1.000000
vn 0.000284 0.000000 1.000000
vn 0.000000 1.000000 0.000000
vn 0.000000 1.000000 0.000000
vn 0.000000 1.000000 0.000000
vn 0.000000 1.000000 0.000000
vn -0.000284 0.000000 -1.000000
vn -0.000284 0.000000 -1.000000
vn -0.000284 0.000000 -1.000000
vn -0.000284 0.000000 -1.000000
vn 0.000000 -1.000000 0.000000
vn 0.000000 -1.000000 0.000000
vn 0.000000 -1.000000 0.000000
vn 0.000000 -1.000000 0.000000
vn 1.000000 0.000000 0.000272
vn 1.000000 0.000000 0.000272
vn 1.000000 0.000000 0.000272
vn 1.000000 0.000000 0.000272
vn -1.000000 0.000000 -0.000272
vn -1.000000 0.000000 -0.000272
vn -1.000000 0.000000 -0.000272
vn -1.000000 0.000000 -0.000272
s off
g pCylinder12 polySurface85
usemtl phong11SG
f 43/107/83 44/108/84 46/109/85 45/110/86
f 45/99/87 46/100/88 48/101/89 47/102/90
f 47/111/91 48/112/92 50/113/93 49/114/94
f 49/103/95 50/104/96 44/105/97 43/106/98
f 44/91/99 50/92/100 48/93/101 46/94/102
f 49/95/103 43/96/104 45/97/105 47/98/106
