# This file uses centimeters as units for non-parametric coordinates.

mtllib RicoADer.mtl
g default
v 0.325970 -0.014810 0.105097
v 0.831056 -0.047372 -0.196409
v 0.831056 -0.047372 0.186589
v 0.325927 -0.014810 -0.114845
v 0.006794 0.006250 -0.004907
v 1.238858 -0.075361 -0.183479
v 1.238858 -0.075361 0.173659
v 1.515859 -0.073076 -0.081521
v 1.515817 -0.073076 0.071695
v 1.564525 -0.048206 -0.004907
vt 1.140625 0.147949
vt 1.121094 0.145996
vt 1.145508 0.145996
vt 1.126953 0.147949
vt 1.133789 0.149414
vt 1.122070 0.144043
vt 1.144531 0.144043
vt 1.128906 0.144531
vt 1.137695 0.144531
vt 1.133789 0.145996
vn -0.064302 -0.997931 0.000000
vn -0.064302 -0.997931 0.000000
vn -0.064302 -0.997931 0.000000
vn -0.064302 -0.997931 0.000000
vn -0.064302 -0.997931 0.000000
vn -0.064302 -0.997931 0.000000
vn -0.065802 -0.997833 0.000000
vn -0.065802 -0.997833 0.000000
vn -0.065802 -0.997833 0.000000
vn -0.035299 -0.999377 0.000000
vn -0.066499 -0.997787 0.000000
vn -0.066499 -0.997787 0.000000
vn -0.035299 -0.999377 0.000000
vn -0.066499 -0.997787 0.000000
vn -0.035299 -0.999377 0.000000
vn 0.119406 -0.992846 0.000000
vn -0.035299 -0.999377 0.000000
vn -0.035299 -0.999377 0.000000
vn 0.119406 -0.992846 0.000000
vn -0.035299 -0.999377 0.000000
vn 0.119406 -0.992846 0.000000
vn 0.454917 -0.890534 0.000100
vn 0.119406 -0.992846 0.000000
vn 0.119406 -0.992846 0.000000
s off
g polySurface3 polySurface2 Rico:polySurface63
usemtl Rico:Material_005
f 1/1/1 2/2/2 3/3/3
f 4/4/4 2/2/5 1/1/6
f 1/1/7 5/5/8 4/4/9
f 6/6/10 3/3/11 2/2/12
f 7/7/13 3/3/14 6/6/15
f 8/8/16 7/7/17 6/6/18
f 9/9/19 7/7/20 8/8/21
f 10/10/22 9/9/23 8/8/24
