# This file uses centimeters as units for non-parametric coordinates.

mtllib RicoAIzq.mtl
g default
v -0.274812 0.064327 0.008590
v -0.821772 -0.047975 0.200056
v -0.316686 -0.015413 0.118564
v -0.838830 0.062803 0.008590
v -0.316644 -0.015413 -0.101378
v -0.821772 -0.047975 -0.182942
v 0.002490 0.005647 0.008560
v -1.250022 0.029479 0.008560
v -1.506618 -0.073679 0.085162
v -1.229574 -0.075965 0.187126
v -1.555242 -0.048809 0.008560
v -1.229574 -0.075965 -0.170012
v -1.506576 -0.073679 -0.068054
vt 1.133789 0.152832
vt 1.145508 0.145996
vt 1.140625 0.147949
vt 1.133789 0.152832
vt 1.126953 0.147949
vt 1.121094 0.145996
vt 1.133789 0.149414
vt 1.133789 0.150879
vt 1.137695 0.144531
vt 1.144531 0.144043
vt 1.133789 0.145996
vt 1.122070 0.144043
vt 1.128906 0.144531
vn 0.125904 0.992032 -0.004500
vn -0.035600 0.859200 0.510400
vn 0.083000 0.791503 0.605503
vn -0.037999 0.999274 -0.002800
vn -0.035600 0.859200 0.510400
vn 0.125904 0.992032 -0.004500
vn 0.054901 0.807715 -0.587011
vn -0.037999 0.999274 -0.002800
vn 0.125904 0.992032 -0.004500
vn -0.023701 0.863652 -0.503531
vn -0.037999 0.999274 -0.002800
vn 0.054901 0.807715 -0.587011
vn 0.125904 0.992032 -0.004500
vn 0.083000 0.791503 0.605503
vn 0.207008 0.978339 0.000000
vn -0.153004 0.988225 0.000800
vn -0.212404 0.865415 0.453808
vn -0.117394 0.850158 0.513274
vn -0.248508 0.968630 0.000000
vn -0.212404 0.865415 0.453808
vn -0.153004 0.988225 0.000800
vn -0.037999 0.999274 -0.002800
vn -0.117394 0.850158 0.513274
vn -0.035600 0.859200 0.510400
vn -0.153004 0.988225 0.000800
vn -0.117394 0.850158 0.513274
vn -0.037999 0.999274 -0.002800
vn -0.153004 0.988225 0.000800
vn -0.023701 0.863652 -0.503531
vn -0.119607 0.848848 -0.514929
vn -0.037999 0.999274 -0.002800
vn -0.023701 0.863652 -0.503531
vn -0.153004 0.988225 0.000800
vn 0.125904 0.992032 -0.004500
vn 0.207008 0.978339 0.000000
vn 0.054901 0.807715 -0.587011
vn -0.212394 0.865376 -0.453887
vn -0.153004 0.988225 0.000800
vn -0.119607 0.848848 -0.514929
vn -0.248508 0.968630 0.000000
vn -0.153004 0.988225 0.000800
vn -0.212394 0.865376 -0.453887
s off
g polySurface1 Rico:polySurface63
usemtl Rico:Material_005
f 1/1/1 2/2/2 3/3/3
f 4/4/4 2/2/5 1/1/6
f 5/5/7 4/4/8 1/1/9
f 6/6/10 4/4/11 5/5/12
f 1/1/13 3/3/14 7/7/15
f 8/8/16 9/9/17 10/10/18
f 11/11/19 9/9/20 8/8/21
f 4/4/22 10/10/23 2/2/24
f 8/8/25 10/10/26 4/4/27
f 8/8/28 6/6/29 12/12/30
f 4/4/31 6/6/32 8/8/33
f 1/1/34 7/7/35 5/5/36
f 13/13/37 8/8/38 12/12/39
f 11/11/40 8/8/41 13/13/42
