# This file uses centimeters as units for non-parametric coordinates.

mtllib Water.mtl
g default
v -9.592815 4.348668 -5.867107
v -8.800661 4.348668 -5.867107
v -8.800661 4.348668 -8.800661
v -9.559972 4.348668 -8.800661
v -9.592815 4.348668 -8.763747
v -5.867107 4.348668 -9.012094
v -5.867107 4.348668 -11.007652
v -7.596315 4.348668 -11.007652
v -8.800661 4.348668 -9.654065
v -6.078539 4.348668 -8.800661
v -5.788808 4.348668 -9.090392
v -7.292834 4.348668 -7.586367
v -7.292834 4.348668 -5.867107
v -9.592815 4.348668 -2.933554
v -8.800661 4.348668 -2.933554
v -2.933553 4.348668 -9.090392
v -2.933553 4.348668 -11.007652
v -7.292834 4.348668 -3.073688
v -1.795229 4.348668 -9.090392
v -9.592815 4.348668 0.000000
v -8.800661 4.348668 0.000000
v -1.276129 4.348668 -7.013781
v -1.276129 4.348668 -8.571292
v -5.092582 4.348668 -3.073688
v 8.800661 4.348668 -11.705800
v 8.800661 4.348668 -11.734216
v 8.775378 4.348668 -11.734216
v -5.867107 4.348668 0.000000
v -5.867107 4.348668 -2.933554
v -1.505498 4.348668 -8.800661
v 1.200643 4.348668 -8.571292
v 1.200643 4.348668 -7.013781
v -9.592815 4.348668 2.933553
v -8.800661 4.348668 2.933553
v 8.800661 4.348668 -8.800661
v 9.559972 4.348668 -8.800661
v 8.800661 4.348668 -9.654065
v -8.800661 4.348668 9.654065
v -8.800661 4.348668 8.800661
v -9.559972 4.348668 8.800661
v -5.867107 4.348668 -3.073688
v -5.867107 4.348668 2.933553
v -8.800661 4.348668 11.734215
v -8.775379 4.348668 11.734215
v -8.800661 4.348668 11.705800
v -9.592815 4.348668 5.867107
v -8.800661 4.348668 5.867107
v 1.719744 4.348668 -9.090392
v 1.430013 4.348668 -8.800661
v 0.000000 4.348668 -8.800661
v 0.000000 4.348668 -11.007652
v -5.092582 4.348668 3.299356
v 5.843083 4.348668 -9.090392
v 2.933554 4.348668 -9.090392
v 5.076186 4.348668 -3.073688
v 2.933554 4.348668 -11.007652
v 5.867107 4.348668 -9.066369
v 5.867107 4.348668 -11.007652
v 9.559972 4.348668 8.800661
v 8.800661 4.348668 8.800661
v 8.800661 4.348668 9.654065
v 5.867107 4.348668 0.000000
v 5.867107 4.348668 -2.933554
v -5.867107 4.348668 3.299356
v -7.292834 4.348668 3.299356
v 8.775379 4.348668 11.734215
v 8.800661 4.348668 11.734215
v 8.800661 4.348668 11.705800
v 8.800661 4.348668 -2.933554
v 9.592815 4.348668 -2.933554
v 9.592815 4.348668 -5.867107
v 8.800661 4.348668 -5.867107
v -1.276129 4.348668 8.752802
v -1.276129 4.348668 7.062796
v -7.292834 4.348668 5.867107
v -7.292834 4.348668 7.952837
v -5.867107 4.348668 9.316062
v -5.867107 4.348668 11.007652
v -2.933553 4.348668 11.007652
v -2.933553 4.348668 9.316062
v 8.800661 4.348668 0.000000
v 5.867107 4.348668 2.933553
v -9.592815 4.348668 8.763747
v 1.191692 4.348668 7.062796
v 1.191692 4.348668 8.734997
v 9.592815 4.348668 0.000000
v 8.800661 4.348668 2.933553
v -6.445010 4.348668 8.800661
v 7.217348 4.348668 -5.867107
v 6.132814 4.348668 -8.800661
v 7.217348 4.348668 -7.716128
v 7.596315 4.348668 -11.007652
v 7.217348 4.348668 -3.073688
v 9.592815 4.348668 2.933553
v -5.929609 4.348668 9.316062
v 9.592815 4.348668 -8.763747
v 5.867107 4.348668 -3.073688
v 8.800661 4.348668 5.867107
v 9.592815 4.348668 5.867107
v -1.839388 4.348668 9.316062
v -1.323988 4.348668 8.800661
v -7.596315 4.348668 11.007652
v 7.208396 4.348668 3.275618
v 5.867107 4.348668 3.275618
v 1.257357 4.348668 8.800661
v 1.749018 4.348668 9.292322
v 7.208396 4.348668 7.927615
v 7.208396 4.348668 5.867107
v 2.933554 4.348668 9.292322
v 5.843688 4.348668 9.292322
v 5.867107 4.348668 11.007652
v 5.867107 4.348668 9.268904
v 2.933554 4.348668 11.007652
v 6.335350 4.348668 8.800661
v 9.592815 4.348668 8.763747
v 0.000000 4.348668 11.007652
v 0.000000 4.348668 8.800661
v 7.596315 4.348668 11.007652
v -8.775378 4.348668 -11.734216
v -8.800661 4.348668 -11.734216
v -8.800661 4.348668 -11.705800
v 0.000000 4.348668 -7.013780
v -5.092581 4.348668 -2.933554
v -5.092581 4.348668 0.000000
v -5.092581 4.348668 2.933553
v 0.000000 4.348668 7.062794
v 5.137084 4.348668 3.275618
v 5.133804 4.348668 2.933553
v 5.105668 4.348668 0.000000
v 5.077529 4.348668 -2.933554
vt 0.172997 0.700000
vt 0.200000 0.700000
vt 0.200000 0.800000
vt 0.174116 0.800000
vt 0.172997 0.798742
vt 0.300000 0.807207
vt 0.300000 0.875233
vt 0.241054 0.875233
vt 0.200000 0.829091
vt 0.292793 0.800000
vt 0.251399 0.700000
vt 0.251399 0.758607
vt 0.172997 0.600000
vt 0.200000 0.600000
vt 0.302669 0.809876
vt 0.400000 0.809876
vt 0.400000 0.875233
vt 0.172997 0.500000
vt 0.200000 0.500000
vt 0.800000 0.899031
vt 0.800000 0.900000
vt 0.799138 0.900000
vt 0.300000 0.500000
vt 0.300000 0.600000
vt 0.172997 0.400000
vt 0.200000 0.400000
vt 0.800000 0.800000
vt 0.825884 0.800000
vt 0.800000 0.829091
vt 0.200000 0.170909
vt 0.200000 0.200000
vt 0.174116 0.200000
vt 0.300000 0.400000
vt 0.200000 0.100000
vt 0.200862 0.100000
vt 0.200000 0.100969
vt 0.172997 0.300000
vt 0.200000 0.300000
vt 0.300000 0.604777
vt 0.251399 0.604777
vt 0.438804 0.809877
vt 0.448680 0.800000
vt 0.500000 0.800000
vt 0.500000 0.875233
vt 0.600000 0.875233
vt 0.600000 0.809876
vt 0.699181 0.809877
vt 0.700000 0.809058
vt 0.700000 0.875233
vt 0.825884 0.200000
vt 0.800000 0.200000
vt 0.800000 0.170909
vt 0.700000 0.500000
vt 0.700000 0.600000
vt 0.548747 0.800000
vt 0.558623 0.809877
vt 0.799138 0.100000
vt 0.800000 0.100000
vt 0.800000 0.100969
vt 0.800000 0.600000
vt 0.827003 0.600000
vt 0.827003 0.700000
vt 0.800000 0.700000
vt 0.300000 0.182431
vt 0.300000 0.124767
vt 0.400000 0.124767
vt 0.400000 0.182431
vt 0.800000 0.500000
vt 0.700000 0.400000
vt 0.172997 0.201258
vt 0.827003 0.500000
vt 0.456499 0.792181
vt 0.456499 0.739088
vt 0.800000 0.400000
vt 0.326402 0.604777
vt 0.280300 0.200000
vt 0.251399 0.228901
vt 0.251399 0.300000
vt 0.746027 0.700000
vt 0.709058 0.800000
vt 0.746027 0.763030
vt 0.827003 0.400000
vt 0.827003 0.798742
vt 0.800000 0.300000
vt 0.827003 0.300000
vt 0.251399 0.387530
vt 0.300000 0.387530
vt 0.758946 0.875233
vt 0.540928 0.739088
vt 0.540928 0.792181
vt 0.746027 0.604777
vt 0.700000 0.604777
vt 0.700000 0.124767
vt 0.700000 0.184038
vt 0.699202 0.183240
vt 0.600000 0.183240
vt 0.600000 0.124767
vt 0.715962 0.200000
vt 0.745722 0.300000
vt 0.745722 0.229761
vt 0.326402 0.387530
vt 0.827003 0.201258
vt 0.673039 0.604777
vt 0.500000 0.124767
vt 0.500000 0.200000
vt 0.454867 0.200000
vt 0.437298 0.182431
vt 0.297869 0.182431
vt 0.241054 0.124767
vt 0.559621 0.183240
vt 0.542861 0.200000
vt 0.700000 0.388340
vt 0.745722 0.388340
vt 0.456499 0.259241
vt 0.456499 0.201631
vt 0.758946 0.124767
vt 0.540623 0.202238
vt 0.540623 0.259241
vt 0.200862 0.900000
vt 0.200000 0.900000
vt 0.200000 0.899031
vt 0.500000 0.739088
vt 0.326402 0.600000
vt 0.326402 0.500000
vt 0.326402 0.400000
vt 0.500000 0.259241
vt 0.675115 0.388340
vt 0.675003 0.400000
vt 0.674044 0.500000
vt 0.673085 0.600000
vn 0.000000 1.000000 0.000000
vn 0.000000 1.000000 0.000000
vn 0.000000 1.000000 0.000000
vn 0.000000 1.000000 0.000000
vn 0.000000 1.000000 0.000000
vn 0.000000 1.000000 0.000000
vn 0.000000 1.000000 0.000000
vn 0.000000 1.000000 -0.000000
vn 0.000000 1.000000 -0.000000
vn 0.000000 1.000000 0.000000
vn 0.000000 1.000000 0.000000
vn 0.000000 1.000000 0.000001
vn 0.000000 1.000000 0.000000
vn 0.000000 1.000000 0.000000
vn 0.000000 1.000000 0.000001
vn 0.000000 1.000000 0.000001
vn 0.000000 1.000000 0.000001
vn 0.000000 1.000000 0.000000
vn 0.000000 1.000000 0.000000
vn 0.000000 1.000000 0.000000
vn 0.000000 1.000000 0.000000
vn 0.000000 1.000000 0.000000
vn 0.000000 1.000000 0.000000
vn 0.000000 1.000000 0.000000
vn 0.000000 1.000000 0.000000
vn 0.000000 1.000000 0.000000
vn 0.000000 1.000000 0.000000
vn 0.000000 1.000000 0.000000
vn 0.000000 1.000000 0.000000
vn 0.000000 1.000000 0.000000
vn 0.000000 1.000000 0.000000
vn 0.000000 1.000000 -0.000000
vn 0.000000 1.000000 -0.000000
vn 0.000000 1.000000 0.000000
vn 0.000000 1.000000 0.000000
vn 0.000000 1.000000 0.000000
vn 0.000000 1.000000 -0.000000
vn 0.000000 1.000000 0.000000
vn 0.000000 1.000000 0.000000
vn 0.000000 1.000000 0.000000
vn 0.000000 1.000000 0.000001
vn 0.000000 1.000000 0.000001
vn 0.000000 1.000000 0.000000
vn 0.000000 1.000000 -0.000000
vn 0.000000 1.000000 -0.000001
vn 0.000000 1.000000 -0.000001
vn 0.000000 1.000000 -0.000001
vn 0.000000 1.000000 -0.000000
vn 0.000000 1.000000 -0.000000
vn 0.000000 1.000000 -0.000000
vn 0.000000 1.000000 -0.000000
vn 0.000000 1.000000 0.000000
vn 0.000000 1.000000 -0.000001
vn 0.000000 1.000000 -0.000001
vn 0.000000 1.000000 0.000000
vn 0.000000 1.000000 0.000000
vn 0.000000 1.000000 0.000000
vn 0.000000 1.000000 0.000000
vn 0.000000 1.000000 0.000000
vn 0.000000 1.000000 0.000000
vn 0.000000 1.000000 -0.000000
vn 0.000000 1.000000 0.000000
vn 0.000000 1.000000 0.000000
vn 0.000000 1.000000 -0.000000
vn 0.000000 1.000000 -0.000000
vn 0.000000 1.000000 0.000000
vn 0.000000 1.000000 0.000000
vn 0.000000 1.000000 0.000000
vn 0.000000 1.000000 -0.000000
vn 0.000000 1.000000 0.000000
vn 0.000000 1.000000 0.000001
vn 0.000000 1.000000 0.000000
vn 0.000000 1.000000 0.000001
vn 0.000000 1.000000 -0.000000
vn 0.000000 1.000000 0.000000
vn 0.000000 1.000000 0.000000
vn 0.000000 1.000000 0.000000
vn 0.000000 1.000000 0.000000
vn 0.000000 1.000000 -0.000000
vn 0.000000 1.000000 0.000000
vn 0.000000 1.000000 -0.000000
vn 0.000000 1.000000 0.000000
vn 0.000000 1.000000 0.000000
vn 0.000000 1.000000 -0.000000
vn 0.000000 1.000000 -0.000000
vn 0.000000 1.000000 0.000000
vn 0.000000 1.000000 -0.000000
vn 0.000000 1.000000 0.000000
vn 0.000000 1.000000 0.000000
vn 0.000000 1.000000 0.000000
vn 0.000000 1.000000 0.000000
vn 0.000000 1.000000 0.000000
vn 0.000000 1.000000 0.000000
vn 0.000000 1.000000 0.000000
vn 0.000000 1.000000 0.000000
vn 0.000000 1.000000 -0.000000
vn 0.000000 1.000000 -0.000000
vn 0.000000 1.000000 0.000000
vn 0.000000 1.000000 -0.000000
vn 0.000000 1.000000 -0.000000
vn 0.000000 1.000000 -0.000000
vn 0.000000 1.000000 -0.000001
vn 0.000000 1.000000 -0.000000
vn 0.000000 1.000000 -0.000001
vn 0.000000 1.000000 -0.000001
vn 0.000000 1.000000 0.000000
vn 0.000000 1.000000 0.000000
vn 0.000000 1.000000 -0.000001
vn 0.000000 1.000000 -0.000000
vn 0.000000 1.000000 -0.000000
vn 0.000000 1.000000 0.000000
vn 0.000000 1.000000 0.000000
vn 0.000000 1.000000 0.000000
vn 0.000000 1.000000 0.000000
vn 0.000000 1.000000 0.000000
vn 0.000000 1.000000 0.000000
vn 0.000000 1.000000 0.000009
vn 0.000000 1.000000 0.000000
vn 0.000000 1.000000 -0.000000
vn 0.000000 1.000000 -0.000003
vn 0.000000 1.000000 0.000000
vn 0.000000 1.000000 0.000000
vn 0.000000 1.000000 0.000000
vn 0.000000 1.000000 0.000001
vn 0.000000 1.000000 0.000001
vn 0.000000 1.000000 0.000000
vn 0.000000 1.000000 -0.000004
vn 0.000000 1.000000 0.000000
vn 0.000000 1.000000 0.000000
vn 0.000000 1.000000 0.000000
s 1
g pPlane3
usemtl phongE1SG
f 1/1/1 2/2/2 3/3/3 4/4/4 5/5/5
f 6/6/6 7/7/7 8/8/8 9/9/9 3/3/3 10/10/10
f 2/2/2 13/11/11 12/12/12 10/10/10 3/3/3
f 14/13/13 15/14/14 2/2/2 1/1/1
f 7/7/7 6/6/6 11/15/15 16/16/16 17/17/17
f 20/18/18 21/19/19 15/14/14 14/13/13
s off
f 25/20/20 26/21/21 27/22/22
s 1
f 21/19/19 28/23/23 29/24/24 15/14/14
f 33/25/25 34/26/26 21/19/19 20/18/18
f 35/27/27 36/28/28 37/29/29
f 38/30/30 39/31/31 40/32/32
f 34/26/26 42/33/33 28/23/23 21/19/19
s off
f 43/34/34 44/35/35 45/36/36
s 1
f 46/37/37 47/38/38 34/26/26 33/25/25
f 15/14/14 29/24/24 41/39/39 18/40/40 13/11/11 2/2/2
f 17/17/17 16/16/16 19/41/41 30/42/42 50/43/43 51/44/44
f 56/45/45 54/46/46 53/47/47 57/48/48 58/49/49
f 59/50/50 60/51/51 61/52/52
f 51/44/44 50/43/43 49/55/53 48/56/54 54/46/46 56/45/45
s off
f 66/57/55 67/58/56 68/59/57
s 1
f 69/60/58 70/61/59 71/62/60 72/63/61
f 77/64/62 78/65/63 79/66/64 80/67/65
f 62/53/66 81/68/67 69/60/58 63/54/68
f 40/32/32 39/31/31 47/38/38 46/37/37 83/70/69
f 81/68/67 86/71/70 70/61/59 69/60/58
f 22/73/71 122/122/72 50/43/43 30/42/42 23/72/73
f 82/69/74 87/74/75 81/68/67 62/53/66
f 39/31/31 88/76/76 76/77/77 75/78/78 47/38/38
f 89/79/79 72/63/61 35/27/27 90/80/80 91/81/81
f 87/74/75 94/82/82 86/71/70 81/68/67
f 72/63/61 71/62/60 96/83/83 36/28/28 35/27/27
f 98/84/84 99/85/85 94/82/82 87/74/75
f 47/38/38 75/78/78 65/86/86 64/87/87 42/33/33 34/26/26
f 90/80/80 35/27/27 37/29/29 92/88/88 58/49/49 57/48/48
f 122/122/72 32/89/89 31/90/90 49/55/53 50/43/43
f 63/54/68 69/60/58 72/63/61 89/79/79 93/91/91 97/92/92
f 111/93/93 112/94/94 110/95/95 109/96/96 113/97/97
f 114/98/98 60/51/51 98/84/84 108/99/99 107/100/100
f 60/51/51 59/50/50 115/102/101 99/85/85 98/84/84
f 116/104/102 117/105/103 101/106/104 100/107/105 80/67/65 79/66/64
f 78/65/63 77/64/62 95/108/106 88/76/76 39/31/31 38/30/30 102/109/107
f 113/97/97 109/96/96 106/110/108 105/111/109 117/105/103 116/104/102
f 108/99/99 98/84/84 87/74/75 82/69/74 104/112/110 103/113/111
f 112/94/94 111/93/93 118/116/112 61/52/52 60/51/51 114/98/98
f 4/4/4 3/3/3 9/9/9
s off
usemtl initialShadingGroup
f 119/119/113 120/120/114 121/121/115
s 1
usemtl phongE1SG
f 29/24/24 123/123/116 24/75/117 41/39/39
f 28/23/23 124/124/118 123/123/116 29/24/24
f 42/33/33 125/125/119 124/124/118 28/23/23
f 52/101/120 125/125/119 42/33/33 64/87/87
f 101/106/104 117/105/103 126/126/121 74/114/122 73/115/123
f 117/105/103 105/111/109 85/117/124 84/118/125 126/126/121
f 128/128/126 127/127/127 104/112/110 82/69/74
f 129/129/128 128/128/126 82/69/74 62/53/66
f 130/130/129 129/129/128 62/53/66 63/54/68
f 55/103/130 130/130/129 63/54/68 97/92/92
