# This file uses centimeters as units for non-parametric coordinates.

mtllib Road.mtl
g default
v -25.023755 -0.032064 15.880346
v -8.944072 -0.032064 15.880346
v 7.135624 -0.032064 15.880346
v 23.215312 -0.032064 15.880346
v 39.294997 -0.032064 15.880346
v 55.374690 -0.032064 15.880346
v 71.454373 -0.032064 15.880346
v 87.534075 -0.032064 15.880346
v 103.613759 -0.032064 15.880346
v -25.023755 -0.032064 -0.199339
v 103.613759 -0.032064 -0.199339
v -25.023755 -0.032064 -16.279032
v -8.944072 -0.032064 -16.279032
v 7.135624 -0.032064 -16.279032
v 23.215312 -0.032064 -16.279032
v 39.294997 -0.032064 -16.279032
v 55.374690 -0.032064 -16.279032
v 71.454373 -0.032064 -16.279032
v 87.534075 -0.032064 -16.279032
v 103.613759 -0.032064 -16.279032
v 103.613759 -0.032064 -25.777912
v 87.534075 -0.032064 -25.781415
v 87.534075 -0.032064 -25.839126
v 71.454373 -0.032064 -25.774387
v -8.944072 -0.032064 -25.756024
v -25.023755 -0.032064 -25.806003
v -25.023755 -0.032064 -25.809506
v 105.384668 -0.032064 -25.777521
v 105.334590 -0.032064 -16.279032
v 105.373780 -0.032064 -0.199339
v 105.373780 -0.032064 15.880346
v 105.308233 -0.032064 25.531665
v 103.613759 -0.032064 25.541796
v 87.534075 -0.032064 25.397773
v 71.454373 -0.032064 25.541796
v 55.374690 -0.032064 25.397773
v 39.294997 -0.032064 25.301761
v 23.215312 -0.032064 25.397773
v 7.135624 -0.032064 25.397773
v -8.944072 -0.032064 25.397773
v -25.023750 -0.032064 25.349756
v -26.576871 -0.032064 25.349756
v -26.602883 -0.032064 15.880346
v -26.602883 -0.032064 -0.199339
v -26.602883 -0.032064 -16.279032
v -26.470352 -0.032064 -25.806314
v 91.570479 -0.032064 -16.279032
v 91.570479 -0.032064 -0.199339
v 91.570479 -0.032064 15.880346
v -16.037484 -0.032064 -0.199339
v -16.037484 -0.032064 -16.279032
v 15.846647 -0.032064 -16.279032
v 15.887121 -0.032064 15.880346
v -16.037484 -0.032064 15.880346
v 7.135624 -0.032064 -25.798973
v 7.135624 -0.032064 -25.809506
v 23.215312 -0.032064 -25.795468
v 39.294997 -0.032064 -25.791950
v 55.374690 -0.032064 -25.788442
v 55.374690 -0.032064 -25.839126
vt -13.576719 -8.498178
vt -11.612923 -8.498178
vt -11.612923 0.528447
vt -13.576719 0.528447
vt 11.902955 0.528447
vt 11.902955 -8.498178
vt 14.534808 -8.498178
vt 14.534808 0.528447
vt -11.612923 9.555075
vt -13.576719 9.555075
vt 11.902955 9.555075
vt 14.534808 9.555075
vt -10.062778 9.555075
vt -10.062778 14.875158
vt -13.576719 14.905181
vt -13.576719 14.903214
vt -6.548837 9.555075
vt -6.548837 14.899269
vt -6.548837 14.905181
vt 3.992986 9.555075
vt 7.506926 9.555075
vt 7.506926 14.885468
vt 3.992986 14.921808
vt 3.992986 14.893357
vt 11.020867 9.555075
vt 11.020867 14.889412
vt 11.020867 14.921808
vt -4.645191 9.555075
vt -3.034896 9.555075
vt -3.034896 14.897301
vt 0.479044 9.555075
vt 0.479044 14.895326
vt 14.534808 14.887444
vt 14.910867 9.555075
vt 14.921809 14.887226
vt 14.919431 0.528447
vt 14.919431 -8.498178
vt 14.534808 -13.921808
vt 14.905107 -13.916122
vt 11.020867 -13.840959
vt 11.020867 -8.498178
vt 7.506926 -13.921808
vt 7.506926 -8.498178
vt 3.992986 -13.840959
vt 3.992986 -8.498178
vt 0.479044 -13.787060
vt 0.479044 -8.498178
vt -3.034896 -13.840959
vt -3.034896 -8.498178
vt -6.548837 -13.840959
vt -4.636346 -8.498178
vt -6.548837 -8.498178
vt -10.062778 -13.840959
vt -10.062778 -8.498178
vt -13.576717 -13.814004
vt -13.921809 -8.498178
vt -13.916125 -13.814004
vt -13.921809 0.528447
vt -13.921809 9.555075
vt -13.892847 14.903390
vn 0.000000 1.000000 0.000000
vn 0.000000 1.000000 0.000000
vn 0.000000 1.000000 0.000000
vn 0.000000 1.000000 0.000000
vn 0.000000 1.000000 0.000000
vn 0.000000 1.000000 0.000000
vn 0.000000 1.000000 0.000000
vn 0.000000 1.000000 0.000000
vn 0.000000 1.000000 0.000000
vn 0.000000 1.000000 0.000000
vn 0.000000 1.000000 0.000000
vn 0.000000 1.000000 0.000000
vn 0.000000 1.000000 0.000000
vn 0.000000 1.000000 0.000000
vn 0.000000 1.000000 0.000000
vn 0.000000 1.000000 0.000000
vn 0.000000 1.000000 0.000000
vn 0.000000 1.000000 0.000000
vn 0.000000 1.000000 0.000000
vn 0.000000 1.000000 0.000000
vn 0.000000 1.000000 0.000000
vn 0.000000 1.000000 0.000000
vn 0.000000 1.000000 0.000000
vn 0.000000 1.000000 0.000000
vn 0.000000 1.000000 0.000000
vn 0.000000 1.000000 0.000000
vn 0.000000 1.000000 0.000000
vn 0.000000 1.000000 0.000000
vn 0.000000 1.000000 0.000000
vn 0.000000 1.000000 0.000000
vn 0.000000 1.000000 0.000000
vn 0.000000 1.000000 0.000000
vn 0.000000 1.000000 0.000000
vn 0.000000 1.000000 0.000000
vn 0.000000 1.000000 0.000000
vn 0.000000 1.000000 0.000000
vn 0.000000 1.000000 0.000000
vn 0.000000 1.000000 0.000000
vn 0.000000 1.000000 0.000000
vn 0.000000 1.000000 0.000000
vn 0.000000 1.000000 0.000000
vn 0.000000 1.000000 0.000000
vn 0.000000 1.000000 0.000000
vn 0.000000 1.000000 0.000000
vn 0.000000 1.000000 0.000000
vn 0.000000 1.000000 0.000000
vn 0.000000 1.000000 0.000000
vn 0.000000 1.000000 0.000000
vn 0.000000 1.000000 0.000000
vn 0.000000 1.000000 0.000000
vn 0.000000 1.000000 0.000000
vn 0.000000 1.000000 0.000000
vn 0.000000 1.000000 0.000000
vn 0.000000 1.000000 0.000000
vn 0.000000 1.000000 0.000000
vn 0.000000 1.000000 0.000000
vn 0.000000 1.000000 0.000000
vn 0.000000 1.000000 0.000000
vn 0.000000 1.000000 0.000000
vn 0.000000 1.000000 0.000000
s 1
g polySurface3 polySurface1 pPlane2
usemtl phong1SG
f 1/1/1 54/2/2 50/3/3 10/4/4
f 48/5/5 49/6/6 9/7/7 11/8/8
f 10/4/4 50/3/3 51/9/9 12/10/10
f 47/11/11 48/5/5 11/8/8 20/12/12
f 12/10/10 51/9/9 13/13/13 25/14/14 27/15/15 26/16/16
f 13/13/13 14/17/17 55/18/18 56/19/19 25/14/14
f 17/20/20 18/21/21 24/22/22 60/23/23 59/24/24
f 18/21/21 19/25/25 22/26/26 23/27/27 24/22/22
f 14/17/17 52/28/28 15/29/29 57/30/30 55/18/18
f 15/29/29 16/31/31 58/32/32 57/30/30
f 16/31/31 17/20/20 59/24/24 58/32/32
f 19/25/25 47/11/11 20/12/12 21/33/33 22/26/26
f 20/12/12 29/34/34 28/35/35 21/33/33
f 11/8/8 30/36/36 29/34/34 20/12/12
f 9/7/7 31/37/37 30/36/36 11/8/8
f 33/38/38 32/39/39 31/37/37 9/7/7
f 34/40/40 33/38/38 9/7/7 49/6/6 8/41/41
f 35/42/42 34/40/40 8/41/41 7/43/43
f 36/44/44 35/42/42 7/43/43 6/45/45
f 37/46/46 36/44/44 6/45/45 5/47/47
f 38/48/48 37/46/46 5/47/47 4/49/49
f 39/50/50 38/48/48 4/49/49 53/51/51 3/52/52
f 40/53/53 39/50/50 3/52/52 2/54/54
f 41/55/55 40/53/53 2/54/54 54/2/2 1/1/1
f 43/56/56 42/57/57 41/55/55 1/1/1
f 44/58/58 43/56/56 1/1/1 10/4/4
f 45/59/59 44/58/58 10/4/4 12/10/10
f 46/60/60 45/59/59 12/10/10 26/16/16
