# This file uses centimeters as units for non-parametric coordinates.

mtllib CaboAletaDerecha.mtl
g default
v 0.290290 0.091476 0.012518
v 0.825994 -0.018498 0.200080
v 0.842698 0.089984 0.012518
v 0.331337 0.013389 0.120201
v 0.331378 0.013389 -0.095182
v 0.825953 -0.018498 -0.175055
v 0.029541 0.034013 0.012548
v 1.245284 0.057350 0.012548
v 1.496602 -0.043669 0.087574
v 1.544260 -0.019315 0.012548
v 1.225342 -0.045908 0.187412
v 1.225384 -0.045908 -0.162393
v 1.496561 -0.043669 -0.062466
vt 0.194092 0.149414
vt 0.209839 0.140137
vt 0.194092 0.149414
vt 0.203125 0.143066
vt 0.185181 0.143066
vt 0.178467 0.140137
vt 0.194092 0.144531
vt 0.194092 0.146484
vt 0.200439 0.138184
vt 0.194092 0.140137
vt 0.208740 0.138184
vt 0.179565 0.138184
vt 0.187866 0.138184
vn -0.130505 0.991437 -0.004500
vn 0.035601 0.859314 0.510208
vn 0.038099 0.999270 -0.002900
vn -0.084801 0.791005 0.605904
vn 0.035601 0.859314 0.510208
vn -0.130505 0.991437 -0.004500
vn -0.056601 0.807310 -0.587407
vn 0.038099 0.999270 -0.002900
vn 0.023701 0.863721 -0.503412
vn -0.130505 0.991437 -0.004500
vn 0.038099 0.999270 -0.002900
vn -0.056601 0.807310 -0.587407
vn -0.215194 0.976571 0.000000
vn -0.084801 0.791005 0.605904
vn -0.130505 0.991437 -0.004500
vn 0.153004 0.988225 0.000900
vn 0.212308 0.865433 0.453818
vn 0.248390 0.968660 0.000000
vn 0.117400 0.850201 0.513201
vn 0.212308 0.865433 0.453818
vn 0.153004 0.988225 0.000900
vn 0.038099 0.999270 -0.002900
vn 0.117400 0.850201 0.513201
vn 0.153004 0.988225 0.000900
vn 0.035601 0.859314 0.510208
vn 0.117400 0.850201 0.513201
vn 0.038099 0.999270 -0.002900
vn 0.153004 0.988225 0.000900
vn 0.023701 0.863721 -0.503412
vn 0.038099 0.999270 -0.002900
vn 0.119697 0.848981 -0.514688
vn 0.023701 0.863721 -0.503412
vn 0.153004 0.988225 0.000900
vn -0.056601 0.807310 -0.587407
vn -0.215194 0.976571 0.000000
vn -0.130505 0.991437 -0.004500
vn 0.212394 0.865376 -0.453887
vn 0.153004 0.988225 0.000900
vn 0.248390 0.968660 0.000000
vn 0.119697 0.848981 -0.514688
vn 0.153004 0.988225 0.000900
vn 0.212394 0.865376 -0.453887
s off
g polySurface7 polySurface6 Cabo:polySurface78
usemtl Cabo:Material_005
f 1/1/1 2/2/2 3/3/3
f 4/4/4 2/2/5 1/1/6
f 5/5/7 3/3/8 6/6/9
f 1/1/10 3/3/11 5/5/12
f 7/7/13 4/4/14 1/1/15
f 8/8/16 9/9/17 10/10/18
f 11/11/19 9/9/20 8/8/21
f 3/3/22 11/11/23 8/8/24
f 2/2/25 11/11/26 3/3/27
f 8/8/28 6/6/29 3/3/30
f 12/12/31 6/6/32 8/8/33
f 5/5/34 7/7/35 1/1/36
f 13/13/37 8/8/38 10/10/39
f 12/12/40 8/8/41 13/13/42
