# This file uses centimeters as units for non-parametric coordinates.

mtllib bicepDer.mtl
g default
v -0.018785 -0.082674 0.011370
v -0.020613 -0.065507 0.050394
v -0.007526 -0.081924 0.036156
v -0.013021 -0.021884 -0.082769
v -0.040448 -0.097028 -0.035106
v 0.003547 -0.218262 -0.082298
v -0.007800 -0.081111 0.036156
v -0.040722 -0.096216 -0.035106
v -0.010004 -0.081996 0.036156
v -0.021263 -0.082746 0.011370
v -0.042926 -0.097101 -0.035106
v -0.006296 -0.049921 0.099896
v -0.003639 0.038236 0.075794
v -0.003592 0.086814 0.014409
v -0.012202 -0.021397 -0.082769
v 0.098040 -0.192504 -0.045578
v 0.063160 -0.200367 -0.009163
v 0.030055 -0.048812 0.050737
v 0.004640 -0.218588 -0.082298
v 0.023759 -0.211687 -0.024514
v -0.006708 -0.081436 0.036156
v -0.039630 -0.096541 -0.035106
v -0.001094 -0.037996 -0.086172
v 0.003363 -0.059453 -0.091397
v 0.053133 -0.206895 -0.125269
v 0.094597 -0.194409 -0.102101
v 0.054313 -0.034215 -0.057758
v 0.042327 0.001462 -0.052919
v -0.003643 0.048044 -0.068042
v 0.043960 0.023326 0.027232
v 0.016848 -0.014443 0.063209
v -0.019795 -0.065020 0.050394
v 0.061706 -0.025212 0.019491
v -0.017966 -0.082187 0.011370
v -0.032625 -0.061044 -0.092839
vt -0.858800 -1.001200
vt -0.947600 -1.001000
vt -0.935800 -0.544900
vt -0.947600 -1.001000
vt -0.858700 -0.544800
vt -0.897300 -0.544800
vt -0.666000 -1.001100
vt -0.858700 -0.544800
vt -0.858800 -1.001200
vt -0.858700 -0.544800
vt -0.947600 -1.001000
vt -0.858800 -1.001200
vt 2.498500 0.870400
vt 2.499400 0.754300
vt 2.283400 0.713200
vt 2.600000 0.723800
vt 2.283400 0.713200
vt -0.671200 -0.543400
vt -0.909800 -0.542300
vt -0.672100 -0.721100
vt -0.918100 -0.721700
vt -0.922700 -0.903600
vt -0.675900 -0.903700
vt -0.665900 -0.544600
vt -0.858700 -0.544800
vt -0.666000 -1.001100
vt -0.935800 -0.544900
vt -0.889500 -0.544900
vt -0.858800 -1.001200
vt -0.858700 -0.544800
vt -0.665900 -0.461700
vt -0.665900 -0.222400
vt -0.858700 -0.333800
vt -0.890400 -0.334300
vt -0.935900 -0.335000
vt -0.935800 -0.015300
vt -0.897300 -0.015000
vt -0.935900 -0.334400
vt -0.896100 -0.333700
vt -0.935800 -0.544700
vt -0.897300 -0.544800
vt -0.858700 -0.333300
vt -0.858700 -0.014700
vt -0.665900 -0.078800
vn -0.997959 -0.060098 -0.021599
vn 0.207613 -0.428526 0.879354
vn 0.175107 0.099204 -0.979539
vn 0.207613 -0.428526 0.879354
vn -0.342998 -0.530496 0.775194
vn 0.915445 0.246112 0.318416
vn -0.914122 -0.191605 -0.357308
vn -0.342998 -0.530496 0.775194
vn -0.997959 -0.060098 -0.021599
vn -0.342998 -0.530496 0.775194
vn 0.207613 -0.428526 0.879354
vn -0.997959 -0.060098 -0.021599
vn 0.475503 0.473203 -0.741604
vn 0.175107 0.099204 -0.979539
vn 0.672924 -0.118704 -0.730126
vn 0.175107 0.099204 -0.979539
vn 0.207613 -0.428526 0.879354
vn 0.672924 -0.118704 -0.730126
vn 0.939668 0.109796 0.323989
vn 0.916783 0.174197 0.359394
vn 0.301217 -0.159909 0.940052
vn 0.301217 -0.159909 0.940052
vn 0.916783 0.174197 0.359394
vn 0.359224 -0.196813 0.912262
vn 0.359224 -0.196813 0.912262
vn -0.342998 -0.530496 0.775194
vn 0.301217 -0.159909 0.940052
vn -0.342998 -0.530496 0.775194
vn -0.662446 -0.194013 0.723550
vn 0.301217 -0.159909 0.940052
vn -0.662446 -0.194013 0.723550
vn -0.342998 -0.530496 0.775194
vn -0.914122 -0.191605 -0.357308
vn 0.175107 0.099204 -0.979539
vn -0.117806 0.110705 -0.986847
vn -0.997959 -0.060098 -0.021599
vn -0.117806 0.110705 -0.986847
vn -0.244203 0.139001 -0.959710
vn -0.997959 -0.060098 -0.021599
vn -0.244203 0.139001 -0.959710
vn -0.079703 -0.012800 -0.996736
vn -0.997959 -0.060098 -0.021599
vn -0.997959 -0.060098 -0.021599
vn -0.079703 -0.012800 -0.996736
vn -0.914122 -0.191605 -0.357308
vn 0.783415 0.165303 -0.599112
vn -0.079703 -0.012800 -0.996736
vn 0.763102 0.315201 -0.564202
vn -0.079703 -0.012800 -0.996736
vn -0.244203 0.139001 -0.959710
vn 0.763102 0.315201 -0.564202
vn -0.244203 0.139001 -0.959710
vn -0.117806 0.110705 -0.986847
vn 0.763102 0.315201 -0.564202
vn 0.763102 0.315201 -0.564202
vn -0.117806 0.110705 -0.986847
vn 0.733228 0.388715 -0.557922
vn -0.117806 0.110705 -0.986847
vn 0.175107 0.099204 -0.979539
vn 0.733228 0.388715 -0.557922
vn 0.733228 0.388715 -0.557922
vn 0.175107 0.099204 -0.979539
vn 0.475503 0.473203 -0.741604
vn 0.475503 0.473203 -0.741604
vn 0.517107 0.845712 0.131802
vn 0.733228 0.388715 -0.557922
vn 0.733228 0.388715 -0.557922
vn 0.517107 0.845712 0.131802
vn 0.854361 0.419730 0.306422
vn 0.517107 0.845712 0.131802
vn 0.461736 0.441634 0.769259
vn 0.854361 0.419730 0.306422
vn 0.854361 0.419730 0.306422
vn 0.461736 0.441634 0.769259
vn 0.686091 -0.045499 0.726091
vn 0.461736 0.441634 0.769259
vn 0.841523 -0.074102 0.535115
vn 0.686091 -0.045499 0.726091
vn 0.686091 -0.045499 0.726091
vn 0.841523 -0.074102 0.535115
vn 0.915445 0.246112 0.318416
vn 0.915445 0.246112 0.318416
vn -0.342998 -0.530496 0.775194
vn 0.686091 -0.045499 0.726091
vn -0.342998 -0.530496 0.775194
vn 0.359224 -0.196813 0.912262
vn 0.686091 -0.045499 0.726091
vn 0.359224 -0.196813 0.912262
vn 0.916783 0.174197 0.359394
vn 0.686091 -0.045499 0.726091
vn 0.686091 -0.045499 0.726091
vn 0.916783 0.174197 0.359394
vn 0.854361 0.419730 0.306422
vn 0.916783 0.174197 0.359394
vn 0.733228 0.388715 -0.557922
vn 0.854361 0.419730 0.306422
vn 0.733228 0.388715 -0.557922
vn 0.916783 0.174197 0.359394
vn 0.763102 0.315201 -0.564202
vn 0.916783 0.174197 0.359394
vn 0.939668 0.109796 0.323989
vn 0.763102 0.315201 -0.564202
vn 0.763102 0.315201 -0.564202
vn 0.939668 0.109796 0.323989
vn 0.783415 0.165303 -0.599112
vn -0.985848 0.051256 0.159612
vn -0.985848 0.051256 0.159612
vn -0.985848 0.051256 0.159612
vn -0.985848 0.051256 0.159612
vn -0.985848 0.051256 0.159612
vn -0.985848 0.051256 0.159612
vn -0.985848 0.051256 0.159612
vn -0.985848 0.051256 0.159612
vn -0.985848 0.051256 0.159612
vn -0.985848 0.051256 0.159612
vn -0.985848 0.051256 0.159612
vn 0.261981 -0.964643 0.028801
vn 0.261981 -0.964643 0.028801
vn 0.261981 -0.964643 0.028801
vn 0.261981 -0.964643 0.028801
vn 0.261981 -0.964643 0.028801
vn 0.261981 -0.964643 0.028801
s off
g polySurface37
usemtl Alex_mesh:mat0
f 5/1/1 1/2/2 4/3/3
f 1/4/4 3/5/5 2/6/6
f 6/7/7 7/8/8 8/9/9
f 9/10/10 10/11/11 11/12/12
usemtl Alex_mesh:mat0_002
f 29/13/13 15/14/14 35/15/15
f 15/14/16 34/16/17 35/17/18
usemtl Alex_mesh:mat0
f 16/18/19 33/19/20 17/20/21
f 17/20/22 33/19/23 18/21/24
f 18/21/25 21/22/26 17/20/27
f 21/22/28 20/23/29 17/20/30
f 20/24/31 21/25/32 19/26/33
f 15/27/34 23/28/35 22/29/36
f 23/28/37 24/30/38 22/29/39
f 24/30/40 25/31/41 22/29/42
f 22/29/43 25/31/44 19/26/45
f 26/32/46 25/31/47 27/33/48
f 25/31/49 24/30/50 27/33/51
f 24/30/52 23/28/53 27/33/54
f 27/33/55 23/28/56 28/34/57
f 23/28/58 15/27/59 28/34/60
f 28/34/61 15/27/62 29/35/63
f 29/35/64 14/36/65 28/34/66
f 28/34/67 14/36/68 30/37/69
f 14/36/70 13/38/71 30/37/72
f 30/37/73 13/38/74 31/39/75
f 13/38/76 12/40/77 31/39/78
f 31/39/79 12/40/80 32/41/81
f 32/41/82 21/25/83 31/39/84
f 21/25/85 18/42/86 31/39/87
f 18/42/88 33/43/89 31/39/90
f 31/39/91 33/43/92 30/37/93
f 33/43/94 28/34/95 30/37/96
f 28/34/97 33/43/98 27/33/99
f 33/43/100 16/44/101 27/33/102
f 27/33/103 16/44/104 26/32/105
usemtl lambert2SG
f 34/16/106 15/27/107 22/29/108 19/26/109 21/25/110 32/41/111 12/40/112 13/38/113 14/36/114 29/13/115 35/17/116
f 17/20/117 20/24/118 19/26/119 25/31/120 26/32/121 16/18/122
