# This file uses centimeters as units for non-parametric coordinates.

mtllib WaterPlane.mtl
g default
v -11.938029 0.000000 11.938029
v -9.550425 0.000000 11.938029
v -7.162827 0.000000 11.938029
v -4.775211 0.000000 11.938029
v -2.387605 0.000000 11.938029
v 0.000000 0.000000 11.938029
v 2.387606 0.000000 11.938029
v 4.775211 0.000000 11.938029
v 7.162827 0.000000 11.938029
v 9.550425 0.000000 11.938029
v 11.938029 0.000000 11.938029
v -11.938029 0.000000 9.550425
v -9.550425 0.000000 9.550425
v -7.162827 0.000000 9.550425
v -4.775211 0.000000 9.550425
v -2.387605 0.000000 9.550425
v 0.000000 0.000000 9.550425
v 2.387606 0.000000 9.550425
v 4.775211 0.000000 9.550425
v 7.162827 0.000000 9.550425
v 9.550425 0.000000 9.550425
v 11.938029 0.000000 9.550425
v -11.938029 0.000000 7.162827
v -9.550425 0.000000 7.162827
v -7.162827 0.000000 7.162827
v -4.775211 0.000000 7.162827
v -2.387605 0.000000 7.162827
v 0.000000 0.000000 7.162827
v 2.387606 0.000000 7.162827
v 4.775211 0.000000 7.162827
v 7.162827 0.000000 7.162827
v 9.550425 0.000000 7.162827
v 11.938029 0.000000 7.162827
v -11.938029 0.000000 4.775211
v -9.550425 0.000000 4.775211
v -7.162827 0.000000 4.775211
v -4.775211 0.000000 4.775211
v -2.387605 0.000000 4.775211
v 0.000000 0.000000 4.775211
v 2.387606 0.000000 4.775211
v 4.775211 0.000000 4.775211
v 7.162827 0.000000 4.775211
v 9.550425 0.000000 4.775211
v 11.938029 0.000000 4.775211
v -11.938029 0.000000 2.387605
v -9.550425 0.000000 2.387605
v -7.162827 0.000000 2.387605
v -4.775211 0.000000 2.387605
v -11.938029 0.000000 0.000000
v -9.550425 0.000000 0.000000
v -7.162827 0.000000 0.000000
v -4.775211 0.000000 0.000000
v -11.938029 0.000000 -2.387606
v -9.550425 0.000000 -2.387606
v -7.162827 0.000000 -2.387606
v -11.938029 0.000000 -4.775211
v -9.550425 0.000000 -4.775211
v -7.162827 0.000000 -4.775211
v -11.938029 0.000000 -7.162827
v -9.550425 0.000000 -7.162827
v -7.162827 0.000000 -7.162827
v -11.938029 0.000000 -9.550425
v -9.550425 0.000000 -9.550425
v -7.162827 0.000000 -9.550425
v -11.938029 0.000000 -11.938029
v -9.550425 0.000000 -11.938029
v -7.162827 0.000000 -11.938029
vt 0.000000 -0.000000
vt 0.250000 -0.000000
vt 0.250000 0.333333
vt 0.000000 0.333333
vt 0.499999 -0.000000
vt -0.000000 -0.000000
vt 0.333333 -0.000000
vt 0.333333 0.333333
vt -0.000000 0.333333
vt 0.666667 -0.000000
vt 0.666667 0.333333
vt 0.499999 0.333333
vt 0.750000 -0.000000
vt 0.750000 0.333333
vt 1.000000 -0.000000
vt 1.000000 0.333333
vt 1.000000 -0.000000
vt 1.000000 0.333333
vt 0.333333 0.666665
vt 0.400000 -0.000000
vt 0.600001 -0.000000
vt 0.600001 0.333333
vt 0.250000 0.666665
vt 0.000000 0.666665
vt 0.499999 0.666665
vt 0.750000 0.666665
vt 1.000000 0.666665
vt -0.000000 0.666665
vt 0.666667 0.666665
vt 1.000000 0.666665
vt 0.400000 0.333333
vt 0.800000 -0.000000
vt 0.800000 0.333333
vt -0.000000 -0.000000
vt 0.333333 -0.000000
vt 0.333333 0.333333
vt -0.000000 0.333333
vt 0.250000 1.000000
vt 0.333333 1.000000
vt -0.000000 1.000000
vt 0.666667 1.000000
vt 1.000000 -0.000000
vt 1.000000 0.333333
vt 0.600001 0.666665
vt 0.666665 -0.000000
vt 0.666665 0.333333
vt 1.000000 -0.000000
vt 1.000000 0.333333
vt 0.333333 0.666667
vt -0.000000 0.666667
vt 0.666665 0.666667
vt 1.000000 0.666667
vt -0.000000 0.000000
vt 0.500000 0.000000
vt 0.500000 0.333333
vt -0.000000 0.333333
vt 1.000000 0.000000
vt 1.000000 0.333333
vt 0.500000 0.666668
vt -0.000000 0.666668
vt 1.000000 0.666668
vt -0.000000 0.000000
vt 0.500000 0.000000
vt 0.500000 1.000000
vt -0.000000 1.000000
vt 1.000000 0.000000
vt 1.000000 1.000000
vt 0.400000 0.666665
vt 0.800000 0.666665
vt 1.000000 0.666665
vt 0.600001 1.000000
vt 0.400000 1.000000
vt 0.800000 1.000000
vt 1.000000 1.000000
vt 1.000000 1.000000
vt 0.000000 1.000000
vt 0.499999 1.000000
vt 0.750000 1.000000
vt 1.000000 1.000000
vt 0.333333 1.000000
vt -0.000000 1.000000
vt 0.666665 1.000000
vt 0.500000 1.000000
vt -0.000000 1.000000
vt 1.000000 1.000000
vn 0.000000 1.000000 0.000000
vn 0.000000 1.000000 0.000000
vn 0.000000 1.000000 0.000000
vn 0.000000 1.000000 0.000000
vn 0.000000 1.000000 0.000000
vn 0.000000 1.000000 0.000000
vn 0.000000 1.000000 0.000000
vn 0.000000 1.000000 0.000000
vn 0.000000 1.000000 0.000000
vn 0.000000 1.000000 0.000000
vn 0.000000 1.000000 0.000000
vn 0.000000 1.000000 0.000000
vn 0.000000 1.000000 0.000000
vn 0.000000 1.000000 0.000000
vn 0.000000 1.000000 0.000000
vn 0.000000 1.000000 0.000000
vn 0.000000 1.000000 0.000000
vn 0.000000 1.000000 0.000000
vn 0.000000 1.000000 0.000000
vn 0.000000 1.000000 0.000000
vn 0.000000 1.000000 0.000000
vn 0.000000 1.000000 0.000000
vn 0.000000 1.000000 0.000000
vn 0.000000 1.000000 0.000000
vn 0.000000 1.000000 0.000000
vn 0.000000 1.000000 0.000000
vn 0.000000 1.000000 0.000000
vn 0.000000 1.000000 0.000000
vn 0.000000 1.000000 0.000000
vn 0.000000 1.000000 0.000000
vn 0.000000 1.000000 0.000000
vn 0.000000 1.000000 0.000000
vn 0.000000 1.000000 0.000000
vn 0.000000 1.000000 0.000000
vn 0.000000 1.000000 0.000000
vn 0.000000 1.000000 0.000000
vn 0.000000 1.000000 0.000000
vn 0.000000 1.000000 0.000000
vn 0.000000 1.000000 0.000000
vn 0.000000 1.000000 0.000000
vn 0.000000 1.000000 0.000000
vn 0.000000 1.000000 0.000000
vn 0.000000 1.000000 0.000000
vn 0.000000 1.000000 0.000000
vn 0.000000 1.000000 0.000000
vn 0.000000 1.000000 0.000000
vn -0.000000 1.000000 0.000000
vn -0.000000 1.000000 0.000000
vn 0.000000 1.000000 0.000000
vn 0.000000 1.000000 0.000000
vn -0.000000 1.000000 0.000000
vn -0.000000 1.000000 0.000000
vn 0.000000 1.000000 0.000000
vn 0.000000 1.000000 0.000000
vn 0.000000 1.000000 0.000000
vn 0.000000 1.000000 0.000000
vn 0.000000 1.000000 0.000000
vn 0.000000 1.000000 0.000000
vn 0.000000 1.000000 0.000000
vn 0.000000 1.000000 0.000000
vn 0.000000 1.000000 0.000000
vn 0.000000 1.000000 0.000000
vn 0.000000 1.000000 0.000000
vn 0.000000 1.000000 0.000000
vn 0.000000 1.000000 0.000000
vn 0.000000 1.000000 0.000000
vn 0.000000 1.000000 0.000000
s 1
g pPlane1
usemtl phong1SG
f 1/1/1 2/2/2 13/3/3 12/4/4
f 2/2/2 3/5/5 14/12/6 13/3/3
f 3/5/5 4/13/7 15/14/8 14/12/6
f 4/13/7 5/15/9 16/16/10 15/14/8
f 5/6/9 6/7/11 17/8/12 16/9/10
f 6/7/11 7/10/13 18/11/14 17/8/12
f 7/10/13 8/17/15 19/18/16 18/11/14
f 8/20/15 9/21/17 20/22/18 19/31/16
f 9/21/17 10/32/19 21/33/20 20/22/18
f 10/32/19 11/42/21 22/43/22 21/33/20
f 12/4/4 13/3/3 24/23/23 23/24/24
f 13/3/3 14/12/6 25/25/25 24/23/23
f 14/12/6 15/14/8 26/26/26 25/25/25
f 15/14/8 16/16/10 27/27/27 26/26/26
f 16/9/10 17/8/12 28/19/28 27/28/27
f 17/8/12 18/11/14 29/29/29 28/19/28
f 18/11/14 19/18/16 30/30/30 29/29/29
f 19/31/16 20/22/18 31/44/31 30/68/30
f 20/22/18 21/33/20 32/69/32 31/44/31
f 21/33/20 22/43/22 33/70/33 32/69/32
f 23/24/24 24/23/23 35/38/34 34/76/35
f 24/23/23 25/25/25 36/77/36 35/38/34
f 25/25/25 26/26/26 37/78/37 36/77/36
f 26/26/26 27/27/27 38/79/38 37/78/37
f 27/28/27 28/19/28 39/39/39 38/40/38
f 28/19/28 29/29/29 40/41/40 39/39/39
f 29/29/29 30/30/30 41/75/41 40/41/40
f 30/68/30 31/44/31 42/71/42 41/72/41
f 31/44/31 32/69/32 43/73/43 42/71/42
f 32/69/32 33/70/33 44/74/44 43/73/43
f 34/34/35 35/35/34 46/36/45 45/37/46
f 35/35/34 36/45/36 47/46/47 46/36/45
f 36/45/36 37/47/37 48/48/48 47/46/47
f 45/37/46 46/36/45 50/49/49 49/50/50
f 46/36/45 47/46/47 51/51/51 50/49/49
f 47/46/47 48/48/48 52/52/52 51/51/51
f 49/50/50 50/49/49 54/80/53 53/81/54
f 50/49/49 51/51/51 55/82/55 54/80/53
f 53/53/54 54/54/53 57/55/56 56/56/57
f 54/54/53 55/57/55 58/58/58 57/55/56
f 56/56/57 57/55/56 60/59/59 59/60/60
f 57/55/56 58/58/58 61/61/61 60/59/59
f 59/60/60 60/59/59 63/83/62 62/84/63
f 60/59/59 61/61/61 64/85/64 63/83/62
f 62/62/63 63/63/62 66/64/65 65/65/66
f 63/63/62 64/66/64 67/67/67 66/64/65
