# This file uses centimeters as units for non-parametric coordinates.

mtllib wing_left.mtl
g default
v 0.064266 0.000568 0.030527
v 0.000044 0.000568 0.030527
v 0.064266 0.000568 -0.031718
v 0.000044 0.000568 -0.031718
v 0.004198 0.000568 0.009687
v 0.000044 0.000568 0.011476
v 0.004198 0.000568 -0.031718
v 0.004198 0.000568 0.030527
v 0.064266 0.000568 -0.012892
vt 0.007944 0.290529
vt 0.009495 0.053612
vt 0.462172 0.049986
vt 0.458762 0.571046
vt 0.457046 0.833314
vt 0.004369 0.836939
vt 0.493479 0.049735
vt 0.489922 0.593312
vt 0.488353 0.833063
vn 0.000000 1.000000 0.000000
vn 0.000000 1.000000 0.000000
vn 0.000000 1.000000 0.000000
vn 0.000000 1.000000 0.000000
vn 0.000000 1.000000 0.000000
vn 0.000000 1.000000 0.000000
vn 0.000000 1.000000 0.000000
vn 0.000000 1.000000 0.000000
vn 0.000000 1.000000 0.000000
vn 0.000000 1.000000 0.000000
vn 0.000000 1.000000 0.000000
vn 0.000000 1.000000 0.000000
vn 0.000000 1.000000 0.000000
vn 0.000000 1.000000 0.000000
vn 0.000000 1.000000 0.000000
vn 0.000000 1.000000 0.000000
s off
g polySurface2 wings:Wings_wings_Butterfly_Wings
usemtl wings:Butterfly_Wings
f 9/1/1 3/2/2 7/3/3 5/4/4
f 8/5/5 1/6/6 9/1/7 5/4/8
f 5/4/9 7/3/10 4/7/11 6/8/12
f 2/9/13 8/5/14 5/4/15 6/8/16
