# This file uses centimeters as units for non-parametric coordinates.

mtllib plantas2.mtl
g default
v -0.030181 1.264909 7.158648
v 0.104861 1.334114 7.086446
v -0.040956 1.398716 7.060304
v 0.036010 1.320512 6.937278
v -0.007640 1.377893 7.022899
v 0.079825 1.339143 7.038579
v -0.038130 1.359271 7.112081
v 0.050079 1.320191 7.127894
v 0.026635 1.329407 7.011111
v 0.021850 1.334549 7.050429
v -0.008381 1.315509 7.133840
v 0.008299 1.332777 7.089293
v -0.042425 1.389435 7.078357
v 0.081941 1.332328 7.102994
v -0.004754 1.313902 7.134490
v -0.018167 1.271237 7.152417
v -0.025914 1.319788 7.115981
v -0.005458 1.325289 7.102666
v 0.007907 1.318625 7.105927
v 0.027246 1.316566 7.132577
v 0.036284 1.312925 7.135048
v -0.037017 1.347634 7.120299
v 0.000015 1.326440 7.116029
v 0.001772 1.325564 7.116457
v 0.067239 1.326728 7.114484
v -0.040073 1.372920 7.096821
v -0.041985 1.249245 7.158858
v -0.223144 1.389593 7.120941
v -0.063113 1.446684 7.276223
v -0.290574 1.393904 7.359445
v -0.129823 1.442686 7.292034
v -0.238816 1.403803 7.186275
v -0.044680 1.372526 7.217092
v -0.141486 1.337990 7.123158
v -0.204255 1.381347 7.275276
v -0.158366 1.375354 7.230220
v -0.085706 1.316288 7.176997
v -0.124237 1.354974 7.202520
v -0.057030 1.422207 7.256706
v -0.192304 1.370104 7.121778
v -0.089686 1.314867 7.173135
v -0.057802 1.262867 7.154734
v -0.069695 1.320565 7.204056
v -0.100938 1.337291 7.200329
v -0.115156 1.330797 7.185176
v -0.114264 1.325629 7.138483
v -0.123323 1.322350 7.127893
v -0.043384 1.354564 7.207614
v -0.101981 1.337835 7.185867
v -0.103850 1.336982 7.183876
v -0.168857 1.355286 7.122415
v -0.050268 1.395006 7.235018
v -0.053766 1.244222 7.195772
v 0.108733 1.563061 7.063554
v -0.216264 1.563061 7.063554
v -0.053766 1.566814 6.753581
v -0.164441 1.580723 6.983529
v 0.056910 1.580723 6.983529
v -0.152065 1.462315 7.129434
v 0.044535 1.462315 7.129434
v -0.053929 1.527184 6.920074
v -0.053961 1.507076 7.009027
v -0.053906 1.405895 7.122562
v -0.053942 1.469852 7.066422
v -0.195075 1.529808 7.085299
v 0.084488 1.525013 7.088435
v -0.045823 1.405895 7.122562
v -0.039079 1.269081 7.187463
v -0.096896 1.402632 7.110379
v -0.068534 1.437412 7.087635
v -0.037868 1.435638 7.088795
v 0.007543 1.433630 7.137120
v 0.027672 1.433773 7.138975
v -0.138021 1.438540 7.137381
v -0.053924 1.440195 7.101726
v -0.049893 1.439962 7.101878
v 0.066052 1.496082 7.107353
v -0.171527 1.492855 7.109463
v -0.021731 1.247296 7.139798
v -0.076365 1.512470 7.408545
v 0.140519 1.574764 7.109755
v 0.298724 1.565407 7.457232
v 0.174584 1.584335 7.230346
v 0.044490 1.546970 7.409568
v 0.053697 1.451797 7.098590
v -0.077502 1.414116 7.279336
v 0.169181 1.515972 7.352685
v 0.099779 1.490620 7.296983
v 0.004002 1.369466 7.187069
v 0.045175 1.445784 7.232813
v 0.111861 1.539555 7.097013
v -0.076795 1.480322 7.351333
v -0.001392 1.367917 7.194500
v -0.028022 1.273231 7.161840
v 0.044496 1.374825 7.155514
v 0.040751 1.410364 7.201152
v 0.019513 1.402397 7.228347
v -0.055107 1.388159 7.236773
v -0.070279 1.384336 7.254026
v 0.040967 1.421608 7.103334
v 0.017515 1.409769 7.205254
v 0.014724 1.408722 7.208828
v -0.077121 1.449774 7.318112
v 0.080016 1.491508 7.097877
vt 0.499678 0.500322
vt 0.768565 0.231435
vt 0.835635 0.469322
vt 0.652449 0.652508
vt 0.653889 0.196903
vt 0.433973 0.434556
vt 0.978698 0.977513
vt 0.385170 0.115985
vt 0.464925 0.140001
vt 0.403787 0.201139
vt 0.469808 0.835150
vt 0.231435 0.768565
vt 0.167719 0.556973
vt 0.140001 0.464925
vt 0.231180 0.373746
vt 0.346252 0.395067
vt 0.119997 0.398493
vt 0.000000 0.000000
vt 0.302231 0.302695
vt 0.201256 0.668345
vt 0.393456 0.340909
vt 0.566697 0.170647
vt 0.368741 0.369265
vt 0.374945 0.362147
vt 0.315590 0.289336
vt 0.069460 0.020916
vt 0.499678 0.500322
vt 0.768565 0.231435
vt 0.835635 0.469322
vt 0.652449 0.652508
vt 0.653889 0.196903
vt 0.433973 0.434556
vt 0.978698 0.977513
vt 0.385170 0.115985
vt 0.464925 0.140001
vt 0.403787 0.201139
vt 0.469808 0.835150
vt 0.231435 0.768565
vt 0.167719 0.556973
vt 0.140001 0.464925
vt 0.231180 0.373746
vt 0.346252 0.395067
vt 0.119997 0.398493
vt 0.000000 0.000000
vt 0.302231 0.302695
vt 0.201256 0.668345
vt 0.393456 0.340909
vt 0.566697 0.170647
vt 0.368741 0.369265
vt 0.374945 0.362147
vt 0.315590 0.289336
vt 0.069460 0.020916
vt 0.499678 0.500322
vt 0.768565 0.231435
vt 0.835635 0.469322
vt 0.652449 0.652508
vt 0.653889 0.196903
vt 0.433973 0.434556
vt 0.978698 0.977513
vt 0.385170 0.115985
vt 0.464925 0.140001
vt 0.403787 0.201139
vt 0.469808 0.835150
vt 0.231435 0.768565
vt 0.167719 0.556973
vt 0.140001 0.464925
vt 0.231180 0.373746
vt 0.346252 0.395067
vt 0.119997 0.398493
vt 0.000000 0.000000
vt 0.302231 0.302695
vt 0.201256 0.668345
vt 0.393456 0.340909
vt 0.566697 0.170647
vt 0.368741 0.369265
vt 0.374945 0.362147
vt 0.315590 0.289336
vt 0.069460 0.020916
vt 0.499678 0.500322
vt 0.768565 0.231435
vt 0.835635 0.469322
vt 0.652449 0.652508
vt 0.653889 0.196903
vt 0.433973 0.434556
vt 0.978698 0.977513
vt 0.385170 0.115985
vt 0.464925 0.140001
vt 0.403787 0.201139
vt 0.469808 0.835150
vt 0.231435 0.768565
vt 0.167719 0.556973
vt 0.140001 0.464925
vt 0.231180 0.373746
vt 0.346252 0.395067
vt 0.119997 0.398493
vt 0.000000 0.000000
vt 0.302231 0.302695
vt 0.201256 0.668345
vt 0.393456 0.340909
vt 0.566697 0.170647
vt 0.368741 0.369265
vt 0.374945 0.362147
vt 0.315590 0.289336
vt 0.069460 0.020916
vn -0.051666 0.990032 0.131025
vn -0.051666 0.990032 0.131025
vn -0.051666 0.990032 0.131025
vn -0.076800 0.996893 0.017477
vn 0.414286 0.908086 -0.061221
vn 0.376355 0.921708 0.093867
vn -0.032599 0.987975 0.151136
vn -0.036159 0.994785 0.095365
vn 0.376355 0.921708 0.093867
vn 0.376355 0.921708 0.093867
vn 0.315420 0.841371 0.438869
vn -0.032599 0.987975 0.151136
vn -0.076800 0.996893 0.017477
vn 0.412854 0.909007 -0.057081
vn 0.414286 0.908086 -0.061221
vn 0.012305 0.582257 0.812912
vn -0.058939 0.907772 0.415303
vn -0.076651 0.793345 0.603927
vn 0.412854 0.909007 -0.057081
vn 0.762860 0.624176 0.168668
vn 0.414286 0.908086 -0.061221
vn 0.762860 0.624176 0.168668
vn 0.697738 0.630649 0.339770
vn 0.376355 0.921708 0.093867
vn 0.376355 0.921708 0.093867
vn 0.414286 0.908086 -0.061221
vn 0.762860 0.624176 0.168668
vn 0.644202 0.554480 0.526836
vn 0.933588 0.307085 0.184697
vn 0.447945 0.625605 0.638721
vn 0.447945 0.625605 0.638721
vn 0.025768 0.834921 0.549766
vn 0.644202 0.554480 0.526836
vn 0.447945 0.625605 0.638721
vn 0.889773 0.301635 0.342520
vn 0.203877 0.436523 0.876289
vn 0.203877 0.436523 0.876289
vn -0.146710 0.716523 0.681961
vn 0.447945 0.625605 0.638721
vn 0.376355 0.921708 0.093867
vn 0.697738 0.630649 0.339770
vn 0.666381 0.633810 0.392710
vn 0.666381 0.633810 0.392710
vn 0.315420 0.841371 0.438869
vn 0.376355 0.921708 0.093867
vn 0.315420 0.841371 0.438869
vn 0.374453 0.804499 0.461050
vn -0.096525 0.924053 0.369876
vn -0.096525 0.924053 0.369876
vn -0.032599 0.987975 0.151136
vn 0.315420 0.841371 0.438869
vn 0.315420 0.841371 0.438869
vn -0.127369 0.927347 0.351860
vn 0.650468 0.589424 0.479030
vn 0.130361 0.630347 0.765290
vn -0.146710 0.716523 0.681961
vn 0.203877 0.436523 0.876289
vn 0.203877 0.436523 0.876289
vn 0.261899 0.305025 0.915625
vn 0.130361 0.630347 0.765290
vn -0.127369 0.927347 0.351860
vn 0.315420 0.841371 0.438869
vn 0.025768 0.834921 0.549766
vn 0.315420 0.841371 0.438869
vn 0.650468 0.589424 0.479030
vn 0.374453 0.804499 0.461050
vn -0.076651 0.793345 0.603927
vn 0.130361 0.630347 0.765290
vn 0.261899 0.305025 0.915625
vn 0.261899 0.305025 0.915625
vn 0.012305 0.582257 0.812912
vn -0.076651 0.793345 0.603927
vn 0.447945 0.625605 0.638721
vn 0.933588 0.307085 0.184697
vn 0.889773 0.301635 0.342520
vn -0.146710 0.716523 0.681961
vn -0.127369 0.927347 0.351860
vn 0.025768 0.834921 0.549766
vn 0.025768 0.834921 0.549766
vn 0.447945 0.625605 0.638721
vn -0.146710 0.716523 0.681961
vn 0.130361 0.630347 0.765290
vn 0.650468 0.589424 0.479030
vn -0.127369 0.927347 0.351860
vn -0.127369 0.927347 0.351860
vn -0.146710 0.716523 0.681961
vn 0.130361 0.630347 0.765290
vn 0.130361 0.630347 0.765290
vn -0.076651 0.793345 0.603927
vn 0.374453 0.804499 0.461050
vn 0.374453 0.804499 0.461050
vn 0.650468 0.589424 0.479030
vn 0.130361 0.630347 0.765290
vn -0.076651 0.793345 0.603927
vn -0.058939 0.907772 0.415303
vn -0.096525 0.924053 0.369876
vn -0.096525 0.924053 0.369876
vn 0.374453 0.804499 0.461050
vn -0.076651 0.793345 0.603927
vn 0.315420 0.841371 0.438869
vn 0.666381 0.633810 0.392710
vn 0.644202 0.554480 0.526836
vn 0.644202 0.554480 0.526836
vn 0.025768 0.834921 0.549766
vn 0.315420 0.841371 0.438869
vn 0.383183 0.917383 -0.107605
vn 0.383183 0.917383 -0.107605
vn 0.383183 0.917383 -0.107605
vn 0.335300 0.942111 -0.000888
vn -0.106064 0.963391 -0.246228
vn 0.050558 0.918518 -0.392132
vn 0.507752 0.832162 -0.222923
vn 0.465250 0.870153 -0.162405
vn 0.050558 0.918518 -0.392132
vn 0.050558 0.918518 -0.392132
vn 0.298519 0.750724 -0.589322
vn 0.507752 0.832162 -0.222923
vn 0.335300 0.942111 -0.000888
vn -0.102270 0.963193 -0.248596
vn -0.106064 0.963391 -0.246228
vn 0.602115 0.455006 -0.656070
vn 0.535709 0.780612 -0.321963
vn 0.620714 0.674592 -0.399549
vn -0.102270 0.963193 -0.248596
vn -0.313264 0.709845 -0.630862
vn -0.106064 0.963391 -0.246228
vn -0.313264 0.709845 -0.630862
vn -0.132927 0.656425 -0.742588
vn 0.050558 0.918518 -0.392132
vn 0.050558 0.918518 -0.392132
vn -0.106064 0.963391 -0.246228
vn -0.313264 0.709845 -0.630862
vn -0.025981 0.549980 -0.834774
vn -0.515199 0.433500 -0.739356
vn 0.120935 0.553035 -0.824334
vn 0.120935 0.553035 -0.824334
vn 0.509403 0.648891 -0.565198
vn -0.025981 0.549980 -0.834774
vn 0.120935 0.553035 -0.824334
vn -0.403001 0.398113 -0.824073
vn 0.405527 0.589665 -0.698457
vn 0.405527 0.589665 -0.698457
vn 0.553437 0.620855 -0.555199
vn 0.120935 0.553035 -0.824334
vn 0.050558 0.918518 -0.392132
vn -0.132927 0.656425 -0.742588
vn -0.063361 0.628184 -0.775480
vn -0.063361 0.628184 -0.775480
vn 0.298519 0.750724 -0.589322
vn 0.050558 0.918518 -0.392132
vn 0.298519 0.750724 -0.589322
vn 0.270476 0.733468 -0.623593
vn 0.541580 0.798225 -0.263682
vn 0.541580 0.798225 -0.263682
vn 0.507752 0.832162 -0.222923
vn 0.298519 0.750724 -0.589322
vn 0.298519 0.750724 -0.589322
vn 0.554729 0.753839 -0.352139
vn 0.036654 0.583876 -0.811015
vn 0.546273 0.653763 -0.523621
vn 0.553437 0.620855 -0.555199
vn 0.405527 0.589665 -0.698457
vn 0.405527 0.589665 -0.698457
vn 0.650273 0.567403 -0.505173
vn 0.546273 0.653763 -0.523621
vn 0.554729 0.753839 -0.352139
vn 0.298519 0.750724 -0.589322
vn 0.509403 0.648891 -0.565198
vn 0.298519 0.750724 -0.589322
vn 0.036654 0.583876 -0.811015
vn 0.270476 0.733468 -0.623593
vn 0.620714 0.674592 -0.399549
vn 0.546273 0.653763 -0.523621
vn 0.650273 0.567403 -0.505173
vn 0.650273 0.567403 -0.505173
vn 0.602115 0.455006 -0.656070
vn 0.620714 0.674592 -0.399549
vn 0.120935 0.553035 -0.824334
vn -0.515199 0.433500 -0.739356
vn -0.403001 0.398113 -0.824073
vn 0.553437 0.620855 -0.555199
vn 0.554729 0.753839 -0.352139
vn 0.509403 0.648891 -0.565198
vn 0.509403 0.648891 -0.565198
vn 0.120935 0.553035 -0.824334
vn 0.553437 0.620855 -0.555199
vn 0.546273 0.653763 -0.523621
vn 0.036654 0.583876 -0.811015
vn 0.554729 0.753839 -0.352139
vn 0.554729 0.753839 -0.352139
vn 0.553437 0.620855 -0.555199
vn 0.546273 0.653763 -0.523621
vn 0.546273 0.653763 -0.523621
vn 0.620714 0.674592 -0.399549
vn 0.270476 0.733468 -0.623593
vn 0.270476 0.733468 -0.623593
vn 0.036654 0.583876 -0.811015
vn 0.546273 0.653763 -0.523621
vn 0.620714 0.674592 -0.399549
vn 0.535709 0.780612 -0.321963
vn 0.541580 0.798225 -0.263682
vn 0.541580 0.798225 -0.263682
vn 0.270476 0.733468 -0.623593
vn 0.620714 0.674592 -0.399549
vn 0.298519 0.750724 -0.589322
vn -0.063361 0.628184 -0.775480
vn -0.025981 0.549980 -0.834774
vn -0.025981 0.549980 -0.834774
vn 0.509403 0.648891 -0.565198
vn 0.298519 0.750724 -0.589322
vn 0.001570 0.901113 0.433581
vn -0.429727 0.726433 0.536312
vn -0.466189 0.816857 0.339724
vn -0.466189 0.816857 0.339724
vn 0.000901 0.973821 0.227316
vn 0.001570 0.901113 0.433581
vn -0.409026 0.683587 0.604489
vn -0.429727 0.726433 0.536312
vn 0.001570 0.901113 0.433581
vn 0.001570 0.901113 0.433581
vn 0.003822 0.690284 0.723529
vn -0.409026 0.683587 0.604489
vn -0.466189 0.816857 0.339724
vn -0.000089 0.972819 0.231566
vn 0.000901 0.973821 0.227316
vn -0.088533 0.344505 0.934601
vn -0.348864 0.634675 0.689552
vn -0.335462 0.528875 0.779587
vn -0.000089 0.972819 0.231566
vn 0.467324 0.816054 0.340095
vn 0.000901 0.973821 0.227316
vn 0.467324 0.816054 0.340095
vn 0.430568 0.726097 0.536092
vn 0.001570 0.901113 0.433581
vn 0.001570 0.901113 0.433581
vn 0.000901 0.973821 0.227316
vn 0.467324 0.816054 0.340095
vn 0.444807 0.602997 0.662225
vn 0.749454 0.612630 0.251003
vn 0.316763 0.530238 0.786453
vn 0.316763 0.530238 0.786453
vn -0.133813 0.534730 0.834361
vn 0.444807 0.602997 0.662225
vn 0.316763 0.530238 0.786453
vn 0.737646 0.537328 0.408848
vn 0.024014 0.470658 0.881989
vn 0.024014 0.470658 0.881989
vn -0.165266 0.491107 0.855278
vn 0.316763 0.530238 0.786453
vn 0.001570 0.901113 0.433581
vn 0.430568 0.726097 0.536092
vn 0.411397 0.683233 0.603278
vn 0.411397 0.683233 0.603278
vn 0.003822 0.690284 0.723529
vn 0.001570 0.901113 0.433581
vn 0.003822 0.690284 0.723529
vn 0.050719 0.683886 0.727823
vn -0.396631 0.645331 0.652864
vn -0.396631 0.645331 0.652864
vn -0.409026 0.683587 0.604489
vn 0.003822 0.690284 0.723529
vn 0.003822 0.690284 0.723529
vn -0.335091 0.606360 0.721139
vn 0.376823 0.617095 0.690795
vn -0.185799 0.520472 0.833420
vn -0.165266 0.491107 0.855278
vn 0.024014 0.470658 0.881989
vn 0.024014 0.470658 0.881989
vn -0.217125 0.405843 0.887777
vn -0.185799 0.520472 0.833420
vn -0.335091 0.606360 0.721139
vn 0.003822 0.690284 0.723529
vn -0.133813 0.534730 0.834361
vn 0.003822 0.690284 0.723529
vn 0.376823 0.617095 0.690795
vn 0.050719 0.683886 0.727823
vn -0.335462 0.528875 0.779587
vn -0.185799 0.520472 0.833420
vn -0.217125 0.405843 0.887777
vn -0.217125 0.405843 0.887777
vn -0.088533 0.344505 0.934601
vn -0.335462 0.528875 0.779587
vn 0.316763 0.530238 0.786453
vn 0.749454 0.612630 0.251003
vn 0.737646 0.537328 0.408848
vn -0.165266 0.491107 0.855278
vn -0.335091 0.606360 0.721139
vn -0.133813 0.534730 0.834361
vn -0.133813 0.534730 0.834361
vn 0.316763 0.530238 0.786453
vn -0.165266 0.491107 0.855278
vn -0.185799 0.520472 0.833420
vn 0.376823 0.617095 0.690795
vn -0.335091 0.606360 0.721139
vn -0.335091 0.606360 0.721139
vn -0.165266 0.491107 0.855278
vn -0.185799 0.520472 0.833420
vn -0.185799 0.520472 0.833420
vn -0.335462 0.528875 0.779587
vn 0.050719 0.683886 0.727823
vn 0.050719 0.683886 0.727823
vn 0.376823 0.617095 0.690795
vn -0.185799 0.520472 0.833420
vn -0.335462 0.528875 0.779587
vn -0.348864 0.634675 0.689552
vn -0.396631 0.645331 0.652864
vn -0.396631 0.645331 0.652864
vn 0.050719 0.683886 0.727823
vn -0.335462 0.528875 0.779587
vn 0.003822 0.690284 0.723529
vn 0.411397 0.683233 0.603278
vn 0.444807 0.602997 0.662225
vn 0.444807 0.602997 0.662225
vn -0.133813 0.534730 0.834361
vn 0.003822 0.690284 0.723529
vn -0.229783 0.820457 -0.523498
vn -0.229783 0.820457 -0.523498
vn -0.229783 0.820457 -0.523498
vn -0.124584 0.860694 -0.493644
vn -0.324590 0.945114 -0.037446
vn -0.430956 0.890767 -0.144259
vn -0.256515 0.816605 -0.517066
vn -0.210352 0.841848 -0.497035
vn -0.430956 0.890767 -0.144259
vn -0.430956 0.890767 -0.144259
vn -0.668659 0.670274 -0.321914
vn -0.256515 0.816605 -0.517066
vn -0.124584 0.860694 -0.493644
vn -0.327279 0.944044 -0.040862
vn -0.324590 0.945114 -0.037446
vn -0.750141 0.285906 -0.596277
vn -0.443362 0.642436 -0.625065
vn -0.518346 0.517065 -0.681147
vn -0.327279 0.944044 -0.040862
vn -0.664072 0.704989 0.248997
vn -0.324590 0.945114 -0.037446
vn -0.664072 0.704989 0.248997
vn -0.766951 0.631004 0.116706
vn -0.430956 0.890767 -0.144259
vn -0.430956 0.890767 -0.144259
vn -0.324590 0.945114 -0.037446
vn -0.664072 0.704989 0.248997
vn -0.876563 0.480813 0.021370
vn -0.724609 0.463664 0.509860
vn -0.880448 0.457624 -0.124061
vn -0.880448 0.457624 -0.124061
vn -0.669526 0.499811 -0.549477
vn -0.876563 0.480813 0.021370
vn -0.880448 0.457624 -0.124061
vn -0.815886 0.401990 0.415612
vn -0.786159 0.450777 -0.422794
vn -0.786159 0.450777 -0.422794
vn -0.661159 0.465002 -0.588763
vn -0.880448 0.457624 -0.124061
vn -0.430956 0.890767 -0.144259
vn -0.766951 0.631004 0.116706
vn -0.792628 0.606061 0.066560
vn -0.792628 0.606061 0.066560
vn -0.668659 0.670274 -0.321914
vn -0.430956 0.890767 -0.144259
vn -0.668659 0.670274 -0.321914
vn -0.712677 0.622161 -0.324049
vn -0.387818 0.663018 -0.640316
vn -0.387818 0.663018 -0.640316
vn -0.256515 0.816605 -0.517066
vn -0.668659 0.670274 -0.321914
vn -0.668659 0.670274 -0.321914
vn -0.472553 0.610427 -0.635667
vn -0.862151 0.504329 -0.048458
vn -0.632280 0.500954 -0.590988
vn -0.661159 0.465002 -0.588763
vn -0.786159 0.450777 -0.422794
vn -0.786159 0.450777 -0.422794
vn -0.615743 0.398611 -0.679684
vn -0.632280 0.500954 -0.590988
vn -0.472553 0.610427 -0.635667
vn -0.668659 0.670274 -0.321914
vn -0.669526 0.499811 -0.549477
vn -0.668659 0.670274 -0.321914
vn -0.862151 0.504329 -0.048458
vn -0.712677 0.622161 -0.324049
vn -0.518346 0.517065 -0.681147
vn -0.632280 0.500954 -0.590988
vn -0.615743 0.398611 -0.679684
vn -0.615743 0.398611 -0.679684
vn -0.750141 0.285906 -0.596277
vn -0.518346 0.517065 -0.681147
vn -0.880448 0.457624 -0.124061
vn -0.724609 0.463664 0.509860
vn -0.815886 0.401990 0.415612
vn -0.661159 0.465002 -0.588763
vn -0.472553 0.610427 -0.635667
vn -0.669526 0.499811 -0.549477
vn -0.669526 0.499811 -0.549477
vn -0.880448 0.457624 -0.124061
vn -0.661159 0.465002 -0.588763
vn -0.632280 0.500954 -0.590988
vn -0.862151 0.504329 -0.048458
vn -0.472553 0.610427 -0.635667
vn -0.472553 0.610427 -0.635667
vn -0.661159 0.465002 -0.588763
vn -0.632280 0.500954 -0.590988
vn -0.632280 0.500954 -0.590988
vn -0.518346 0.517065 -0.681147
vn -0.712677 0.622161 -0.324049
vn -0.712677 0.622161 -0.324049
vn -0.862151 0.504329 -0.048458
vn -0.632280 0.500954 -0.590988
vn -0.518346 0.517065 -0.681147
vn -0.443362 0.642436 -0.625065
vn -0.387818 0.663018 -0.640316
vn -0.387818 0.663018 -0.640316
vn -0.712677 0.622161 -0.324049
vn -0.518346 0.517065 -0.681147
vn -0.668659 0.670274 -0.321914
vn -0.792628 0.606061 0.066560
vn -0.876563 0.480813 0.021370
vn -0.876563 0.480813 0.021370
vn -0.669526 0.499811 -0.549477
vn -0.668659 0.670274 -0.321914
s off
g BushObj1:Plane04
usemtl pasted__phong4SG
f 10/1/1 2/2/2 6/3/3
f 6/3/4 9/4/5 10/1/6
f 14/5/7 2/2/8 10/1/9
f 10/1/10 12/6/11 14/5/12
f 6/3/13 4/7/14 9/4/15
f 21/8/16 8/9/17 20/10/18
f 4/7/19 5/11/20 9/4/21
f 5/11/22 3/12/23 10/1/24
f 10/1/25 9/4/26 5/11/27
f 26/13/28 7/14/29 17/15/30
f 17/15/31 18/16/32 26/13/33
f 17/15/34 22/17/35 1/18/36
f 1/18/37 11/19/38 17/15/39
f 10/1/40 3/12/41 13/20/42
f 13/20/43 12/6/44 10/1/45
f 12/6/46 19/21/47 25/22/48
f 25/22/49 14/5/50 12/6/51
f 12/6/52 23/23/53 24/24/54
f 15/25/55 11/19/56 1/18/57
f 1/18/58 16/26/59 15/25/60
f 23/23/61 12/6/62 18/16/63
f 12/6/64 24/24/65 19/21/66
f 20/10/67 15/25/68 16/26/69
f 16/26/70 21/8/71 20/10/72
f 17/15/73 7/14/74 22/17/75
f 11/19/76 23/23/77 18/16/78
f 18/16/79 17/15/80 11/19/81
f 15/25/82 24/24/83 23/23/84
f 23/23/85 11/19/86 15/25/87
f 15/25/88 20/10/89 19/21/90
f 19/21/91 24/24/92 15/25/93
f 20/10/94 8/9/95 25/22/96
f 25/22/97 19/21/98 20/10/99
f 12/6/100 13/20/101 26/13/102
f 26/13/103 18/16/104 12/6/105
f 36/27/106 28/28/107 32/29/108
f 32/29/109 35/30/110 36/27/111
f 40/31/112 28/28/113 36/27/114
f 36/27/115 38/32/116 40/31/117
f 32/29/118 30/33/119 35/30/120
f 47/34/121 34/35/122 46/36/123
f 30/33/124 31/37/125 35/30/126
f 31/37/127 29/38/128 36/27/129
f 36/27/130 35/30/131 31/37/132
f 52/39/133 33/40/134 43/41/135
f 43/41/136 44/42/137 52/39/138
f 43/41/139 48/43/140 27/44/141
f 27/44/142 37/45/143 43/41/144
f 36/27/145 29/38/146 39/46/147
f 39/46/148 38/32/149 36/27/150
f 38/32/151 45/47/152 51/48/153
f 51/48/154 40/31/155 38/32/156
f 38/32/157 49/49/158 50/50/159
f 41/51/160 37/45/161 27/44/162
f 27/44/163 42/52/164 41/51/165
f 49/49/166 38/32/167 44/42/168
f 38/32/169 50/50/170 45/47/171
f 46/36/172 41/51/173 42/52/174
f 42/52/175 47/34/176 46/36/177
f 43/41/178 33/40/179 48/43/180
f 37/45/181 49/49/182 44/42/183
f 44/42/184 43/41/185 37/45/186
f 41/51/187 50/50/188 49/49/189
f 49/49/190 37/45/191 41/51/192
f 41/51/193 46/36/194 45/47/195
f 45/47/196 50/50/197 41/51/198
f 46/36/199 34/35/200 51/48/201
f 51/48/202 45/47/203 46/36/204
f 38/32/205 39/46/206 52/39/207
f 52/39/208 44/42/209 38/32/210
f 62/53/211 54/54/212 58/55/213
f 58/55/214 61/56/215 62/53/216
f 66/57/217 54/54/218 62/53/219
f 62/53/220 64/58/221 66/57/222
f 58/55/223 56/59/224 61/56/225
f 73/60/226 60/61/227 72/62/228
f 56/59/229 57/63/230 61/56/231
f 57/63/232 55/64/233 62/53/234
f 62/53/235 61/56/236 57/63/237
f 78/65/238 59/66/239 69/67/240
f 69/67/241 70/68/242 78/65/243
f 69/67/244 74/69/245 53/70/246
f 53/70/247 63/71/248 69/67/249
f 62/53/250 55/64/251 65/72/252
f 65/72/253 64/58/254 62/53/255
f 64/58/256 71/73/257 77/74/258
f 77/74/259 66/57/260 64/58/261
f 64/58/262 75/75/263 76/76/264
f 67/77/265 63/71/266 53/70/267
f 53/70/268 68/78/269 67/77/270
f 75/75/271 64/58/272 70/68/273
f 64/58/274 76/76/275 71/73/276
f 72/62/277 67/77/278 68/78/279
f 68/78/280 73/60/281 72/62/282
f 69/67/283 59/66/284 74/69/285
f 63/71/286 75/75/287 70/68/288
f 70/68/289 69/67/290 63/71/291
f 67/77/292 76/76/293 75/75/294
f 75/75/295 63/71/296 67/77/297
f 67/77/298 72/62/299 71/73/300
f 71/73/301 76/76/302 67/77/303
f 72/62/304 60/61/305 77/74/306
f 77/74/307 71/73/308 72/62/309
f 64/58/310 65/72/311 78/65/312
f 78/65/313 70/68/314 64/58/315
f 88/79/316 80/80/317 84/81/318
f 84/81/319 87/82/320 88/79/321
f 92/83/322 80/80/323 88/79/324
f 88/79/325 90/84/326 92/83/327
f 84/81/328 82/85/329 87/82/330
f 99/86/331 86/87/332 98/88/333
f 82/85/334 83/89/335 87/82/336
f 83/89/337 81/90/338 88/79/339
f 88/79/340 87/82/341 83/89/342
f 104/91/343 85/92/344 95/93/345
f 95/93/346 96/94/347 104/91/348
f 95/93/349 100/95/350 79/96/351
f 79/96/352 89/97/353 95/93/354
f 88/79/355 81/90/356 91/98/357
f 91/98/358 90/84/359 88/79/360
f 90/84/361 97/99/362 103/100/363
f 103/100/364 92/83/365 90/84/366
f 90/84/367 101/101/368 102/102/369
f 93/103/370 89/97/371 79/96/372
f 79/96/373 94/104/374 93/103/375
f 101/101/376 90/84/377 96/94/378
f 90/84/379 102/102/380 97/99/381
f 98/88/382 93/103/383 94/104/384
f 94/104/385 99/86/386 98/88/387
f 95/93/388 85/92/389 100/95/390
f 89/97/391 101/101/392 96/94/393
f 96/94/394 95/93/395 89/97/396
f 93/103/397 102/102/398 101/101/399
f 101/101/400 89/97/401 93/103/402
f 93/103/403 98/88/404 97/99/405
f 97/99/406 102/102/407 93/103/408
f 98/88/409 86/87/410 103/100/411
f 103/100/412 97/99/413 98/88/414
f 90/84/415 91/98/416 104/91/417
f 104/91/418 96/94/419 90/84/420
