# This file uses centimeters as units for non-parametric coordinates.

mtllib Center.mtl
g default
v 2.288113 5.558388 -7.036952
v 1.191490 5.558388 -7.036952
v 1.191490 0.787834 -7.036952
v 2.288113 0.787834 -7.036952
v 1.876338 0.787834 -9.103861
v 1.876338 5.558388 -9.103861
v 5.757604 5.558388 -9.103861
v 5.757604 0.787834 -9.103861
v 4.265157 5.558388 -6.218034
v 4.265157 0.787834 -6.218034
v -5.084075 0.787834 3.283287
v -7.323299 0.787834 3.283287
v -7.323299 5.558388 3.283287
v -5.084075 5.558388 3.283287
v 7.273646 5.558388 -7.587821
v 7.273646 0.787834 -7.587821
v -7.323299 0.787834 7.832019
v -7.323299 5.558388 7.832019
v -5.084075 0.787834 4.294188
v -5.084075 5.558388 4.294188
v 5.084075 5.558388 -4.240991
v 5.084075 0.787834 -4.240991
v -4.265157 0.787834 6.271231
v -4.265157 5.558388 6.271231
v 5.084075 0.787834 -3.039089
v 5.084075 5.558388 -3.039089
v 7.273646 0.787834 -3.039089
v 7.273646 5.558388 -3.039089
v -5.807258 0.787834 9.348061
v -5.807258 5.558388 9.348061
v -2.288113 0.787834 7.090149
v -2.288113 5.558388 7.090149
v -1.241144 5.558388 7.090149
v -1.241144 0.787834 7.090149
v -1.925993 0.787834 9.348061
v -1.925993 5.558388 9.348061
v -1.241144 5.558388 8.663212
v -1.241144 0.787834 8.663212
v 2.288113 0.787834 7.090149
v 1.103479 0.787834 7.090149
v 1.103479 5.558388 7.090149
v 2.288113 5.558388 7.090149
v 5.084075 5.558388 4.294188
v 5.084075 5.558388 3.283287
v 5.084075 0.787834 3.283287
v 5.084075 0.787834 4.294188
v 1.103479 0.787834 8.663212
v 1.103479 5.558388 8.663212
v 7.185635 5.558388 3.283287
v 7.185635 0.787834 3.283287
v 4.265157 0.787834 6.271231
v 4.265157 5.558388 6.271231
v 1.788328 0.787834 9.348061
v 1.788328 5.558388 9.348061
v 7.185635 5.558388 7.832019
v 7.185635 0.787834 7.832019
v 5.669594 0.787834 9.348061
v 5.669594 5.558388 9.348061
v 1.191490 0.787834 -8.419014
v 1.191490 5.558388 -8.419014
v -5.084075 5.558388 -4.240991
v -5.084075 5.558388 -3.039089
v -5.084075 0.787834 -3.039089
v -5.084075 0.787834 -4.240991
v -2.288113 0.787834 -7.036952
v -1.241144 0.787834 -7.036952
v -1.241144 5.558388 -7.036952
v -2.288113 5.558388 -7.036952
v -1.241144 0.787834 -8.419014
v -1.241144 5.558388 -8.419014
v -7.323299 5.558388 -3.039089
v -7.323299 0.787834 -3.039089
v -4.265157 5.558388 -6.218034
v -4.265157 0.787834 -6.218034
v -1.925993 5.558388 -9.103861
v -1.925993 0.787834 -9.103861
v -7.323299 5.558388 -7.587821
v -7.323299 0.787834 -7.587821
v -5.807258 0.787834 -9.103861
v -5.807258 5.558388 -9.103861
v -5.084075 0.794917 4.294188
v -2.288113 0.794917 7.090149
v -4.265157 0.794917 6.271231
v -5.084075 6.819959 4.294188
v -4.265157 6.819959 6.271231
v -2.288113 6.819959 7.090149
v 5.084075 0.794917 4.294188
v 4.265157 0.794917 6.271231
v 2.288113 0.794917 7.090149
v 5.084075 6.819959 4.294188
v 2.288113 6.819959 7.090149
v 4.265157 6.819959 6.271231
v -4.265157 6.819959 -6.218034
v -5.084075 6.819959 -4.240991
v -2.288113 6.819959 -7.036952
v -5.084075 0.794917 -4.240991
v -4.265157 0.794917 -6.218034
v -2.288113 0.794917 -7.036952
v 4.265157 6.819959 -6.218034
v 2.288113 6.819959 -7.036952
v 5.084075 6.819959 -4.240991
v 5.084075 0.794917 -4.240991
v 2.288113 0.794917 -7.036952
v 4.265157 0.794917 -6.218034
vt 0.556257 0.547144
vt 0.529295 0.547144
vt 0.529295 0.626206
vt 0.556257 0.626206
vt 0.000000 0.887078
vt 0.000000 0.000000
vt 0.000000 1.000000
vt 0.112600 1.000000
vt 0.625000 0.547144
vt 0.625000 0.626206
vt -0.000000 1.000000
vt 0.368163 1.000000
vt 1.000000 0.000000
vt 0.000000 0.000000
vt 1.000000 1.000000
vt 0.750739 1.000000
vt 1.000000 0.000000
vt 1.000000 0.000000
vt 0.000000 0.000000
vt 0.000000 0.000000
vt 0.325521 0.123794
vt 0.307632 0.123794
vt 0.307632 0.202856
vt 0.325521 0.202856
vt 0.825521 0.202856
vt 0.875000 0.202856
vt 0.875000 0.123794
vt 0.825521 0.123794
vt 0.375000 0.123794
vt 0.375000 0.202856
vt 0.804252 0.123794
vt 0.804252 0.202856
vt 0.000000 0.000000
vt -0.000000 0.000000
vt 1.000000 0.000000
vt 1.000000 0.000000
vt 0.000000 1.000000
vt 0.000000 0.000000
vt 1.000000 1.000000
vt 0.000000 1.000000
vt 0.443743 0.123794
vt 0.443743 0.202856
vt 0.469485 0.202856
vt 0.469485 0.123794
vt -0.000000 0.000000
vt 1.000000 0.000000
vt 1.000000 1.000000
vt 1.000000 1.000000
vt -0.000000 1.000000
vt 0.000000 1.000000
vt 0.556257 0.123794
vt 0.527131 0.123794
vt 0.527131 0.202856
vt 0.556257 0.202856
vt 0.674479 0.202856
vt 0.692368 0.202856
vt 0.692368 0.123794
vt 0.674479 0.123794
vt 1.000000 0.000000
vt 0.000000 0.000000
vt 1.000000 0.000000
vt 0.000000 0.000000
vt 0.000000 1.000000
vt 1.000000 1.000000
vt 0.654471 1.000000
vt 1.000000 1.000000
vt 0.625000 0.123794
vt 0.625000 0.202856
vt 1.000000 1.000000
vt 0.000000 1.000000
vt 0.000000 0.000000
vt 1.000000 0.000000
vt 0.000000 1.000000
vt 0.000000 0.000000
vt 0.000000 1.000000
vt 0.000000 0.000000
vt 1.000000 0.750025
vt 1.000000 -0.000000
vt 0.640001 -0.000000
vt 0.640001 0.198178
vt 0.505358 0.524166
vt 0.180302 0.659194
vt 0.000000 0.659194
vt 0.000000 1.000000
vt 0.640001 -0.000000
vt 1.000000 -0.000000
vt 1.000000 0.750025
vt 0.750739 1.000000
vt 0.368163 0.833316
vt 0.502806 0.507328
vt 0.827862 0.372299
vt 1.000000 0.372299
vt 1.000000 0.112922
vt 0.887400 -0.000000
vt 0.249260 -0.000000
vt -0.000000 0.249975
vt -0.000000 0.249975
vt 0.249260 -0.000000
vt 0.887400 -0.000000
vt 1.000000 0.112922
vt 1.000000 0.372299
vt 0.827862 0.372299
vt 1.000000 0.249975
vt 0.750739 -0.000000
vt 0.112600 -0.000000
vt 0.000000 0.112922
vt 0.000000 0.372299
vt 0.194772 0.372299
vt 0.519828 0.507328
vt 0.654471 0.833316
vt 0.000000 0.112922
vt 0.112600 -0.000000
vt 0.750739 -0.000000
vt 1.000000 0.249975
vt 1.000000 1.000000
vt 0.654471 1.000000
vt 0.000000 1.000000
vt 1.000000 1.000000
vt 1.000000 0.000000
vt 0.000000 0.000000
vt 0.174479 0.202856
vt 0.195748 0.202856
vt 0.195748 0.123794
vt 0.174479 0.123794
vt 0.443743 0.626206
vt 0.469485 0.626206
vt 0.469484 0.547144
vt 0.443743 0.547144
vt 0.000000 0.000000
vt 1.000000 0.000000
vt 1.000000 1.000000
vt 0.000000 1.000000
vt 1.000000 1.000000
vt 0.000000 1.000000
vt 0.000000 0.000000
vt 1.000000 0.000000
vt 0.375000 0.547144
vt 0.375000 0.626206
vt 0.125000 0.202856
vt 0.125000 0.123794
vt -0.000000 1.000000
vt 1.000000 1.000000
vt -0.000000 0.750025
vt 0.249260 1.000000
vt 1.000000 1.000000
vt 1.000000 0.000000
vt 0.887400 1.000000
vt 0.000000 0.000000
vt 0.000000 1.000000
vt 1.000000 0.887078
vt -0.000000 -0.000000
vt 0.368163 -0.000000
vt 0.368163 0.198178
vt 0.502806 0.524166
vt 1.000000 0.659194
vt 0.827862 0.659194
vt 0.502806 0.524166
vt 0.368163 0.198178
vt 0.368163 -0.000000
vt -0.000000 -0.000000
vt 0.000000 0.000000
vt 1.000000 0.000000
vt 0.000000 1.000000
vt 0.000000 0.000000
vt 1.000000 0.802085
vt 0.000000 0.000000
vt -0.000000 1.000000
vt 1.000000 0.197915
vt -0.000000 0.000000
vt 1.000000 0.000000
vt 1.000000 1.000000
vt 0.000000 1.000000
vt -0.000000 1.000000
vt 1.000000 1.000000
vt 1.000000 0.000000
vt -0.000000 0.000000
vt 1.000000 1.000000
vt 0.000000 1.000000
vt -0.000000 0.000000
vt 1.000000 0.000000
vt 1.000000 0.000000
vt -0.000000 0.000000
vt 0.000000 1.000000
vt 0.919462 0.057968
vt 1.000000 1.000000
vt 0.725028 0.000000
vt 0.000000 0.000000
vt 1.000000 0.000000
vt 0.919462 0.942032
vt 0.725028 1.000000
vt 0.274972 1.000000
vt 0.080538 0.942032
vt 0.274972 0.000000
vt 0.080538 0.057968
vt 0.000000 0.197915
vt 0.000000 0.802085
vt 0.080538 0.942032
vt 0.274972 1.000000
vt 0.725028 1.000000
vt 0.919462 0.942032
vt 0.000000 0.802085
vt 0.000000 0.197915
vt 0.080538 0.057968
vt 0.274972 0.000000
vt 0.725028 0.000000
vt 0.919462 0.057968
vt 1.000000 0.197915
vt 1.000000 0.802085
vt 0.827862 0.659194
vt 1.000000 0.659194
vt 1.000000 0.887078
vt 0.887400 1.000000
vt 0.249260 1.000000
vt -0.000000 0.750025
vt 0.502806 0.507328
vt 0.368163 0.833316
vt 0.368163 1.000000
vt -0.000000 1.000000
vt 0.654471 0.833316
vt 0.519828 0.507328
vt 0.194772 0.372299
vt 0.000000 0.372299
vt 0.112600 1.000000
vt 0.000000 0.887078
vt 0.000000 0.659194
vt 0.180302 0.659194
vt 0.505358 0.524166
vt 0.640001 0.198178
vt 1.000000 1.000000
vt 1.000000 0.000000
vt 0.000000 0.000000
vt 0.000000 1.000000
vt -0.000000 1.000000
vt 1.000000 1.000000
vt 0.000000 1.000000
vt 1.000000 1.000000
vt 0.000000 1.000000
vt 1.000000 1.000000
vt -0.000000 0.000000
vt -0.000000 1.000000
vt 1.000000 1.000000
vt 1.000000 0.000000
vt 0.000000 0.000000
vt 0.000000 1.000000
vt 0.000000 0.000000
vt 1.000000 0.000000
vt 1.000000 1.000000
vt 1.000000 1.000000
vt -0.000000 1.000000
vt 0.000000 1.000000
vt 0.000000 0.000000
vt 1.000000 0.000000
vt 1.000000 0.000000
vt 1.000000 1.000000
vt 1.000000 1.000000
vt 0.000000 1.000000
vt 1.000000 1.000000
vt -0.000000 1.000000
vt 0.000000 0.000000
vt 1.000000 0.000000
vt 0.000000 1.000000
vt 1.000000 1.000000
vt 0.000000 1.000000
vt 1.000000 1.000000
vt 1.000000 0.000000
vt 1.000000 0.000000
vt -0.000000 0.000000
vt 1.000000 1.000000
vt 1.000000 0.000000
vt 0.000000 0.000000
vt 1.000000 1.000000
vt 1.000000 0.000000
vt 1.000000 1.000000
vt 1.000000 0.000000
vt 0.000000 0.000000
vt 0.000000 1.000000
vt 1.000000 1.000000
vt 1.000000 0.000000
vt 1.000000 0.000000
vt -0.000000 0.000000
vt 0.000000 1.000000
vt 1.000000 1.000000
vt 1.000000 1.000000
vt -0.000000 1.000000
vt 1.000000 0.000000
vt 1.000000 1.000000
vt 1.000000 0.000000
vt 1.000000 1.000000
vt 1.000000 0.000000
vt 1.000000 1.000000
vt 1.000000 0.000000
vt 0.000000 0.000000
vn -0.257449 0.000000 0.966292
vn 0.000000 0.000000 1.000000
vn 0.000000 0.000000 1.000000
vn -0.257449 0.000000 0.966292
vn 0.000000 0.000000 -1.000000
vn 0.000000 0.000000 -1.000000
vn 0.000000 0.000000 -1.000000
vn 0.000000 0.000000 -1.000000
vn -0.382683 0.000000 0.923880
vn -0.382683 0.000000 0.923880
vn 0.000000 0.000000 -1.000000
vn 0.000000 0.000000 -1.000000
vn 0.000000 0.000000 -1.000000
vn 0.000000 0.000000 -1.000000
vn 0.707106 0.000000 -0.707108
vn 0.707106 0.000000 -0.707108
vn 0.707106 0.000000 -0.707108
vn 0.707106 0.000000 -0.707108
vn -1.000000 0.000000 0.000000
vn -1.000000 0.000000 0.000000
vn -1.000000 0.000000 0.000000
vn -1.000000 0.000000 0.000000
vn 0.964433 0.000000 -0.264326
vn 1.000000 0.000000 0.000000
vn 1.000000 0.000000 0.000000
vn 0.964433 0.000000 -0.264326
vn -0.968385 0.000000 0.249463
vn -0.923880 0.000000 0.382683
vn -0.923880 0.000000 0.382683
vn -0.968385 0.000000 0.249463
vn 0.923880 0.000000 -0.382683
vn 0.923880 0.000000 -0.382683
vn -1.000000 0.000000 0.000000
vn -1.000000 0.000000 0.000000
vn 1.000000 0.000000 0.000000
vn 1.000000 0.000000 0.000000
vn 1.000000 0.000000 0.000000
vn 1.000000 0.000000 0.000000
vn -0.707107 0.000000 0.707107
vn -0.707107 0.000000 0.707107
vn -0.707107 0.000000 0.707107
vn -0.707107 0.000000 0.707107
vn 0.000000 0.000000 1.000000
vn 0.000000 0.000000 1.000000
vn 0.000000 0.000000 1.000000
vn 0.000000 0.000000 1.000000
vn 0.261390 0.000000 -0.965233
vn 0.382683 0.000000 -0.923880
vn 0.382683 0.000000 -0.923880
vn 0.261390 0.000000 -0.965233
vn 0.000000 0.000000 -1.000000
vn 0.000000 0.000000 -1.000000
vn 0.000000 0.000000 1.000000
vn 0.000000 0.000000 1.000000
vn 0.000000 0.000000 1.000000
vn 0.000000 0.000000 1.000000
vn 1.000000 0.000000 0.000000
vn 1.000000 0.000000 0.000000
vn 1.000000 0.000000 0.000000
vn 1.000000 0.000000 0.000000
vn 0.707107 0.000000 0.707107
vn 0.707107 0.000000 0.707107
vn 0.707107 0.000000 0.707107
vn 0.707107 0.000000 0.707107
vn -0.250739 0.000000 -0.968055
vn 0.000000 0.000000 -1.000000
vn 0.000000 0.000000 -1.000000
vn -0.250739 0.000000 -0.968055
vn -0.964433 0.000000 -0.264326
vn -1.000000 0.000000 0.000000
vn -1.000000 0.000000 0.000000
vn -0.964433 0.000000 -0.264326
vn -1.000000 0.000000 0.000000
vn -1.000000 0.000000 0.000000
vn -1.000000 0.000000 0.000000
vn -1.000000 0.000000 0.000000
vn 0.000000 0.000000 -1.000000
vn 0.000000 0.000000 -1.000000
vn 0.000000 0.000000 -1.000000
vn 0.000000 0.000000 -1.000000
vn -0.382683 0.000000 -0.923880
vn -0.382683 0.000000 -0.923880
vn -0.923880 0.000000 -0.382683
vn -0.923880 0.000000 -0.382683
vn -0.707107 0.000000 0.707107
vn -0.707107 0.000000 0.707107
vn -0.707107 0.000000 0.707107
vn -0.707107 0.000000 0.707107
vn 1.000000 0.000000 0.000000
vn 1.000000 0.000000 0.000000
vn 1.000000 0.000000 0.000000
vn 1.000000 0.000000 0.000000
vn 0.000000 0.000000 1.000000
vn 0.000000 0.000000 1.000000
vn 0.000000 0.000000 1.000000
vn 0.000000 0.000000 1.000000
vn 0.000000 -1.000000 -0.000000
vn 0.000000 -1.000000 -0.000000
vn 0.000000 -1.000000 -0.000000
vn 0.000000 -1.000000 -0.000000
vn 0.000000 -1.000000 -0.000000
vn 0.000000 -1.000000 -0.000000
vn 0.000000 -1.000000 -0.000000
vn 0.000000 -1.000000 -0.000000
vn 0.000000 -1.000000 -0.000000
vn 0.000000 -1.000000 -0.000000
vn 0.707107 0.000000 0.707107
vn 0.707107 0.000000 0.707107
vn 0.707107 0.000000 0.707107
vn 0.707107 0.000000 0.707107
vn 0.000000 1.000000 0.000000
vn 0.000000 1.000000 0.000000
vn 0.000000 1.000000 0.000000
vn 0.000000 1.000000 0.000000
vn 0.000000 1.000000 0.000000
vn 0.000000 1.000000 0.000000
vn 0.000000 1.000000 0.000000
vn 0.000000 1.000000 0.000000
vn 0.000000 1.000000 0.000000
vn 0.000000 1.000000 0.000000
vn 0.000000 -1.000000 -0.000000
vn 0.000000 -1.000000 -0.000000
vn 0.000000 -1.000000 -0.000000
vn 0.000000 -1.000000 -0.000000
vn 0.000000 -1.000000 -0.000000
vn 0.000000 -1.000000 -0.000000
vn 0.000000 -1.000000 -0.000000
vn 0.000000 -1.000000 -0.000000
vn 0.000000 -1.000000 -0.000000
vn 0.000000 -1.000000 -0.000000
vn 0.000000 1.000000 0.000000
vn 0.000000 1.000000 0.000000
vn 0.000000 1.000000 0.000000
vn 0.000000 1.000000 0.000000
vn 0.000000 1.000000 0.000000
vn 0.000000 1.000000 0.000000
vn 0.000000 1.000000 0.000000
vn 0.000000 1.000000 0.000000
vn 0.000000 1.000000 0.000000
vn 0.000000 1.000000 0.000000
vn 0.000000 -1.000000 -0.000000
vn 0.000000 -1.000000 -0.000000
vn 0.000000 -1.000000 -0.000000
vn 0.000000 -1.000000 -0.000000
vn 0.000000 -1.000000 -0.000000
vn 0.000000 -1.000000 -0.000000
vn 0.000000 -1.000000 -0.000000
vn 0.000000 -1.000000 -0.000000
vn 0.000000 -1.000000 -0.000000
vn 0.000000 -1.000000 -0.000000
vn 0.000000 1.000000 0.000000
vn 0.000000 1.000000 0.000000
vn 0.000000 1.000000 0.000000
vn 0.000000 1.000000 0.000000
vn 0.000000 1.000000 0.000000
vn 0.000000 1.000000 0.000000
vn 0.000000 1.000000 0.000000
vn 0.000000 1.000000 0.000000
vn 0.000000 1.000000 0.000000
vn 0.000000 1.000000 0.000000
vn -1.000000 0.000000 0.000000
vn -1.000000 0.000000 0.000000
vn -1.000000 0.000000 0.000000
vn -1.000000 0.000000 0.000000
vn -0.707106 0.000000 -0.707108
vn -0.707106 0.000000 -0.707108
vn -0.707106 0.000000 -0.707108
vn -0.707106 0.000000 -0.707108
vn 0.968385 0.000000 0.249463
vn 1.000000 0.000000 0.000000
vn 1.000000 0.000000 0.000000
vn 0.968385 0.000000 0.249463
vn 0.261390 0.000000 0.965233
vn 0.000000 0.000000 1.000000
vn 0.000000 0.000000 1.000000
vn 0.261390 0.000000 0.965233
vn 1.000000 0.000000 0.000000
vn 1.000000 0.000000 0.000000
vn 1.000000 0.000000 0.000000
vn 1.000000 0.000000 0.000000
vn 0.000000 0.000000 1.000000
vn 0.000000 0.000000 1.000000
vn 0.000000 0.000000 1.000000
vn 0.000000 0.000000 1.000000
vn 0.382683 0.000000 0.923880
vn 0.382683 0.000000 0.923880
vn 0.923880 0.000000 0.382683
vn 0.923880 0.000000 0.382683
vn 0.707106 0.000000 -0.707108
vn 0.707106 0.000000 -0.707108
vn 0.707106 0.000000 -0.707108
vn 0.707106 0.000000 -0.707108
vn -1.000000 0.000000 0.000000
vn -1.000000 0.000000 0.000000
vn -1.000000 0.000000 0.000000
vn -1.000000 0.000000 0.000000
vn 0.000000 0.000000 -1.000000
vn 0.000000 0.000000 -1.000000
vn 0.000000 0.000000 -1.000000
vn 0.000000 0.000000 -1.000000
vn -0.707106 0.000000 -0.707107
vn -0.707106 0.000000 -0.707107
vn -0.707106 0.000000 -0.707107
vn -0.707106 0.000000 -0.707107
vn 0.000000 1.000000 -0.000000
vn 0.000000 1.000000 -0.000000
vn 0.000000 1.000000 -0.000000
vn 0.000000 1.000000 -0.000000
vn 0.000000 1.000000 -0.000000
vn 0.000000 1.000000 -0.000000
vn 0.000000 1.000000 -0.000000
vn 0.000000 1.000000 -0.000000
vn 0.000000 1.000000 -0.000000
vn 0.000000 1.000000 -0.000000
vn 0.000000 -1.000000 0.000000
vn 0.000000 -1.000000 0.000000
vn 0.000000 -1.000000 0.000000
vn 0.000000 -1.000000 0.000000
vn 0.000000 -1.000000 0.000000
vn 0.000000 -1.000000 0.000000
vn 0.000000 -1.000000 0.000000
vn 0.000000 -1.000000 0.000000
vn 0.000000 -1.000000 0.000000
vn 0.000000 -1.000000 0.000000
vn -0.123999 0.000000 0.992282
vn -0.123999 0.000000 0.992282
vn 0.123999 0.000000 0.992282
vn 0.123999 0.000000 0.992282
vn -0.123999 0.000000 -0.992282
vn -0.123999 0.000000 -0.992282
vn 0.123999 0.000000 -0.992282
vn 0.123999 0.000000 -0.992282
vn 0.996979 0.000000 0.077666
vn 0.996979 0.000000 0.077666
vn 0.996979 0.000000 -0.077666
vn 0.996979 0.000000 -0.077666
vn -0.996979 0.000000 -0.077666
vn -0.996979 0.000000 -0.077666
vn -0.996979 0.000000 0.077666
vn -0.996979 0.000000 0.077666
vn -0.923880 0.000000 0.382683
vn -0.923880 0.000000 0.382683
vn -0.382683 0.000000 0.923880
vn -0.382683 0.000000 0.923880
vn 0.382683 0.000000 0.923880
vn 0.382683 0.000000 0.923880
vn 0.923880 0.000000 0.382683
vn 0.923880 0.000000 0.382683
vn -0.923880 0.000000 -0.382683
vn -0.923880 0.000000 -0.382683
vn -0.382684 0.000000 -0.923880
vn -0.382684 0.000000 -0.923880
vn 0.382684 0.000000 -0.923880
vn 0.382684 0.000000 -0.923880
vn 0.923880 0.000000 -0.382683
vn 0.923880 0.000000 -0.382683
vn 0.000000 1.000000 0.000000
vn 0.000000 1.000000 0.000000
vn 0.000000 1.000000 0.000000
vn 0.000000 1.000000 0.000000
vn 0.000000 1.000000 0.000000
vn 0.000000 1.000000 0.000000
vn 0.000000 1.000000 0.000000
vn 0.000000 1.000000 0.000000
vn 0.000000 1.000000 0.000000
vn 0.000000 1.000000 0.000000
vn 0.000000 1.000000 0.000000
vn 0.000000 1.000000 0.000000
vn 0.000000 -1.000000 -0.000000
vn 0.000000 -1.000000 -0.000000
vn 0.000000 -1.000000 -0.000000
vn 0.000000 -1.000000 -0.000000
vn 0.000000 -1.000000 -0.000000
vn 0.000000 -1.000000 -0.000000
vn 0.000000 -1.000000 -0.000000
vn 0.000000 -1.000000 -0.000000
vn 0.000000 -1.000000 -0.000000
vn 0.000000 -1.000000 -0.000000
vn 0.000000 -1.000000 -0.000000
vn 0.000000 -1.000000 -0.000000
s 1
g pCube6
usemtl phong1SG
f 1/1/1 2/2/2 3/3/3 4/4/4
s off
f 5/6/5 6/7/6 7/271/7 8/272/8
s 1
f 9/9/9 1/1/1 4/4/4 10/10/10
s off
f 11/13/11 12/14/12 13/281/13 14/282/14
f 7/15/15 15/250/16 16/251/17 8/252/18
f 12/17/19 17/20/20 18/235/21 13/236/22
s 2
f 19/21/23 11/22/24 14/23/25 20/24/26
s 3
f 21/25/27 9/26/28 10/27/29 22/28/30
s 2
f 23/29/31 19/21/23 20/24/26 24/30/32
s 3
f 22/28/30 25/31/33 26/32/34 21/25/27
s off
f 27/34/35 16/35/36 15/248/37 28/249/38
f 17/18/39 29/19/40 30/237/41 18/238/42
f 25/33/43 27/36/44 28/39/45 26/40/46
s 4
f 31/41/47 23/29/48 24/30/49 32/42/50
f 32/42/50 33/43/51 34/44/52 31/41/47
s off
f 30/37/53 29/38/54 35/289/55 36/290/56
f 33/47/57 37/50/58 38/259/59 34/260/60
f 35/45/61 38/46/62 37/48/63 36/49/64
s 5
f 39/51/65 40/52/66 41/53/67 42/54/68
s 6
f 43/55/69 44/56/70 45/57/71 46/58/72
s off
f 40/59/73 47/62/74 48/261/75 41/262/76
f 44/63/77 49/64/78 50/291/79 45/292/80
s 5
f 51/67/81 39/51/65 42/54/68 52/68/82
s 6
f 46/58/72 51/67/83 52/68/84 43/55/69
s off
f 47/60/85 53/61/86 54/69/87 48/70/88
f 55/73/89 56/74/90 50/253/91 49/254/92
f 54/75/93 53/76/94 57/287/95 58/288/96
f 59/5/97 5/8/98 8/16/99 16/77/100 27/78/101 25/79/102 22/80/103 10/81/104 4/82/105 3/83/106
f 57/71/107 56/72/108 55/255/109 58/256/110
f 26/85/111 28/86/112 15/87/113 7/88/114 6/223/115 60/224/116 2/225/117 1/226/118 9/227/119 21/228/120
f 12/11/121 11/12/122 19/89/123 23/90/124 31/91/125 34/92/126 38/93/127 35/94/128 29/95/129 17/96/130
f 18/97/131 30/98/132 36/99/133 37/100/134 33/101/135 32/102/136 24/215/137 20/216/138 14/217/139 13/218/140
f 45/65/141 50/66/142 56/103/143 57/104/144 53/105/145 47/106/146 40/107/147 39/108/148 51/109/149 46/110/150
f 48/111/151 54/112/152 58/113/153 55/114/154 49/115/155 44/116/156 43/219/157 52/220/158 42/221/159 41/222/160
f 2/117/161 60/118/162 59/119/163 3/120/164
f 60/84/165 6/268/166 5/269/167 59/270/168
s 7
f 61/121/169 62/122/170 63/123/171 64/124/172
s 8
f 65/125/173 66/126/174 67/127/175 68/128/176
s off
f 66/129/177 69/130/178 70/131/179 67/132/180
f 62/133/181 71/134/182 72/135/183 63/136/184
s 8
f 68/128/176 73/137/185 74/138/186 65/125/173
s 7
f 73/139/187 61/121/169 64/124/172 74/140/188
s off
f 75/141/189 70/142/190 69/266/191 76/267/192
f 77/145/193 78/146/194 72/239/195 71/240/196
f 79/148/197 80/263/198 75/264/199 76/265/200
f 77/149/201 80/241/202 79/242/203 78/243/204
f 71/151/205 62/152/206 61/153/207 73/154/208 68/209/209 67/210/210 70/211/211 75/212/212 80/213/213 77/214/214
f 78/143/215 79/144/216 76/147/217 69/150/218 66/155/219 65/156/220 74/157/221 64/158/222 63/159/223 72/160/224
s 9
f 86/163/225 82/164/226 89/285/227 91/286/228
s 10
f 98/166/229 95/276/230 100/277/231 103/278/232
s 11
f 90/244/233 87/245/234 102/246/235 101/247/236
s 12
f 94/229/237 96/230/238 81/231/239 84/232/240
f 81/175/239 83/176/241 85/233/242 84/234/240
s 9
f 83/161/243 82/162/226 86/177/225 85/178/244
f 89/179/227 88/180/245 92/283/246 91/284/228
s 11
f 88/169/247 87/170/234 90/257/233 92/258/248
s 12
f 94/173/237 93/174/249 97/181/250 96/182/238
s 10
f 93/183/251 95/273/230 98/274/229 97/275/252
f 100/167/231 99/185/253 104/279/254 103/280/232
s 11
f 99/171/255 101/172/236 102/187/235 104/188/256
s off
f 99/189/257 100/190/258 95/191/259 93/192/260 94/201/261 84/202/262 85/203/263 86/204/264 91/205/265 92/206/266 90/207/267 101/208/268
f 102/165/269 87/168/270 88/184/271 89/186/272 82/193/273 83/194/274 81/195/275 96/196/276 97/197/277 98/198/278 103/199/279 104/200/280
