# This file uses centimeters as units for non-parametric coordinates.

mtllib SkiperAIzq.mtl
g default
v -0.092553 0.044353 -0.011233
v -0.639513 -0.067949 0.180233
v -0.134385 -0.035459 0.098699
v -0.656571 0.042763 -0.011263
v -0.134427 -0.035459 -0.121243
v -0.639513 -0.067949 -0.202765
v -0.008127 0.040957 -0.011263
v -0.030399 -0.042041 0.065381
v -1.067769 0.009505 -0.011263
v -1.324365 -0.093653 0.065339
v -1.047315 -0.096011 0.167333
v -1.373067 -0.068783 -0.011263
v -1.047363 -0.096011 -0.189877
v -0.030357 -0.042041 -0.087835
v -1.324317 -0.093653 -0.087877
vt 0.046539 0.451660
vt 0.051239 0.449219
vt 0.049225 0.449707
vt 0.046539 0.451660
vt 0.043854 0.449707
vt 0.041840 0.449219
vt 0.046539 0.451660
vt 0.048401 0.449707
vt 0.046539 0.451172
vt 0.048401 0.448242
vt 0.050903 0.448242
vt 0.046539 0.449219
vt 0.042145 0.448242
vt 0.044647 0.449707
vt 0.044647 0.448242
vn 0.067300 0.996793 -0.043300
vn -0.035602 0.859358 0.510134
vn 0.090601 0.769405 0.632304
vn -0.037999 0.999274 -0.002900
vn -0.035602 0.859358 0.510134
vn 0.067300 0.996793 -0.043300
vn 0.088400 0.799297 -0.594398
vn -0.037999 0.999274 -0.002900
vn 0.067300 0.996793 -0.043300
vn -0.023701 0.863721 -0.503412
vn -0.037999 0.999274 -0.002900
vn 0.088400 0.799297 -0.594398
vn 0.114397 0.992171 -0.050099
vn 0.090601 0.769405 0.632304
vn 0.276306 0.610913 0.741916
vn 0.067300 0.996793 -0.043300
vn 0.090601 0.769405 0.632304
vn 0.114397 0.992171 -0.050099
vn -0.152906 0.988240 0.000800
vn -0.212307 0.865330 0.454016
vn -0.117299 0.850096 0.513398
vn -0.248390 0.968660 0.000000
vn -0.212307 0.865330 0.454016
vn -0.152906 0.988240 0.000800
vn -0.037999 0.999274 -0.002900
vn -0.117299 0.850096 0.513398
vn -0.035602 0.859358 0.510134
vn -0.152906 0.988240 0.000800
vn -0.117299 0.850096 0.513398
vn -0.037999 0.999274 -0.002900
vn -0.152906 0.988240 0.000800
vn -0.023701 0.863721 -0.503412
vn -0.119693 0.848750 -0.515070
vn -0.037999 0.999274 -0.002900
vn -0.023701 0.863721 -0.503412
vn -0.152906 0.988240 0.000800
vn 0.067300 0.996793 -0.043300
vn 0.171108 0.719735 -0.672833
vn 0.088400 0.799297 -0.594398
vn 0.114397 0.992171 -0.050099
vn 0.171108 0.719735 -0.672833
vn 0.067300 0.996793 -0.043300
vn -0.212298 0.865290 -0.454095
vn -0.152906 0.988240 0.000800
vn -0.119693 0.848750 -0.515070
vn -0.248390 0.968660 0.000000
vn -0.152906 0.988240 0.000800
vn -0.212298 0.865290 -0.454095
s off
g polySurface1 Skiper:polySurface71
usemtl Skiper:Material_005
f 1/1/1 2/2/2 3/3/3
f 4/4/4 2/2/5 1/1/6
f 5/5/7 4/4/8 1/1/9
f 6/6/10 4/4/11 5/5/12
f 7/7/13 3/3/14 8/8/15
f 1/1/16 3/3/17 7/7/18
f 9/9/19 10/10/20 11/11/21
f 12/12/22 10/10/23 9/9/24
f 4/4/25 11/11/26 2/2/27
f 9/9/28 11/11/29 4/4/30
f 9/9/31 6/6/32 13/13/33
f 4/4/34 6/6/35 9/9/36
f 1/1/37 14/14/38 5/5/39
f 7/7/40 14/14/41 1/1/42
f 15/15/43 9/9/44 13/13/45
f 12/12/46 9/9/47 15/15/48
