# This file uses centimeters as units for non-parametric coordinates.

mtllib Floor.mtl
g default
v -6.355914 5.585709 -12.711830
v -3.177957 5.585709 -12.711830
v -3.177957 5.585709 -15.889786
v -6.355914 5.585709 -15.889786
v -15.889786 5.585709 -3.177958
v -12.711829 5.585709 -3.177958
v -12.711829 5.585709 -6.355914
v -15.889786 5.585709 -6.355914
v -3.177957 5.585709 -12.340985
v -6.355914 5.585709 -12.340985
v -10.980312 5.585709 -3.177958
v -10.980312 5.585709 -6.355914
v 0.000000 5.585709 -12.711830
v 0.000000 5.585709 -15.889786
v -15.889786 5.585709 0.000000
v -12.711829 5.585709 0.000000
v 0.000000 5.585709 -12.340985
v -10.980312 5.585709 0.000000
v 3.177958 5.585709 -12.711830
v 3.177958 5.585709 -15.889786
v -15.889786 5.585709 3.177957
v -12.711829 5.585709 3.177957
v 3.177958 5.585709 -12.340985
v -10.980312 5.585709 3.177957
v 6.355914 5.585709 -12.711830
v 6.355914 5.585709 -15.889786
v -15.889786 5.585709 6.355914
v -12.711829 5.585709 6.355914
v 6.355914 5.585709 -12.340985
v -10.980312 5.585709 6.355914
v 9.533872 5.585709 -12.711830
v 9.533872 5.585709 -15.889786
v -15.889786 5.585709 9.533872
v -12.711829 5.585709 9.533872
v 12.711830 5.585709 -12.711830
v 12.711830 5.585709 -15.889786
v -15.889786 5.585709 12.711829
v -12.711829 5.585709 12.711829
v -15.889786 5.585709 15.889786
v -12.711829 5.585709 15.889786
v 15.889786 5.585709 -12.711830
v 15.889786 5.585709 -15.889786
v 12.711830 5.585709 -9.533872
v 15.889786 5.585709 -9.533872
v -9.533872 5.585709 15.889786
v -9.533872 5.585709 12.711829
v 9.533872 5.585709 -10.881730
v 8.235509 5.585709 -12.340985
v -10.733120 5.585709 9.533872
v -10.980312 5.585709 9.256047
v -6.355914 5.585709 15.889786
v -6.355914 5.585709 12.711829
v 12.711830 5.585709 -6.355914
v 15.889786 5.585709 -6.355914
v 10.980312 5.585709 -3.177958
v 12.711830 5.585709 -3.177958
v 10.980312 5.585709 -6.355914
v -3.177957 5.585709 12.711829
v -3.177957 5.585709 12.340985
v -6.355914 5.585709 12.340985
v 15.889786 5.585709 -3.177958
v -3.177957 5.585709 15.889786
v -8.235509 5.585709 -12.340985
v 10.980312 5.585709 0.000000
v 12.711830 5.585709 0.000000
v 10.733120 5.585709 -9.533872
v -9.533872 5.585709 10.881730
v 0.000000 5.585709 12.711829
v 0.000000 5.585709 12.340985
v 15.889786 5.585709 0.000000
v 0.000000 5.585709 15.889786
v 10.980312 5.585709 3.177957
v 12.711830 5.585709 3.177957
v 3.177958 5.585709 12.711829
v 3.177958 5.585709 12.340985
v 15.889786 5.585709 3.177957
v 3.177958 5.585709 15.889786
v 10.980312 5.585709 -9.256047
v 10.980312 5.585709 6.355914
v 12.711830 5.585709 6.355914
v -10.980312 5.585709 -9.256047
v 6.355914 5.585709 12.711829
v 6.355914 5.585709 12.340985
v -8.235509 5.585709 12.340985
v 15.889786 5.585709 6.355914
v 6.355914 5.585709 15.889786
v 9.533872 5.585709 15.889786
v 9.533872 5.585709 12.711829
v 12.711830 5.585709 9.533872
v 15.889786 5.585709 9.533872
v 12.711830 5.585709 15.889786
v 12.711830 5.585709 12.711829
v 15.889786 5.585709 12.711829
v 15.889786 5.585709 15.889786
v 10.733120 5.585709 9.533872
v 10.980312 5.585709 9.256047
v 9.533872 5.585709 10.881730
v 8.235509 5.585709 12.340985
v -10.733120 5.585709 -9.533872
v -12.711829 5.585709 -9.533872
v -9.533872 5.585709 -12.711830
v -9.533872 5.585709 -10.881730
v -15.889786 5.585709 -9.533872
v -9.533872 5.585709 -15.889786
v -12.711829 5.585709 -12.711830
v -15.889786 5.585709 -12.711830
v -12.711829 5.585709 -15.889786
v -15.889786 5.585709 -15.889786
vt 0.252482 0.000000
vt 0.226325 0.000000
vt -0.000000 -0.000000
vt -0.000000 -0.000000
vt 0.000000 -0.000000
vt 0.009261 -0.000000
vt 0.490629 -0.000000
vt 0.000000 -0.000000
vt 0.226325 1.000000
vt 0.252482 1.000000
vt 0.490629 1.000000
vt 0.009261 1.000000
vt 0.215896 0.000000
vt 0.000000 -0.000000
vt 0.000000 -0.000000
vt 0.006615 -0.000000
vt 0.215896 1.000000
vt 0.540905 -0.000000
vt 0.217529 0.000000
vt -0.000000 -0.000000
vt 0.000000 -0.000000
vt 0.000000 -0.000000
vt 0.217529 1.000000
vt 0.491952 -0.000000
vt 1.000000 0.000000
vt 0.000000 -0.000000
vt 0.000000 0.000000
vt -0.000000 -0.000000
vt 1.000000 1.000000
vt 0.460199 -0.000000
vt 0.000000 1.000000
vt 0.000000 -0.000000
vt 1.000000 0.000000
vt 0.000000 0.000000
vt -0.000000 0.000000
vt -0.000000 -0.000000
vt 0.000000 0.000000
vt 1.000000 0.000000
vt 1.000000 1.000000
vt 0.000000 1.000000
vt 1.000000 0.000000
vt 1.000000 -0.000000
vt -0.000000 0.000000
vt 1.000000 0.000000
vt 0.000000 0.000000
vt 0.622636 1.000000
vt 0.000000 0.797364
vt 0.591447 0.797364
vt 1.000000 0.000000
vt 0.875074 0.087422
vt -0.000000 0.000000
vt -0.001634 0.000000
vt -0.000000 -0.000000
vt 1.000000 -0.000000
vt 0.000817 -0.000000
vt 0.484615 -0.000000
vt 0.012483 -0.000000
vt 0.207728 0.000000
vt 0.207728 1.000000
vt -0.001634 1.000000
vt -0.000000 -0.000000
vt 1.000000 0.000000
vt 0.001634 -0.000000
vt 0.400487 -0.000000
vt 0.124926 0.000000
vt 0.000000 1.000000
vt 0.000000 0.000000
vt 0.206095 0.000000
vt 1.000000 -0.000000
vt -0.000000 0.000000
vt 0.005717 -0.000000
vt 0.411105 -0.000000
vt -0.001634 0.000000
vt 0.197927 0.000000
vt -0.000000 -0.000000
vt 0.000000 0.000000
vt 1.000000 0.000000
vt 0.411105 1.000000
vt 0.005717 1.000000
vt -0.001634 0.000000
vt 0.207728 0.000000
vt 0.000000 0.000000
vt -0.000000 0.000000
vt -0.000000 0.000000
vt 0.000000 0.000000
vt 1.000000 0.000000
vt 0.000000 0.000000
vt -0.000000 0.000000
vt 0.900000 0.000000
vt 0.900000 0.100000
vt 1.000000 0.100000
vt 1.000000 0.000000
vt 1.000000 0.000000
vt 1.000000 1.000000
vt 0.000000 0.000000
vt 1.000000 0.000000
vt 0.000000 0.000000
vt 0.875074 0.000000
vt 0.875074 0.912578
vt 1.000000 0.424127
vt 1.000000 1.000000
vt 1.000000 0.797364
vt 0.000000 0.000000
vt 0.000000 -0.000000
vt 0.000000 1.000000
vt 0.000000 0.000000
vt 1.000000 -0.000000
vt 0.000000 -0.000000
vt 1.000000 -0.000000
vt 1.000000 1.000000
vt 0.000000 1.000000
vt 1.000000 0.000000
vt 1.000000 1.000000
vt 0.000000 1.000000
vt 1.000000 0.000000
vt 1.000000 1.000000
vt 0.000000 1.000000
vt 1.000000 -0.000000
vt 1.000000 1.000000
vt 0.000000 1.000000
vt 1.000000 -0.000000
vt 1.000000 1.000000
vt 0.000000 1.000000
vt 1.000000 -0.000000
vt 1.000000 1.000000
vt 0.000000 1.000000
vt 1.000000 -0.000000
vt 1.000000 1.000000
vt 0.000000 1.000000
vt 0.000000 -0.000000
vt 1.000000 -0.000000
vt 1.000000 1.000000
vt 0.000000 1.000000
vt 1.000000 -0.000000
vt 1.000000 1.000000
vt -0.000000 1.000000
vt 1.000000 -0.000000
vt 1.000000 1.000000
vt -0.000000 1.000000
vt 1.000000 -0.000000
vt 1.000000 1.000000
vt 0.000000 1.000000
vt 1.000000 -0.000000
vt 1.000000 1.000000
vt -0.000000 1.000000
vt 1.000000 -0.000000
vt 1.000000 1.000000
vt 0.000000 1.000000
vt 1.000000 -0.000000
vt 1.000000 1.000000
vt 0.000000 1.000000
vt 0.377364 0.000000
vt 1.000000 0.000000
vt 1.000000 1.000000
vt 0.000000 1.000000
vt 0.000000 0.424127
vt 1.000000 1.000000
vt -0.000000 1.000000
vt 1.000000 1.000000
vt 0.000000 1.000000
vt 0.124926 0.912578
vt 0.503284 -0.000000
vt 0.503284 1.000000
vt 0.012483 1.000000
vt 1.000000 1.000000
vt -0.000000 1.000000
vt 1.000000 1.000000
vt -0.000000 1.000000
vt 1.000000 1.000000
vt -0.000000 1.000000
vt -0.000000 -0.000000
vt 1.000000 -0.000000
vt 1.000000 1.000000
vt -0.000000 1.000000
vt 1.000000 1.000000
vt -0.000000 1.000000
vt 1.000000 -0.000000
vt 1.000000 1.000000
vt -0.000000 1.000000
vt 1.000000 0.000000
vt 1.000000 1.000000
vt -0.000000 1.000000
vt 1.000000 0.000000
vt 1.000000 1.000000
vt -0.000000 1.000000
vt 0.000000 0.575873
vt 0.000000 0.000000
vt 1.000000 0.000000
vt 1.000000 1.000000
vt 0.377364 1.000000
vt 1.000000 1.000000
vt 0.591447 0.202636
vt 0.000000 0.202636
vt 0.124926 1.000000
vt 0.124926 0.087422
vt 0.000000 0.000000
vt 1.000000 0.000000
vt 1.000000 1.000000
vt 0.000000 1.000000
vt 1.000000 1.000000
vt 0.000000 1.000000
vt 1.000000 0.000000
vt 1.000000 1.000000
vt -0.000000 1.000000
vt 1.000000 0.000000
vt 1.000000 1.000000
vt 0.000000 1.000000
vt 0.000000 0.000000
vt 1.000000 0.000000
vt 1.000000 1.000000
vt 0.000000 1.000000
vt 1.000000 0.000000
vt 1.000000 1.000000
vt 0.000000 1.000000
vt 1.000000 0.000000
vt 1.000000 1.000000
vt -0.000000 1.000000
vt 1.000000 1.000000
vt -0.000000 1.000000
vt 1.000000 0.000000
vt 1.000000 0.202636
vt 0.408553 0.202636
vt 0.000000 1.000000
vt 0.000000 0.000000
vt 1.000000 0.000000
vt 1.000000 0.575873
vt 0.000000 0.000000
vt 1.000000 0.000000
vt 1.000000 1.000000
vt 0.000000 1.000000
vt 1.000000 1.000000
vt 0.000000 1.000000
vt 1.000000 1.000000
vt 0.000000 1.000000
vt 1.000000 1.000000
vt 0.000000 1.000000
vt 0.000000 0.000000
vt 0.408553 0.797364
vt 0.000000 0.000000
vt 0.622636 0.000000
vt 1.000000 1.000000
vt 0.000000 1.000000
vt 0.875074 1.000000
vt 0.000000 1.000000
vt 0.460199 1.000000
vt -0.000000 1.000000
vt 0.491952 1.000000
vt 0.000000 1.000000
vt 0.540905 1.000000
vt 0.006615 1.000000
vt 0.009261 1.000000
vt 0.009261 0.000000
vt 0.004273 1.000000
vt 0.004273 0.000000
vt 0.000000 1.000000
vt 0.000000 0.000000
vt 0.008168 1.000000
vt 0.008168 0.000000
vt 0.484615 1.000000
vt 0.000817 1.000000
vt 0.400487 1.000000
vt 0.001634 1.000000
vt 0.207728 1.000000
vt -0.001634 1.000000
vt 0.197927 1.000000
vt -0.001634 1.000000
vt 0.206095 1.000000
vt 0.000000 1.000000
vn 0.000000 1.000000 -0.000000
vn 0.000000 1.000000 0.000000
vn 0.000000 1.000000 0.000000
vn 0.000000 1.000000 0.000000
vn 0.000000 1.000000 0.000000
vn 0.000000 1.000000 0.000000
vn 0.000000 1.000000 0.000000
vn 0.000000 1.000000 0.000000
vn 0.000000 1.000000 0.000000
vn 0.000000 1.000000 -0.000001
vn 0.000000 1.000000 0.000000
vn 0.000000 1.000000 0.000000
vn 0.000000 1.000000 0.000000
vn 0.000000 1.000000 0.000000
vn 0.000000 1.000000 0.000000
vn 0.000000 1.000000 0.000000
vn 0.000000 1.000000 0.000000
vn 0.000000 1.000000 0.000000
vn 0.000000 1.000000 0.000000
vn 0.000000 1.000000 0.000000
vn 0.000000 1.000000 0.000000
vn 0.000000 1.000000 0.000000
vn 0.000000 1.000000 0.000000
vn 0.000000 1.000000 0.000000
vn 0.000000 1.000000 -0.000000
vn 0.000000 1.000000 0.000000
vn 0.000000 1.000000 0.000000
vn 0.000000 1.000000 0.000000
vn 0.000000 1.000000 -0.000001
vn 0.000000 1.000000 0.000000
vn 0.000000 1.000000 -0.000000
vn 0.000000 1.000000 0.000000
vn 0.000000 1.000000 0.000000
vn 0.000000 1.000000 0.000000
vn 0.000000 1.000000 -0.000000
vn 0.000000 1.000000 0.000000
vn 0.000000 1.000000 0.000000
vn 0.000000 1.000000 0.000000
vn 0.000000 1.000000 0.000000
vn 0.000000 1.000000 0.000000
vn 0.000000 1.000000 0.000000
vn 0.000000 1.000000 0.000000
vn 0.000000 1.000000 -0.000000
vn 0.000000 1.000000 0.000000
vn 0.000000 1.000000 0.000000
vn 0.000000 1.000000 0.000000
vn 0.000000 1.000000 -0.000000
vn 0.000000 1.000000 -0.000001
vn 0.000000 1.000000 0.000000
vn 0.000000 1.000000 0.000000
vn 0.000000 1.000000 0.000000
vn 0.000000 1.000000 0.000000
vn 0.000000 1.000000 0.000000
vn 0.000000 1.000000 0.000000
vn 0.000000 1.000000 0.000000
vn 0.000000 1.000000 0.000000
vn 0.000000 1.000000 0.000000
vn 0.000000 1.000000 0.000000
vn 0.000000 1.000000 0.000000
vn 0.000000 1.000000 0.000001
vn 0.000000 1.000000 0.000000
vn 0.000000 1.000000 0.000000
vn 0.000000 1.000000 0.000000
vn 0.000000 1.000000 0.000000
vn 0.000000 1.000000 -0.000000
vn 0.000000 1.000000 0.000000
vn 0.000000 1.000000 0.000000
vn 0.000000 1.000000 0.000000
vn 0.000000 1.000000 0.000000
vn 0.000000 1.000000 0.000000
vn 0.000000 1.000000 0.000000
vn 0.000000 1.000000 0.000000
vn 0.000000 1.000000 0.000000
vn 0.000000 1.000000 0.000000
vn 0.000000 1.000000 0.000000
vn 0.000000 1.000000 0.000000
vn 0.000000 1.000000 0.000000
vn 0.000000 1.000000 -0.000000
vn 0.000000 1.000000 -0.000000
vn 0.000000 1.000000 0.000000
vn 0.000000 1.000000 0.000001
vn 0.000000 1.000000 0.000001
vn 0.000000 1.000000 0.000000
vn 0.000000 1.000000 0.000000
vn 0.000000 1.000000 0.000000
vn 0.000000 1.000000 0.000000
vn 0.000000 1.000000 0.000000
vn 0.000000 1.000000 0.000000
vn 0.000000 1.000000 0.000000
vn 0.000000 1.000000 0.000000
vn 0.000000 1.000000 0.000000
vn 0.000000 1.000000 0.000000
vn 0.000000 1.000000 0.000000
vn 0.000000 1.000000 -0.000000
vn 0.000000 1.000000 0.000000
vn 0.000000 1.000000 0.000002
vn 0.000000 1.000000 0.000000
vn 0.000000 1.000000 -0.000000
vn 0.000000 1.000000 -0.000000
vn 0.000000 1.000000 -0.000000
vn 0.000000 1.000000 -0.000000
vn 0.000000 1.000000 -0.000002
vn 0.000000 1.000000 0.000000
vn 0.000000 1.000000 0.000000
vn 0.000000 1.000000 -0.000000
vn 0.000000 1.000000 0.000000
vn 0.000000 1.000000 0.000000
vn 0.000000 1.000000 0.000000
s 1
g pPlane2
usemtl phong2SG
f 1/4/1 2/134/2 3/135/3 4/136/4
f 5/8/5 6/118/6 7/119/7 8/120/8
f 9/1/9 2/10/2 1/251/1 10/252/10
f 6/6/6 11/7/11 12/11/12 7/12/7
f 2/3/2 13/137/13 14/138/14 3/139/3
f 15/5/15 16/121/16 6/122/6 5/123/5
f 17/2/17 13/9/13 2/253/2 9/254/9
f 16/16/16 18/18/18 11/249/11 6/250/6
f 13/14/13 19/140/19 20/141/20 14/142/14
f 21/15/21 22/124/22 16/125/16 15/126/15
f 23/13/23 19/17/19 13/255/13 17/256/17
f 22/22/22 24/24/24 18/247/18 16/248/16
f 19/20/19 25/143/25 26/144/26 20/145/20
f 27/21/27 28/127/28 22/128/22 21/129/21
f 29/19/29 25/23/25 19/257/19 23/258/23
f 28/28/28 30/30/30 24/245/24 22/246/22
f 25/26/25 31/146/31 32/147/32 26/148/26
f 33/27/33 34/33/34 28/231/28 27/232/27
f 31/32/31 35/149/35 36/150/36 32/151/32
f 37/227/37 38/228/38 34/229/34 33/230/33
f 39/37/39 40/38/40 38/39/38 37/40/37
f 35/36/35 41/42/41 42/157/42 36/158/36
f 43/35/43 44/41/44 41/165/41 35/166/35
f 40/45/40 45/212/45 46/213/46 38/214/38
f 47/25/47 31/29/31 25/31/25 29/47/29 48/48/48
f 34/34/34 49/49/49 50/50/50 30/243/30 28/244/28
f 45/208/45 51/209/51 52/210/52 46/211/46
f 53/43/53 54/44/54 44/167/44 43/168/43
f 55/57/55 56/162/56 53/163/53 57/164/57
f 52/52/52 58/58/58 59/59/59 60/60/60
f 56/53/56 61/54/61 54/169/54 53/170/53
f 51/51/51 62/62/62 58/218/58 52/219/52
f 64/55/63 65/56/64 56/259/56 55/260/55
f 66/152/65 43/153/43 35/154/35 31/155/31 47/156/47
f 49/46/49 34/66/34 38/224/38 46/225/46 67/226/66
f 58/67/58 68/68/67 69/267/68 59/268/59
f 65/61/64 70/69/69 61/175/61 56/176/56
f 62/70/62 71/215/70 68/216/67 58/217/58
f 72/63/71 73/64/72 65/261/64 64/262/63
f 68/73/67 74/74/73 75/265/74 69/266/68
f 73/171/72 76/172/75 70/173/69 65/174/64
f 71/76/70 77/205/76 74/206/73 68/207/67
f 57/65/57 53/77/53 43/159/43 66/160/65 78/161/77
f 79/71/78 80/72/79 73/78/72 72/79/71
f 74/80/73 82/81/80 83/263/81 75/264/74
f 46/82/46 52/220/52 60/221/60 84/222/82 67/223/66
f 80/75/79 85/177/83 76/178/75 73/179/72
f 77/84/76 86/202/84 82/203/80 74/204/73
f 86/85/84 87/86/85 88/200/86 82/201/80
f 89/83/87 90/180/88 85/181/83 80/182/79
f 87/196/85 91/197/89 92/198/90 88/199/86
f 92/88/90 93/183/91 90/184/88 89/185/87
f 91/89/89 94/92/92 93/91/91 92/90/90
f 95/87/93 89/93/87 80/94/79 79/194/78 96/195/94
f 82/95/80 88/96/86 97/191/95 98/192/96 83/193/81
f 97/186/95 88/187/86 92/188/90 89/189/87 95/190/93
f 7/97/7 12/98/12 81/99/97 99/241/98 100/242/99
f 10/102/10 1/235/1 101/236/100 102/237/101 63/238/102
f 8/103/8 7/115/7 100/116/99 103/117/103
f 101/130/100 1/131/1 4/132/4 104/133/104
f 102/100/101 101/101/100 105/105/105 100/239/99 99/240/98
f 103/106/103 100/112/99 105/113/105 106/114/106
f 105/104/105 101/107/100 104/233/104 107/234/107
f 106/108/106 105/109/105 107/110/107 108/111/108
