# This file uses centimeters as units for non-parametric coordinates.

mtllib CaboAletaIzquierda.mtl
g default
v -0.265113 0.112652 0.009503
v -0.800817 0.002678 0.197064
v -0.306160 0.034565 0.117185
v -0.817522 0.111160 0.009503
v -0.306201 0.034565 -0.098198
v -0.800776 0.002678 -0.178071
v -0.004365 0.055189 0.009532
v -1.220108 0.078526 0.009532
v -1.471426 -0.022493 0.084558
v -1.200166 -0.024732 0.184396
v -1.519083 0.001861 0.009532
v -1.200207 -0.024732 -0.165409
v -1.471385 -0.022493 -0.065482
vt 0.194092 0.149414
vt 0.209839 0.140137
vt 0.203125 0.143066
vt 0.194092 0.149414
vt 0.185181 0.143066
vt 0.178467 0.140137
vt 0.194092 0.144531
vt 0.194092 0.146484
vt 0.200439 0.138184
vt 0.208740 0.138184
vt 0.194092 0.140137
vt 0.179565 0.138184
vt 0.187866 0.138184
vn 0.130505 0.991437 -0.004500
vn -0.035601 0.859314 0.510208
vn 0.084801 0.791005 0.605904
vn -0.038099 0.999270 -0.002900
vn -0.035601 0.859314 0.510208
vn 0.130505 0.991437 -0.004500
vn 0.056601 0.807310 -0.587407
vn -0.038099 0.999270 -0.002900
vn 0.130505 0.991437 -0.004500
vn -0.023701 0.863721 -0.503412
vn -0.038099 0.999270 -0.002900
vn 0.056601 0.807310 -0.587407
vn 0.130505 0.991437 -0.004500
vn 0.084801 0.791005 0.605904
vn 0.215194 0.976571 0.000000
vn -0.153004 0.988225 0.000900
vn -0.212308 0.865433 0.453818
vn -0.117400 0.850201 0.513201
vn -0.248390 0.968660 0.000000
vn -0.212308 0.865433 0.453818
vn -0.153004 0.988225 0.000900
vn -0.038099 0.999270 -0.002900
vn -0.117400 0.850201 0.513201
vn -0.035601 0.859314 0.510208
vn -0.153004 0.988225 0.000900
vn -0.117400 0.850201 0.513201
vn -0.038099 0.999270 -0.002900
vn -0.153004 0.988225 0.000900
vn -0.023701 0.863721 -0.503412
vn -0.119697 0.848981 -0.514688
vn -0.038099 0.999270 -0.002900
vn -0.023701 0.863721 -0.503412
vn -0.153004 0.988225 0.000900
vn 0.130505 0.991437 -0.004500
vn 0.215194 0.976571 0.000000
vn 0.056601 0.807310 -0.587407
vn -0.212394 0.865376 -0.453887
vn -0.153004 0.988225 0.000900
vn -0.119697 0.848981 -0.514688
vn -0.248390 0.968660 0.000000
vn -0.153004 0.988225 0.000900
vn -0.212394 0.865376 -0.453887
s off
g polySurface5 Cabo:polySurface78
usemtl Cabo:Material_005
f 1/1/1 2/2/2 3/3/3
f 4/4/4 2/2/5 1/1/6
f 5/5/7 4/4/8 1/1/9
f 6/6/10 4/4/11 5/5/12
f 1/1/13 3/3/14 7/7/15
f 8/8/16 9/9/17 10/10/18
f 11/11/19 9/9/20 8/8/21
f 4/4/22 10/10/23 2/2/24
f 8/8/25 10/10/26 4/4/27
f 8/8/28 6/6/29 12/12/30
f 4/4/31 6/6/32 8/8/33
f 1/1/34 7/7/35 5/5/36
f 13/13/37 8/8/38 12/12/39
f 11/11/40 8/8/41 13/13/42
