# This file uses centimeters as units for non-parametric coordinates.

mtllib StreetLampGlass.mtl
g default
v 10.309990 14.762518 11.961532
v 10.556151 15.888918 12.207579
v 10.310305 14.762980 11.392260
v 10.555797 15.888815 11.146262
v 9.741261 14.762518 11.960946
v 9.495213 15.888918 12.207108
v 10.310532 14.762980 11.961261
v 10.556529 15.888815 12.206753
v 10.309067 14.762518 11.392663
v 10.555114 15.888918 11.146502
v 9.739796 14.762980 11.392348
v 9.493797 15.888815 11.146857
v 9.741547 14.762518 11.392260
v 9.495385 15.888918 11.146213
v 9.741232 14.762980 11.961532
v 9.495740 15.888815 12.207528
vt 0.000000 0.183241
vt 0.042509 0.000000
vt 0.133156 0.000089
vt 0.169014 0.183241
vt 0.000000 0.544863
vt 0.045601 0.364500
vt 0.135828 0.364582
vt 0.168238 0.544863
vt 0.169014 0.542959
vt 0.208530 0.362823
vt 0.299919 0.362904
vt 0.339393 0.542959
vt 0.339393 0.530871
vt 0.378909 0.350623
vt 0.470298 0.350705
vt 0.509773 0.530871
vn 0.976987 -0.213297 -0.000100
vn 0.976987 -0.213297 -0.000100
vn 0.976987 -0.213297 -0.000100
vn 0.976987 -0.213297 -0.000100
vn 0.000100 -0.213297 0.976987
vn 0.000100 -0.213297 0.976987
vn 0.000100 -0.213297 0.976987
vn 0.000100 -0.213297 0.976987
vn -0.000100 -0.213297 -0.976987
vn -0.000100 -0.213297 -0.976987
vn -0.000100 -0.213297 -0.976987
vn -0.000100 -0.213297 -0.976987
vn -0.976987 -0.213297 0.000100
vn -0.976987 -0.213297 0.000100
vn -0.976987 -0.213297 0.000100
vn -0.976987 -0.213297 0.000100
s off
g polySurface2
usemtl StreetLamp:phong1SG4
f 2/1/1 1/2/2 3/3/3 4/4/4
f 6/5/5 5/6/6 7/7/7 8/8/8
f 10/9/9 9/10/10 11/11/11 12/12/12
f 14/13/13 13/14/14 15/15/15 16/16/16
