# This file uses centimeters as units for non-parametric coordinates.

mtllib SkiperADer.mtl
g default
v 0.088763 0.043326 -0.016010
v 0.635813 -0.068976 0.175456
v 0.652865 0.041736 -0.016040
v 0.130685 -0.036486 0.093922
v 0.130727 -0.036486 -0.126020
v 0.635813 -0.068976 -0.207542
v 0.004337 0.039930 -0.016040
v 0.026609 -0.043068 0.060604
v 1.063979 0.008478 -0.016040
v 1.320575 -0.094680 0.060562
v 1.369277 -0.069810 -0.016040
v 1.043615 -0.097038 0.162556
v 1.043573 -0.097038 -0.194654
v 0.026651 -0.043068 -0.092612
v 1.320617 -0.094680 -0.092654
vt 0.046539 0.451660
vt 0.051239 0.449219
vt 0.046539 0.451660
vt 0.049225 0.449707
vt 0.043854 0.449707
vt 0.041840 0.449219
vt 0.046539 0.451660
vt 0.048401 0.449707
vt 0.046539 0.451172
vt 0.048401 0.448242
vt 0.046539 0.449219
vt 0.050903 0.448242
vt 0.042145 0.448242
vt 0.044647 0.449707
vt 0.044647 0.448242
vn -0.067300 0.996793 -0.043300
vn 0.035602 0.859358 0.510134
vn 0.037999 0.999274 -0.002900
vn -0.090501 0.769412 0.632309
vn 0.035602 0.859358 0.510134
vn -0.067300 0.996793 -0.043300
vn -0.088308 0.799268 -0.594451
vn 0.037999 0.999274 -0.002900
vn 0.023701 0.863721 -0.503412
vn -0.067300 0.996793 -0.043300
vn 0.037999 0.999274 -0.002900
vn -0.088308 0.799268 -0.594451
vn -0.114398 0.992186 -0.049799
vn -0.090501 0.769412 0.632309
vn -0.067300 0.996793 -0.043300
vn -0.276104 0.611010 0.741912
vn -0.090501 0.769412 0.632309
vn -0.114398 0.992186 -0.049799
vn 0.152906 0.988240 0.000800
vn 0.212307 0.865330 0.454016
vn 0.248390 0.968660 0.000000
vn 0.117306 0.850140 0.513324
vn 0.212307 0.865330 0.454016
vn 0.152906 0.988240 0.000800
vn 0.037999 0.999274 -0.002900
vn 0.117306 0.850140 0.513324
vn 0.152906 0.988240 0.000800
vn 0.035602 0.859358 0.510134
vn 0.117306 0.850140 0.513324
vn 0.037999 0.999274 -0.002900
vn 0.152906 0.988240 0.000800
vn 0.023701 0.863721 -0.503412
vn 0.037999 0.999274 -0.002900
vn 0.119594 0.848760 -0.515076
vn 0.023701 0.863721 -0.503412
vn 0.152906 0.988240 0.000800
vn -0.067300 0.996793 -0.043300
vn -0.171205 0.719723 -0.672821
vn -0.114398 0.992186 -0.049799
vn -0.088308 0.799268 -0.594451
vn -0.171205 0.719723 -0.672821
vn -0.067300 0.996793 -0.043300
vn 0.212299 0.865394 -0.453897
vn 0.152906 0.988240 0.000800
vn 0.248390 0.968660 0.000000
vn 0.119594 0.848760 -0.515076
vn 0.152906 0.988240 0.000800
vn 0.212299 0.865394 -0.453897
s off
g polySurface3 polySurface2 Skiper:polySurface71
usemtl Skiper:Material_005
f 1/1/1 2/2/2 3/3/3
f 4/4/4 2/2/5 1/1/6
f 5/5/7 3/3/8 6/6/9
f 1/1/10 3/3/11 5/5/12
f 7/7/13 4/4/14 1/1/15
f 8/8/16 4/4/17 7/7/18
f 9/9/19 10/10/20 11/11/21
f 12/12/22 10/10/23 9/9/24
f 3/3/25 12/12/26 9/9/27
f 2/2/28 12/12/29 3/3/30
f 9/9/31 6/6/32 3/3/33
f 13/13/34 6/6/35 9/9/36
f 1/1/37 14/14/38 7/7/39
f 5/5/40 14/14/41 1/1/42
f 15/15/43 9/9/44 11/11/45
f 13/13/46 9/9/47 15/15/48
