# This file uses centimeters as units for non-parametric coordinates.

mtllib SkiperPIzq.mtl
g default
v 0.026787 -0.003577 0.072549
v 0.072651 -0.003715 -0.007623
v -0.025311 -0.003439 0.069315
v -0.082503 -0.142555 0.036249
v -0.206343 -0.141169 -0.220143
v -0.083859 -0.142555 -0.167895
v -0.254415 -0.141169 -0.155109
v -0.254541 -0.141169 -0.205299
v -0.025311 -0.003439 -0.084561
v -0.083859 -0.053599 -0.167895
v -0.210165 -0.082351 -0.120525
v -0.058827 -0.003367 -0.007581
v -0.162393 -0.083665 -0.185163
v 0.025173 -0.142555 -0.304281
v 0.076509 -0.142555 -0.176415
v -0.042327 -0.142555 -0.300975
v -0.042027 -0.083737 -0.244791
v 0.088899 -0.142555 0.035367
v -0.006219 -0.142555 -0.333231
v 0.070827 -0.054985 -0.176415
v 0.025173 -0.085051 -0.248139
v 0.028101 -0.003577 -0.088017
v 0.189663 -0.092743 -0.137427
v 0.235569 -0.150247 -0.169761
v 0.185205 -0.150247 -0.236115
v 0.139641 -0.091429 -0.203313
v 0.237351 -0.150247 -0.218703
vt 0.982422 0.767334
vt 0.976563 0.767334
vt 0.977539 0.767334
vt 0.978027 0.767334
vt 0.976563 0.767334
vt 0.979492 0.770752
vt 0.977539 0.769531
vt 0.979004 0.768799
vt 0.981445 0.770752
vt 0.977051 0.768799
vt 0.974121 0.767334
vt 0.977539 0.767334
vt 0.974121 0.767334
vt 0.975586 0.768799
vt 0.982422 0.767334
vt 0.973633 0.767334
vt 0.977539 0.769409
vt 0.975586 0.768677
vt 0.979492 0.770752
vt 0.978516 0.768555
vt 0.981445 0.770752
vt 0.977539 0.767090
vt 0.983398 0.770752
vt 0.983398 0.770752
vt 0.976074 0.767090
vt 0.976563 0.768555
vt 0.976563 0.767090
vn -0.438406 -0.585608 0.681809
vn -0.058998 -0.405988 -0.911972
vn -0.197897 -0.884784 -0.421893
vn -0.880105 -0.423002 0.215601
vn -0.058998 -0.405988 -0.911972
vn -0.438406 -0.585608 0.681809
vn -0.771800 -0.265900 -0.577600
vn -0.058998 -0.405988 -0.911972
vn -0.880105 -0.423002 0.215601
vn -0.556999 0.335800 -0.759599
vn -0.292714 0.733835 -0.613029
vn -0.700591 0.679991 0.216297
vn -0.700591 0.679991 0.216297
vn -0.980896 0.036400 0.191099
vn -0.556999 0.335800 -0.759599
vn -0.292714 0.733835 -0.613029
vn -0.075299 0.690195 -0.719695
vn -0.700591 0.679991 0.216297
vn -0.197897 -0.884784 -0.421893
vn -0.075299 0.690195 -0.719695
vn -0.292714 0.733835 -0.613029
vn -0.058998 -0.405988 -0.911972
vn -0.075299 0.690195 -0.719695
vn -0.197897 -0.884784 -0.421893
vn -0.771800 -0.265900 -0.577600
vn -0.700591 0.679991 0.216297
vn -0.075299 0.690195 -0.719695
vn -0.058998 -0.405988 -0.911972
vn -0.771800 -0.265900 -0.577600
vn -0.075299 0.690195 -0.719695
vn -0.700591 0.679991 0.216297
vn -0.771800 -0.265900 -0.577600
vn -0.880105 -0.423002 0.215601
vn -0.197897 -0.884784 -0.421893
vn 0.696717 -0.441211 -0.565614
vn 0.105207 -0.889063 -0.445532
vn -0.706509 -0.439105 -0.555007
vn 0.696717 -0.441211 -0.565614
vn -0.197897 -0.884784 -0.421893
vn -0.501411 0.702316 -0.505311
vn -0.197897 -0.884784 -0.421893
vn -0.292714 0.733835 -0.613029
vn -0.706509 -0.439105 -0.555007
vn -0.197897 -0.884784 -0.421893
vn -0.501411 0.702316 -0.505311
vn -0.438406 -0.585608 0.681809
vn 0.105207 -0.889063 -0.445532
vn 0.483704 -0.582204 0.653505
vn -0.197897 -0.884784 -0.421893
vn 0.105207 -0.889063 -0.445532
vn -0.438406 -0.585608 0.681809
vn -0.700591 0.679991 0.216297
vn -0.438406 -0.585608 0.681809
vn -0.980896 0.036400 0.191099
vn -0.880105 -0.423002 0.215601
vn -0.438406 -0.585608 0.681809
vn -0.700591 0.679991 0.216297
vn 0.007400 -0.259809 -0.965632
vn 0.696717 -0.441211 -0.565614
vn -0.706509 -0.439105 -0.555007
vn 0.278002 0.744405 -0.607104
vn -0.501411 0.702316 -0.505311
vn -0.292714 0.733835 -0.613029
vn 0.449104 0.717606 -0.532304
vn -0.501411 0.702316 -0.505311
vn 0.278002 0.744405 -0.607104
vn 0.560306 0.270103 -0.783008
vn -0.292714 0.733835 -0.613029
vn -0.556999 0.335800 -0.759599
vn 0.278002 0.744405 -0.607104
vn -0.292714 0.733835 -0.613029
vn 0.560306 0.270103 -0.783008
vn 0.105207 -0.889063 -0.445532
vn 0.449104 0.717606 -0.532304
vn 0.278002 0.744405 -0.607104
vn 0.696717 -0.441211 -0.565614
vn 0.449104 0.717606 -0.532304
vn 0.105207 -0.889063 -0.445532
vn 0.007400 -0.259809 -0.965632
vn -0.501411 0.702316 -0.505311
vn 0.449104 0.717606 -0.532304
vn 0.696717 -0.441211 -0.565614
vn 0.007400 -0.259809 -0.965632
vn 0.449104 0.717606 -0.532304
vn -0.501411 0.702316 -0.505311
vn 0.007400 -0.259809 -0.965632
vn -0.706509 -0.439105 -0.555007
vn 0.483704 -0.582204 0.653505
vn 0.709311 0.694310 0.121702
vn 0.908652 0.374980 0.183690
vn 0.872447 -0.435624 0.221512
vn 0.709311 0.694310 0.121702
vn 0.483704 -0.582204 0.653505
vn -0.438406 -0.585608 0.681809
vn -0.503199 -0.470899 0.724599
vn -0.980896 0.036400 0.191099
vn -0.438406 -0.585608 0.681809
vn 0.436726 -0.511330 0.740143
vn -0.503199 -0.470899 0.724599
vn 0.483704 -0.582204 0.653505
vn 0.436726 -0.511330 0.740143
vn -0.438406 -0.585608 0.681809
vn 0.483704 -0.582204 0.653505
vn 0.908652 0.374980 0.183690
vn 0.436726 -0.511330 0.740143
vn 0.105207 -0.889063 -0.445532
vn 0.872447 -0.435624 0.221512
vn 0.483704 -0.582204 0.653505
vn 0.024401 -0.434315 -0.900431
vn 0.872447 -0.435624 0.221512
vn 0.105207 -0.889063 -0.445532
vn 0.020601 0.636441 -0.771050
vn 0.105207 -0.889063 -0.445532
vn 0.278002 0.744405 -0.607104
vn 0.024401 -0.434315 -0.900431
vn 0.105207 -0.889063 -0.445532
vn 0.020601 0.636441 -0.771050
vn 0.792732 -0.263611 -0.549622
vn 0.872447 -0.435624 0.221512
vn 0.024401 -0.434315 -0.900431
vn 0.560306 0.270103 -0.783008
vn 0.709311 0.694310 0.121702
vn 0.278002 0.744405 -0.607104
vn 0.560306 0.270103 -0.783008
vn 0.908652 0.374980 0.183690
vn 0.709311 0.694310 0.121702
vn 0.709311 0.694310 0.121702
vn 0.020601 0.636441 -0.771050
vn 0.278002 0.744405 -0.607104
vn 0.792732 -0.263611 -0.549622
vn 0.020601 0.636441 -0.771050
vn 0.709311 0.694310 0.121702
vn 0.872447 -0.435624 0.221512
vn 0.792732 -0.263611 -0.549622
vn 0.709311 0.694310 0.121702
vn 0.020601 0.636441 -0.771050
vn 0.792732 -0.263611 -0.549622
vn 0.024401 -0.434315 -0.900431
s off
g polySurface5 polySurface4 polySurface2 Skiper:polySurface71
usemtl Skiper:Material_005
f 4/1/1 5/2/2 6/3/3
f 7/4/4 5/2/5 4/1/6
f 8/5/7 5/2/8 7/4/9
f 9/6/10 10/7/11 11/8/12
f 11/8/13 12/9/14 9/6/15
f 10/7/16 13/10/17 11/8/18
f 6/3/19 13/10/20 10/7/21
f 5/2/22 13/10/23 6/3/24
f 8/5/25 11/8/26 13/10/27
f 5/2/28 8/5/29 13/10/30
f 11/8/31 8/5/32 7/4/33
f 6/3/34 14/11/35 15/12/36
f 16/13/37 14/11/38 6/3/39
f 17/14/40 6/3/41 10/7/42
f 16/13/43 6/3/44 17/14/45
f 4/1/46 15/12/47 18/15/48
f 6/3/49 15/12/50 4/1/51
f 11/8/52 4/1/53 12/9/54
f 7/4/55 4/1/56 11/8/57
f 19/16/58 14/11/59 16/13/60
f 20/17/61 17/14/62 10/7/63
f 21/18/64 17/14/65 20/17/66
f 22/19/67 10/7/68 9/6/69
f 20/17/70 10/7/71 22/19/72
f 15/12/73 21/18/74 20/17/75
f 14/11/76 21/18/77 15/12/78
f 19/16/79 17/14/80 21/18/81
f 14/11/82 19/16/83 21/18/84
f 17/14/85 19/16/86 16/13/87
f 18/15/88 23/20/89 2/21/90
f 24/22/91 23/20/92 18/15/93
f 4/1/94 3/23/95 12/9/96
f 4/1/97 1/24/98 3/23/99
f 18/15/100 1/24/101 4/1/102
f 18/15/103 2/21/104 1/24/105
f 15/12/106 24/22/107 18/15/108
f 25/25/109 24/22/110 15/12/111
f 26/26/112 15/12/113 20/17/114
f 25/25/115 15/12/116 26/26/117
f 27/27/118 24/22/119 25/25/120
f 22/19/121 23/20/122 20/17/123
f 22/19/124 2/21/125 23/20/126
f 23/20/127 26/26/128 20/17/129
f 27/27/130 26/26/131 23/20/132
f 24/22/133 27/27/134 23/20/135
f 26/26/136 27/27/137 25/25/138
