# This file uses centimeters as units for non-parametric coordinates.

mtllib SkiperPDer.mtl
g default
v -0.014312 0.005777 0.083036
v -0.060092 0.005639 0.002864
v 0.037786 0.005915 0.079802
v 0.095062 -0.133201 0.046736
v 0.218824 -0.131815 -0.209656
v 0.266974 -0.131815 -0.144622
v 0.096334 -0.133201 -0.157408
v 0.267016 -0.131815 -0.194812
v 0.222724 -0.072997 -0.110038
v 0.096334 -0.044245 -0.157408
v 0.037786 0.005915 -0.074074
v 0.071392 0.005987 0.002906
v 0.174952 -0.074311 -0.174676
v -0.012614 -0.133201 -0.293794
v 0.054886 -0.133201 -0.290488
v -0.063950 -0.133201 -0.165928
v 0.054592 -0.074383 -0.234304
v -0.076424 -0.133201 0.045854
v 0.018784 -0.133201 -0.322744
v -0.058268 -0.045631 -0.165928
v -0.012614 -0.075697 -0.237652
v -0.015626 0.005777 -0.077530
v -0.177188 -0.083389 -0.126940
v -0.223004 -0.140893 -0.159274
v -0.172646 -0.140893 -0.225628
v -0.127082 -0.082075 -0.192826
v -0.224786 -0.140893 -0.208216
vt 0.982422 0.767334
vt 0.976563 0.767334
vt 0.978027 0.767334
vt 0.977539 0.767334
vt 0.976563 0.767334
vt 0.979004 0.768799
vt 0.977539 0.769531
vt 0.979492 0.770752
vt 0.981445 0.770752
vt 0.977051 0.768799
vt 0.974121 0.767334
vt 0.974121 0.767334
vt 0.977539 0.767334
vt 0.975586 0.768799
vt 0.982422 0.767334
vt 0.973633 0.767334
vt 0.977539 0.769409
vt 0.975586 0.768677
vt 0.979492 0.770752
vt 0.978516 0.768555
vt 0.977539 0.767090
vt 0.981445 0.770752
vt 0.983398 0.770752
vt 0.983398 0.770752
vt 0.976074 0.767090
vt 0.976563 0.768555
vt 0.976563 0.767090
vn 0.438406 -0.585608 0.681809
vn 0.058899 -0.405990 -0.911978
vn 0.880496 -0.422598 0.214799
vn 0.198096 -0.884883 -0.421592
vn 0.058899 -0.405990 -0.911978
vn 0.438406 -0.585608 0.681809
vn 0.880496 -0.422598 0.214799
vn 0.058899 -0.405990 -0.911978
vn 0.771419 -0.266106 -0.578014
vn 0.700606 0.680006 0.216202
vn 0.292710 0.733926 -0.612922
vn 0.556703 0.335602 -0.759904
vn 0.556703 0.335602 -0.759904
vn 0.980862 0.036702 0.191212
vn 0.700606 0.680006 0.216202
vn 0.700606 0.680006 0.216202
vn 0.075504 0.690438 -0.719440
vn 0.292710 0.733926 -0.612922
vn 0.198096 -0.884883 -0.421592
vn 0.075504 0.690438 -0.719440
vn 0.058899 -0.405990 -0.911978
vn 0.292710 0.733926 -0.612922
vn 0.075504 0.690438 -0.719440
vn 0.198096 -0.884883 -0.421592
vn 0.075504 0.690438 -0.719440
vn 0.700606 0.680006 0.216202
vn 0.771419 -0.266106 -0.578014
vn 0.075504 0.690438 -0.719440
vn 0.771419 -0.266106 -0.578014
vn 0.058899 -0.405990 -0.911978
vn 0.880496 -0.422598 0.214799
vn 0.771419 -0.266106 -0.578014
vn 0.700606 0.680006 0.216202
vn 0.198096 -0.884883 -0.421592
vn -0.696626 -0.441216 -0.565721
vn 0.706606 -0.439204 -0.554805
vn -0.105207 -0.889063 -0.445532
vn -0.696626 -0.441216 -0.565721
vn 0.198096 -0.884883 -0.421592
vn 0.501832 0.702144 -0.505132
vn 0.198096 -0.884883 -0.421592
vn 0.706606 -0.439204 -0.554805
vn 0.292710 0.733926 -0.612922
vn 0.198096 -0.884883 -0.421592
vn 0.501832 0.702144 -0.505132
vn 0.438406 -0.585608 0.681809
vn -0.105207 -0.889063 -0.445532
vn 0.198096 -0.884883 -0.421592
vn -0.483808 -0.582110 0.653511
vn -0.105207 -0.889063 -0.445532
vn 0.438406 -0.585608 0.681809
vn 0.700606 0.680006 0.216202
vn 0.438406 -0.585608 0.681809
vn 0.880496 -0.422598 0.214799
vn 0.980862 0.036702 0.191212
vn 0.438406 -0.585608 0.681809
vn 0.700606 0.680006 0.216202
vn 0.706606 -0.439204 -0.554805
vn -0.696626 -0.441216 -0.565721
vn -0.007300 -0.259809 -0.965632
vn -0.277804 0.744312 -0.607310
vn 0.501832 0.702144 -0.505132
vn -0.449104 0.717606 -0.532304
vn 0.292710 0.733926 -0.612922
vn 0.501832 0.702144 -0.505132
vn -0.277804 0.744312 -0.607310
vn -0.560835 0.270917 -0.782348
vn 0.292710 0.733926 -0.612922
vn -0.277804 0.744312 -0.607310
vn 0.556703 0.335602 -0.759904
vn 0.292710 0.733926 -0.612922
vn -0.560835 0.270917 -0.782348
vn -0.105207 -0.889063 -0.445532
vn -0.449104 0.717606 -0.532304
vn -0.696626 -0.441216 -0.565721
vn -0.277804 0.744312 -0.607310
vn -0.449104 0.717606 -0.532304
vn -0.105207 -0.889063 -0.445532
vn -0.449104 0.717606 -0.532304
vn 0.501832 0.702144 -0.505132
vn -0.007300 -0.259809 -0.965632
vn -0.449104 0.717606 -0.532304
vn -0.007300 -0.259809 -0.965632
vn -0.696626 -0.441216 -0.565721
vn 0.706606 -0.439204 -0.554805
vn -0.007300 -0.259809 -0.965632
vn 0.501832 0.702144 -0.505132
vn -0.483808 -0.582110 0.653511
vn -0.709616 0.694016 0.121603
vn -0.872248 -0.436124 0.221312
vn -0.908685 0.374994 0.183497
vn -0.709616 0.694016 0.121603
vn -0.483808 -0.582110 0.653511
vn 0.980862 0.036702 0.191212
vn 0.502791 -0.470892 0.724887
vn 0.438406 -0.585608 0.681809
vn 0.438406 -0.585608 0.681809
vn -0.437414 -0.510916 0.740023
vn -0.483808 -0.582110 0.653511
vn 0.502791 -0.470892 0.724887
vn -0.437414 -0.510916 0.740023
vn 0.438406 -0.585608 0.681809
vn -0.437414 -0.510916 0.740023
vn -0.908685 0.374994 0.183497
vn -0.483808 -0.582110 0.653511
vn -0.105207 -0.889063 -0.445532
vn -0.872248 -0.436124 0.221312
vn -0.024401 -0.434315 -0.900431
vn -0.483808 -0.582110 0.653511
vn -0.872248 -0.436124 0.221312
vn -0.105207 -0.889063 -0.445532
vn -0.020501 0.636334 -0.771141
vn -0.105207 -0.889063 -0.445532
vn -0.024401 -0.434315 -0.900431
vn -0.277804 0.744312 -0.607310
vn -0.105207 -0.889063 -0.445532
vn -0.020501 0.636334 -0.771141
vn -0.024401 -0.434315 -0.900431
vn -0.872248 -0.436124 0.221312
vn -0.792566 -0.263789 -0.549777
vn -0.277804 0.744312 -0.607310
vn -0.709616 0.694016 0.121603
vn -0.560835 0.270917 -0.782348
vn -0.709616 0.694016 0.121603
vn -0.908685 0.374994 0.183497
vn -0.560835 0.270917 -0.782348
vn -0.277804 0.744312 -0.607310
vn -0.020501 0.636334 -0.771141
vn -0.709616 0.694016 0.121603
vn -0.709616 0.694016 0.121603
vn -0.020501 0.636334 -0.771141
vn -0.792566 -0.263789 -0.549777
vn -0.709616 0.694016 0.121603
vn -0.792566 -0.263789 -0.549777
vn -0.872248 -0.436124 0.221312
vn -0.024401 -0.434315 -0.900431
vn -0.792566 -0.263789 -0.549777
vn -0.020501 0.636334 -0.771141
s off
g polySurface7 polySurface6 polySurface4 polySurface2 Skiper:polySurface71
usemtl Skiper:Material_005
f 4/1/1 5/2/2 6/3/3
f 7/4/4 5/2/5 4/1/6
f 6/3/7 5/2/8 8/5/9
f 9/6/10 10/7/11 11/8/12
f 11/8/13 12/9/14 9/6/15
f 9/6/16 13/10/17 10/7/18
f 7/4/19 13/10/20 5/2/21
f 10/7/22 13/10/23 7/4/24
f 13/10/25 9/6/26 8/5/27
f 13/10/28 8/5/29 5/2/30
f 6/3/31 8/5/32 9/6/33
f 7/4/34 14/11/35 15/12/36
f 16/13/37 14/11/38 7/4/39
f 17/14/40 7/4/41 15/12/42
f 10/7/43 7/4/44 17/14/45
f 4/1/46 16/13/47 7/4/48
f 18/15/49 16/13/50 4/1/51
f 9/6/52 4/1/53 6/3/54
f 12/9/55 4/1/56 9/6/57
f 15/12/58 14/11/59 19/16/60
f 20/17/61 17/14/62 21/18/63
f 10/7/64 17/14/65 20/17/66
f 22/19/67 10/7/68 20/17/69
f 11/8/70 10/7/71 22/19/72
f 16/13/73 21/18/74 14/11/75
f 20/17/76 21/18/77 16/13/78
f 21/18/79 17/14/80 19/16/81
f 21/18/82 19/16/83 14/11/84
f 15/12/85 19/16/86 17/14/87
f 18/15/88 23/20/89 24/21/90
f 2/22/91 23/20/92 18/15/93
f 12/9/94 3/23/95 4/1/96
f 4/1/97 1/24/98 18/15/99
f 3/23/100 1/24/101 4/1/102
f 1/24/103 2/22/104 18/15/105
f 16/13/106 24/21/107 25/25/108
f 18/15/109 24/21/110 16/13/111
f 26/26/112 16/13/113 25/25/114
f 20/17/115 16/13/116 26/26/117
f 25/25/118 24/21/119 27/27/120
f 20/17/121 23/20/122 22/19/123
f 23/20/124 2/22/125 22/19/126
f 20/17/127 26/26/128 23/20/129
f 23/20/130 26/26/131 27/27/132
f 23/20/133 27/27/134 24/21/135
f 25/25/136 27/27/137 26/26/138
